<svg xmlns="http://www.w3.org/2000/svg" width="2009" height="2009" viewBox="0 0 2009 2009" version="1.1"><path d="M 441.416 498.358 C 441.129 499.105, 441.079 642.993, 441.305 818.108 L 441.715 1136.500 442.853 1150 C 447.443 1204.490, 453.262 1240.862, 463.489 1279 C 490.413 1379.404, 541.319 1458.153, 614.445 1512.521 C 665.460 1550.450, 729.839 1576.859, 800.506 1588.845 C 831.602 1594.119, 855.743 1596.417, 892 1597.554 L 912.500 1598.196 936.485 1597.077 C 976.064 1595.229, 1004.890 1591.549, 1036 1584.373 C 1063.582 1578.011, 1094.928 1567.355, 1121.107 1555.441 L 1131.715 1550.614 1116.725 1534.557 C 1061.672 1475.583, 1023.993 1409.632, 998.610 1327.812 C 996.104 1319.733, 993.304 1310.058, 992.389 1306.312 C 991.474 1302.565, 990.423 1299.159, 990.055 1298.743 L 989.385 1297.985 983.349 1300.909 C 968.955 1307.881, 950.787 1312.799, 931.078 1315.057 L 920.656 1316.251 898.578 1315.735 L 876.500 1315.219 864.980 1313.166 C 844.525 1309.520, 829.511 1303.851, 815.342 1294.423 L 807.149 1288.972 799.489 1281.263 L 791.830 1273.553 786.522 1265.527 C 783.603 1261.112, 779.079 1253.225, 776.470 1248 L 771.726 1238.500 767.352 1225.211 L 762.978 1211.922 760.021 1197.211 C 757.086 1182.610, 755.152 1169.096, 752.836 1147 L 751.630 1135.500 751.285 816.250 L 750.941 497 596.439 497 L 441.937 497 441.416 498.358" stroke="none" fill="#ffffff" fill-rule="evenodd"/><path d="M 955.182 1.078 C 880.136 4.635, 796.617 18.568, 725.308 39.427 C 582.389 81.234, 456.063 150.602, 342.186 249.806 L 325.500 264.343 295.440 294.421 L 265.380 324.500 250.825 341.186 C 152.032 454.444, 81.273 583.411, 40.515 724.500 C 20.147 795.005, 8.370 862.514, 2.832 940.500 L 1.554 958.500 1.554 1004 L 1.554 1049.500 2.832 1067.500 C 8.370 1145.486, 20.147 1212.995, 40.515 1283.500 C 81.359 1424.888, 152.430 1554.187, 251.859 1668 L 265.401 1683.500 295.450 1713.550 L 325.500 1743.599 341 1757.141 C 483.648 1881.762, 651.452 1962.145, 834.361 1993.478 C 887.789 2002.630, 931.211 2006.625, 988.500 2007.658 L 1022.500 2008.271 1048 2007.103 C 1131.022 2003.300, 1207.878 1990.790, 1284.817 1968.557 C 1493.090 1908.372, 1677.632 1780.772, 1808.445 1606.500 C 1905.788 1476.816, 1969.395 1328.234, 1995.949 1168.500 C 2005.087 1113.532, 2008.971 1064.463, 2008.971 1004 C 2008.971 954.795, 2007.034 922.255, 2001.441 877.500 C 1963.370 572.872, 1785.761 301.178, 1520.800 142.246 C 1379.090 57.244, 1219.216 8.983, 1053 1.034 C 1028.916 -0.118, 979.950 -0.096, 955.182 1.078 M 441.271 818.250 L 441.609 1139.500 443.310 1159 C 447.593 1208.117, 454.527 1248.536, 465.071 1285.836 C 505.646 1429.376, 595.573 1526.959, 727.770 1570.899 C 778.954 1587.911, 830.120 1596.191, 893 1597.636 L 919.500 1598.245 941.492 1597.100 C 1004.030 1593.844, 1051.316 1584.068, 1101.500 1564.022 C 1113.047 1559.410, 1130.877 1551.457, 1131.848 1550.485 C 1132.106 1550.227, 1126.279 1543.825, 1118.899 1536.258 C 1061.692 1477.601, 1018.441 1399.893, 994.359 1312.500 C 992.389 1305.350, 990.459 1299.154, 990.070 1298.731 L 989.363 1297.963 981.931 1301.374 C 971.162 1306.318, 956.404 1310.785, 943.111 1313.125 L 931.500 1315.169 913.500 1315.707 L 895.500 1316.246 883.439 1315.133 C 852.347 1312.264, 832.284 1305.870, 813.289 1292.776 L 806.079 1287.805 798.491 1279.863 L 790.904 1271.921 785.370 1263.432 C 767.855 1236.561, 758.199 1201.111, 752.839 1144 L 751.665 1131.500 751.297 814.250 L 750.929 497 595.931 497 L 440.933 497 441.271 818.250 M 1067.304 818.250 L 1067.677 1139.500 1068.846 1153 C 1073.175 1202.980, 1078.261 1235.325, 1087.565 1272.044 C 1135.591 1461.588, 1267.954 1574.209, 1466.500 1594.461 C 1474.750 1595.302, 1490.275 1596.438, 1501 1596.986 L 1520.500 1597.981 1588.250 1597.990 L 1656 1598 1656 1457 L 1656 1316 1587.106 1316 L 1518.212 1316 1507.856 1314.981 C 1469.069 1311.166, 1443.769 1300.339, 1423.545 1278.900 C 1410.589 1265.167, 1401.299 1248.364, 1393.415 1224.406 L 1388.978 1210.922 1386.049 1196.211 C 1383.087 1181.336, 1381.004 1166.386, 1378.844 1144.500 L 1377.660 1132.500 1377.292 814.750 L 1376.924 497 1221.927 497 L 1066.930 497 1067.304 818.250" stroke="none" fill="#1b171b" fill-rule="evenodd"/><path d="M 1067.304 818.250 L 1067.677 1139.500 1068.846 1153 C 1073.175 1202.980, 1078.261 1235.325, 1087.565 1272.044 C 1135.591 1461.588, 1267.954 1574.209, 1466.500 1594.461 C 1474.750 1595.302, 1490.275 1596.438, 1501 1596.986 L 1520.500 1597.981 1588.250 1597.990 L 1656 1598 1656 1457 L 1656 1316 1587.106 1316 L 1518.212 1316 1507.856 1314.981 C 1469.069 1311.166, 1443.769 1300.339, 1423.545 1278.900 C 1410.589 1265.167, 1401.299 1248.364, 1393.415 1224.406 L 1388.978 1210.922 1386.049 1196.211 C 1383.087 1181.336, 1381.004 1166.386, 1378.844 1144.500 L 1377.660 1132.500 1377.292 814.750 L 1376.924 497 1221.927 497 L 1066.930 497 1067.304 818.250" stroke="none" fill="#ffef44" fill-rule="evenodd"/></svg>