<svg xmlns="http://www.w3.org/2000/svg" width="149" height="149" viewBox="0 0 149 149" version="1.1"><path d="M 14.626 84.707 C 14.238 85.096, 11.238 90.963, 7.960 97.745 C 4.682 104.527, 2 110.522, 2 111.068 L 2 112.060 14.750 111.780 L 27.500 111.500 34.208 98.500 C 37.898 91.350, 40.935 85.162, 40.958 84.750 L 41 84 28.167 84 L 15.333 84 14.626 84.707" stroke="none" fill="#fca405" fill-rule="evenodd"/><path d="M 29 31.584 C 29 31.906, 37.882 49.906, 48.738 71.584 L 68.475 111 81.740 111 L 95.005 111 75 71 L 54.995 31 41.998 31 L 29 31 29 31.584 M 101.627 44.746 L 95.239 57.492 108.623 84.246 L 122.007 111 135.004 111 C 142.152 111, 148 110.773, 148 110.495 C 148 110.217, 139.224 92.442, 128.497 70.995 C 117.771 49.548, 108.775 32, 108.505 32 C 108.236 32, 105.140 37.736, 101.627 44.746" stroke="none" fill="#84256c" fill-rule="evenodd"/></svg>