<svg xmlns="http://www.w3.org/2000/svg" width="150" height="150" viewBox="0 0 150 150" version="1.1"><path d="M 82.324 25.859 C 83.327 26.255, 84.054 26.994, 83.939 27.503 C 83.824 28.011, 84.354 28.770, 85.115 29.189 C 85.877 29.609, 88.188 30.614, 90.250 31.425 C 92.313 32.235, 94 33.355, 94 33.914 C 94 34.473, 93.179 35.369, 92.175 35.906 C 90.685 36.704, 90.456 37.675, 90.925 41.192 C 91.391 44.685, 91.926 45.560, 93.750 45.820 C 94.987 45.995, 95.986 46.445, 95.968 46.820 C 95.951 47.194, 95.283 48.364, 94.484 49.419 C 93.075 51.281, 92.971 51.284, 91.010 49.509 C 89.898 48.502, 88.720 47.946, 88.394 48.273 C 88.067 48.600, 88.096 49.347, 88.459 49.933 C 88.821 50.520, 89.718 51, 90.451 51 C 91.184 51, 92.083 52.195, 92.450 53.656 C 92.899 55.445, 92.612 56.816, 91.572 57.856 C 90.180 59.249, 90.231 59.617, 92.092 61.598 C 94.116 63.752, 94.120 63.860, 92.328 67.029 C 91.323 68.806, 89.944 71.215, 89.264 72.381 C 88.483 73.721, 88.240 76.338, 88.604 79.500 C 89.059 83.446, 89.838 85.080, 92.302 87.250 C 94.041 88.781, 96.606 90, 98.090 90 C 99.556 90, 101.315 89.325, 102 88.500 C 102.685 87.675, 104.315 87, 105.622 87 C 106.975 87, 108 87.594, 108 88.378 C 108 89.135, 108.589 90.244, 109.308 90.841 C 110.234 91.609, 114.098 91.643, 122.515 90.957 C 129.059 90.424, 134.773 89.627, 135.214 89.186 C 135.655 88.745, 132.852 88.813, 128.985 89.336 C 125.118 89.859, 121.745 90.078, 121.489 89.822 C 121.233 89.566, 121.556 85.703, 122.207 81.237 C 123.145 74.800, 123.123 71.705, 122.099 66.308 C 121.389 62.564, 119.484 56.601, 117.866 53.057 C 116.248 49.513, 113.288 44.617, 111.289 42.177 C 109.290 39.737, 104.989 35.779, 101.732 33.381 C 98.341 30.886, 93.026 28.162, 89.299 27.011 C 85.719 25.905, 82.274 25.032, 81.645 25.070 C 81.015 25.109, 81.321 25.464, 82.324 25.859 M 59.605 26.717 C 58.374 27.033, 58.111 27.450, 58.854 27.910 C 59.574 28.355, 58.426 29.765, 55.749 31.721 C 53.412 33.428, 48.861 36.851, 45.635 39.326 C 42.410 41.802, 39.159 44.878, 38.412 46.163 C 37.665 47.449, 36.385 49.904, 35.568 51.619 C 34.751 53.335, 33.781 57.685, 33.412 61.286 C 32.850 66.767, 33.079 68.539, 34.819 72.167 C 35.961 74.550, 37.359 77.737, 37.923 79.250 C 38.488 80.763, 39.429 82, 40.015 82 C 40.685 82, 40.972 84.317, 40.790 88.250 L 40.500 94.500 50.429 94.788 C 55.890 94.947, 60.954 94.848, 61.682 94.568 C 62.722 94.169, 62.603 93.396, 61.129 90.971 C 60.096 89.273, 56.847 86.334, 53.909 84.441 C 50.971 82.549, 47.352 81, 45.866 81 C 44.379 81, 42.452 80.727, 41.582 80.393 C 40.712 80.059, 40 78.799, 40 77.593 C 40 76.387, 39.479 74.879, 38.842 74.242 C 37.966 73.366, 37.995 72.711, 38.965 71.542 C 40.029 70.260, 39.971 70, 38.622 70 C 37.435 70, 37 69.062, 37 66.500 C 37 63.476, 37.325 63, 39.392 63 C 41.130 63, 41.961 63.706, 42.433 65.588 C 42.968 67.721, 43.339 67.963, 44.541 66.966 C 45.344 66.300, 46 65.291, 46 64.724 C 46 64.157, 47.875 61.962, 50.166 59.846 C 52.458 57.731, 55.328 56, 56.544 56 C 57.760 56, 59.324 55.315, 60.019 54.477 C 60.718 53.635, 62.076 53.207, 63.060 53.519 C 64.249 53.897, 64.964 53.490, 65.220 52.292 C 65.431 51.306, 65.130 49.603, 64.552 48.507 C 63.973 47.411, 62.764 45.503, 61.864 44.267 C 60.442 42.314, 60.067 42.215, 58.992 43.510 C 58.312 44.330, 57.102 45, 56.304 45 C 55.474 45, 54.994 44.269, 55.183 43.290 C 55.382 42.256, 56.875 41.301, 58.958 40.875 C 61.492 40.356, 62.695 40.568, 63.505 41.675 C 64.418 42.924, 64.793 42.952, 65.707 41.840 C 66.313 41.103, 66.964 39.375, 67.154 38 C 67.348 36.598, 68.159 35.500, 69 35.500 C 70.085 35.500, 70.523 36.675, 70.582 39.749 C 70.627 42.085, 71.001 44.335, 71.414 44.747 C 71.826 45.159, 72.689 44.817, 73.332 43.986 C 73.974 43.155, 75.737 41.928, 77.250 41.259 C 78.763 40.590, 80 39.437, 80 38.696 C 80 37.955, 78.890 36.306, 77.533 35.031 C 75.430 33.056, 74.360 32.797, 70.283 33.279 C 67.283 33.633, 64.890 33.396, 63.863 32.644 C 62.873 31.919, 62.344 30.370, 62.525 28.722 C 62.689 27.225, 62.526 26.052, 62.162 26.116 C 61.798 26.180, 60.647 26.450, 59.605 26.717 M 106.500 56.965 C 104.850 57.420, 102.263 58.073, 100.750 58.415 C 99.237 58.758, 98 59.705, 98 60.519 C 98 61.334, 98.255 62, 98.566 62 C 98.877 62, 99.976 61.548, 101.009 60.995 C 102.298 60.305, 103.671 60.349, 105.393 61.133 C 107.408 62.051, 108.608 61.939, 111.508 60.563 C 113.493 59.621, 114.943 58.322, 114.731 57.675 C 114.519 57.029, 113.255 56.418, 111.923 56.319 C 110.590 56.219, 108.150 56.510, 106.500 56.965 M 139 95.046 C 135.425 95.481, 125.300 96.356, 116.500 96.991 C 107.700 97.626, 97.332 98.545, 93.460 99.033 C 89.589 99.522, 73.839 100.216, 58.460 100.575 C 40.504 100.995, 26.027 100.829, 18 100.110 C 11.125 99.494, 4.263 98.715, 2.750 98.378 C 0.068 97.782, 0 97.878, 0 102.247 L 0 106.728 4.640 107.364 C 7.191 107.714, 20.129 107.990, 33.390 107.979 C 46.650 107.967, 66.950 107.284, 78.500 106.462 C 90.050 105.640, 104.675 104.555, 111 104.051 C 117.325 103.547, 127 102.646, 132.500 102.048 C 138 101.451, 144.156 100.711, 146.181 100.405 C 149.739 99.866, 149.876 99.958, 150.271 103.174 C 150.658 106.325, 150.688 106.289, 150.826 102.500 C 150.907 100.300, 150.701 97.487, 150.370 96.250 C 149.966 94.744, 149.061 94.042, 147.633 94.128 C 146.460 94.198, 142.575 94.611, 139 95.046 M 51.570 113.887 C 51.269 114.374, 51.692 115.329, 52.511 116.009 C 53.330 116.689, 54 117.688, 54 118.229 C 54 118.771, 53.212 118.914, 52.250 118.548 C 51.046 118.089, 50.820 118.205, 51.527 118.918 C 52.092 119.488, 55.200 120.865, 58.434 121.977 C 61.667 123.090, 64.805 123.971, 65.407 123.937 C 66.008 123.902, 65.487 123.466, 64.250 122.969 C 62.818 122.393, 62 121.216, 62 119.732 C 62 118.450, 62.501 116.899, 63.113 116.287 C 63.725 115.675, 63.923 114.685, 63.554 114.087 C 63.184 113.489, 60.460 113, 57.500 113 C 54.540 113, 51.871 113.399, 51.570 113.887" stroke="none" fill="#9ccaea" fill-rule="evenodd"/><path d="M 59 13.576 C 55.975 14.371, 50.347 16.562, 46.492 18.445 C 42.638 20.329, 36.664 24.422, 33.217 27.542 C 29.769 30.662, 25.664 35.081, 24.095 37.362 C 22.525 39.643, 20.318 43.154, 19.189 45.164 C 18.060 47.173, 16.243 51.710, 15.151 55.245 C 14.059 58.781, 12.866 65.234, 12.500 69.587 C 12.111 74.199, 12.307 80.404, 12.970 84.461 C 13.595 88.290, 14.587 92.003, 15.175 92.711 C 15.847 93.521, 18.660 94, 22.739 94 L 29.233 94 28.602 91.250 C 28.255 89.737, 27.460 85.376, 26.836 81.558 C 25.986 76.357, 25.990 72.718, 26.852 67.058 C 27.572 62.326, 29.312 56.828, 31.504 52.355 C 33.430 48.426, 37.028 42.961, 39.500 40.211 C 41.972 37.461, 46.247 33.767, 48.999 32 C 51.752 30.234, 56.743 27.937, 60.091 26.895 C 64.007 25.676, 69.141 25, 74.484 25 C 79.979 25, 84.992 25.680, 89.299 27.011 C 93.026 28.162, 98.341 30.886, 101.732 33.381 C 104.989 35.779, 109.254 39.712, 111.209 42.121 C 113.164 44.529, 115.926 48.816, 117.346 51.647 C 118.767 54.478, 120.677 60.081, 121.590 64.098 C 122.688 68.924, 123.054 73.454, 122.669 77.451 C 122.349 80.778, 121.774 85.022, 121.392 86.883 L 120.697 90.265 127.598 89.545 C 131.394 89.149, 134.885 88.457, 135.355 88.008 C 135.825 87.558, 136.441 83.435, 136.723 78.845 C 137.061 73.356, 136.692 67.628, 135.647 62.109 C 134.772 57.495, 132.759 50.970, 131.173 47.609 C 129.587 44.249, 126.424 39.025, 124.143 36 C 121.863 32.975, 117.480 28.413, 114.403 25.862 C 111.326 23.312, 105.924 19.818, 102.399 18.100 C 98.874 16.381, 93.179 14.312, 89.745 13.502 C 86.310 12.692, 79.225 12.053, 74 12.081 C 68.775 12.109, 62.025 12.782, 59 13.576 M 115.710 110.089 C 108.807 110.819, 107.445 111.319, 103.747 114.484 C 101.452 116.449, 97.308 119.128, 94.537 120.439 C 91.767 121.749, 86.575 123.357, 83 124.012 C 79.389 124.673, 73.770 124.927, 70.358 124.584 C 66.979 124.244, 61.748 123.118, 58.733 122.080 C 55.717 121.043, 51.457 119.007, 49.266 117.557 C 45.566 115.109, 44.614 114.942, 35.891 115.211 L 26.500 115.500 31.657 120.511 C 34.493 123.267, 39.668 127.216, 43.157 129.287 C 46.646 131.358, 52.425 133.970, 56 135.090 C 59.575 136.211, 66.325 137.382, 71 137.692 C 76.928 138.086, 81.873 137.765, 87.341 136.632 C 92.085 135.649, 98.405 133.330, 103.341 130.763 C 108.692 127.979, 113.771 124.279, 118.099 120.009 C 121.729 116.429, 125.232 112.487, 125.884 111.250 C 126.909 109.306, 126.828 109.018, 125.285 109.133 C 124.303 109.206, 119.995 109.636, 115.710 110.089" stroke="none" fill="#0c2d59" fill-rule="evenodd"/></svg>