<svg xmlns="http://www.w3.org/2000/svg" width="150" height="150" viewBox="0 0 150 150" version="1.1"><path d="M 84.667 26.667 C 83.450 27.884, 83.976 29, 85.768 29 C 90.371 29, 96.655 35.334, 93 36.290 C 91.411 36.705, 91 37.654, 91 40.906 C 91 44.333, 91.326 45, 93 45 C 95.865 45, 96.518 44.663, 96.363 43.261 C 96.288 42.579, 96.625 42.268, 97.113 42.570 C 98.202 43.243, 98.299 47, 97.227 47 C 95.907 47, 92.737 53.766, 93.489 54.981 C 93.880 55.615, 93.407 56.713, 92.438 57.422 C 90.217 59.046, 91.199 62, 93.960 62 C 95.073 62, 96.545 61.100, 97.232 60 C 97.919 58.900, 99.471 58, 100.682 58 C 101.892 58, 103.183 57.514, 103.550 56.919 C 103.918 56.324, 105.257 56.099, 106.526 56.417 C 107.858 56.751, 108.997 56.510, 109.217 55.848 C 109.494 55.017, 110.395 55.086, 112.476 56.100 C 116.134 57.881, 116.915 60, 113.912 60 C 112.672 60, 110.929 60.659, 110.039 61.465 C 108.673 62.701, 108.021 62.724, 105.878 61.612 C 99.578 58.343, 86.980 69.737, 88.448 77.375 C 88.751 78.956, 89 81.265, 89 82.506 C 89 86.639, 95.185 90.297, 99.988 89.003 C 102.195 88.409, 104 87.553, 104 87.100 C 104 86.648, 105.125 86.492, 106.500 86.755 C 108.113 87.064, 109 87.902, 109 89.117 C 109 90.837, 109.801 90.986, 118.250 90.840 C 123.338 90.752, 125.988 90.495, 124.139 90.268 C 120.947 89.877, 120.811 89.698, 121.433 86.678 C 126.398 62.543, 106.980 24.373, 91.760 28.353 C 90.790 28.606, 90.261 28.387, 90.582 27.867 C 90.930 27.305, 90.016 27.172, 88.334 27.541 C 86.164 28.016, 85.852 27.912, 87 27.096 C 88.319 26.159, 88.309 26.029, 86.917 26.015 C 86.046 26.007, 85.033 26.300, 84.667 26.667 M 60.273 29.326 C 54.023 31.599, 39.586 44.006, 36.757 49.533 C 32.538 57.778, 32.805 75, 37.152 75 C 37.618 75, 38 75.927, 38 77.059 C 38 78.191, 38.450 78.840, 39 78.500 C 39.550 78.160, 40 77.009, 40 75.941 C 40 74.873, 39.550 74, 39 74 C 38.450 74, 38 73.138, 38 72.083 C 38 71.029, 37.461 69.987, 36.803 69.768 C 35.923 69.474, 35.866 68.457, 36.590 65.934 C 37.800 61.716, 42.268 60.866, 42.820 64.750 C 43.140 67.005, 45 67.977, 45 65.890 C 45 63.585, 53.856 56, 56.546 56 C 58.346 56, 59.354 55.363, 59.710 54 C 60.275 51.840, 61.510 51.397, 62.500 53 C 63.967 55.373, 65.194 53.848, 64.556 50.444 C 63.600 45.353, 60.178 42.036, 58.396 44.473 C 57.086 46.264, 54 45.970, 54 44.054 C 54 42.731, 57.789 40.403, 61.250 39.600 C 63.593 39.056, 64 39.279, 64 41.103 C 64 42.936, 64.227 43.057, 65.570 41.942 C 66.433 41.226, 66.923 39.813, 66.659 38.802 C 66.195 37.029, 68.279 34, 69.963 34 C 71.191 34, 72.122 38.665, 71.438 41.391 C 70.762 44.083, 72.441 45.781, 73.689 43.667 C 74.135 42.911, 75.513 41.760, 76.750 41.111 C 79.342 39.750, 79.691 36.818, 77.479 34.982 C 75.289 33.165, 69.069 32.699, 67.232 34.215 C 65.996 35.235, 65.588 35.242, 65.254 34.250 C 65.023 33.563, 63.971 33, 62.917 33 C 60.566 33, 60.501 32.209, 62.655 29.829 C 64.541 27.745, 64.591 27.755, 60.273 29.326 M 41.188 82.726 C 41.998 83.702, 41.987 84.734, 41.147 86.577 C 37.809 93.902, 40.196 95.535, 53.079 94.738 C 63.847 94.073, 64.337 92.971, 56.661 86.691 C 50.971 82.035, 37.817 78.665, 41.188 82.726 M 137.500 95.686 C 74.554 101.905, 35.937 102.996, 5.750 99.408 C -1.325 98.567, -3.746 105.341, 3.250 106.402 C 22.101 109.262, 87.566 106.463, 143.671 100.399 C 149.841 99.732, 149.841 99.732, 150.271 102.616 C 150.653 105.183, 150.706 105.116, 150.750 102 C 150.861 94.286, 150.999 94.352, 137.500 95.686 M 126.347 108.753 C 128.216 111.777, 114.260 124.989, 102.734 131.107 C 98.755 133.219, 95.884 134.959, 96.354 134.974 C 103.502 135.194, 131.178 111.082, 126.848 108.406 C 126.166 107.985, 125.961 108.127, 126.347 108.753 M 26 114.788 C 26 115.221, 27.382 117.134, 29.072 119.038 C 32.144 122.500, 32.144 122.500, 29.400 118.680 C 26.656 114.860, 26.656 114.860, 36.735 115.180 C 42.279 115.356, 46.605 115.162, 46.349 114.750 C 45.724 113.746, 26 113.783, 26 114.788 M 52 114.845 C 52 115.310, 52.903 116.507, 54.006 117.506 C 57.009 120.223, 55.590 120.528, 51.553 118.033 C 49.599 116.825, 48 116.062, 48 116.337 C 48 117.696, 54.956 120.954, 56.551 120.342 C 57.769 119.875, 58.100 120.029, 57.605 120.830 C 56.801 122.131, 57.940 122.372, 59.523 121.235 C 60.636 120.435, 64 115.402, 64 114.535 C 64 114.241, 61.300 114, 58 114 C 54.700 114, 52 114.380, 52 114.845" stroke="none" fill="#9acbec" fill-rule="evenodd"/><path d="M 0 49.370 L 0 98.741 11.250 100.086 C 34.266 102.839, 82.976 101.137, 137.710 95.667 C 149.661 94.473, 149.928 94.490, 150.324 96.473 C 150.546 97.588, 150.789 76.338, 150.864 49.250 L 151 0 75.500 0 L 0 0 0 49.370 M 0.463 50 C 0.463 77.225, 0.592 88.362, 0.749 74.750 C 0.906 61.137, 0.906 38.862, 0.749 25.250 C 0.592 11.637, 0.463 22.775, 0.463 50 M 60.168 12.533 C 27.500 19.624, 4.120 58.092, 13.015 90.115 C 14.553 95.651, 30.884 97.755, 29.584 92.250 C 22.035 60.286, 34.436 35.631, 62.355 27.096 C 72.129 24.108, 85.543 24.422, 84.319 27.610 C 83.981 28.492, 84.471 29, 85.661 29 C 90.345 29, 96.708 35.320, 93 36.290 C 91.411 36.705, 91 37.654, 91 40.906 C 91 44.333, 91.326 45, 93 45 C 95.865 45, 96.518 44.663, 96.363 43.261 C 96.288 42.579, 96.625 42.268, 97.113 42.570 C 98.202 43.243, 98.299 47, 97.227 47 C 95.907 47, 92.737 53.766, 93.489 54.981 C 93.880 55.615, 93.407 56.713, 92.438 57.422 C 90.217 59.046, 91.199 62, 93.960 62 C 95.073 62, 96.545 61.100, 97.232 60 C 97.919 58.900, 99.471 58, 100.682 58 C 101.892 58, 103.183 57.514, 103.550 56.919 C 103.918 56.324, 105.257 56.099, 106.526 56.417 C 107.858 56.751, 108.997 56.510, 109.217 55.848 C 109.494 55.017, 110.395 55.086, 112.476 56.100 C 116.134 57.881, 116.915 60, 113.912 60 C 112.672 60, 110.929 60.659, 110.039 61.465 C 108.673 62.701, 108.021 62.724, 105.878 61.612 C 99.578 58.343, 86.980 69.737, 88.448 77.375 C 88.751 78.956, 89 81.265, 89 82.506 C 89 86.639, 95.185 90.297, 99.988 89.003 C 102.195 88.409, 104 87.553, 104 87.100 C 104 86.648, 105.125 86.492, 106.500 86.755 C 108.191 87.079, 109 87.892, 109 89.269 C 109 91.821, 133.112 91.317, 135.718 88.710 C 137.464 86.965, 137.699 66.886, 136.058 59.682 C 128.416 26.123, 94.534 5.074, 60.168 12.533 M 60.273 29.326 C 54.023 31.599, 39.586 44.006, 36.757 49.533 C 32.538 57.778, 32.805 75, 37.152 75 C 37.618 75, 38 75.927, 38 77.059 C 38 78.191, 38.450 78.840, 39 78.500 C 39.550 78.160, 40 77.009, 40 75.941 C 40 74.873, 39.550 74, 39 74 C 38.450 74, 38 73.138, 38 72.083 C 38 71.029, 37.461 69.987, 36.803 69.768 C 35.923 69.474, 35.866 68.457, 36.590 65.934 C 37.800 61.716, 42.268 60.866, 42.820 64.750 C 43.140 67.005, 45 67.977, 45 65.890 C 45 63.585, 53.856 56, 56.546 56 C 58.346 56, 59.354 55.363, 59.710 54 C 60.275 51.840, 61.510 51.397, 62.500 53 C 63.967 55.373, 65.194 53.848, 64.556 50.444 C 63.600 45.353, 60.178 42.036, 58.396 44.473 C 57.086 46.264, 54 45.970, 54 44.054 C 54 42.731, 57.789 40.403, 61.250 39.600 C 63.593 39.056, 64 39.279, 64 41.103 C 64 42.936, 64.227 43.057, 65.570 41.942 C 66.433 41.226, 66.923 39.813, 66.659 38.802 C 66.195 37.029, 68.279 34, 69.963 34 C 71.191 34, 72.122 38.665, 71.438 41.391 C 70.762 44.083, 72.441 45.781, 73.689 43.667 C 74.135 42.911, 75.513 41.760, 76.750 41.111 C 79.342 39.750, 79.691 36.818, 77.479 34.982 C 75.289 33.165, 69.069 32.699, 67.232 34.215 C 65.996 35.235, 65.588 35.242, 65.254 34.250 C 65.023 33.563, 63.971 33, 62.917 33 C 60.566 33, 60.501 32.209, 62.655 29.829 C 64.541 27.745, 64.591 27.755, 60.273 29.326 M 41.188 82.726 C 41.998 83.702, 41.987 84.734, 41.147 86.577 C 37.809 93.902, 40.196 95.535, 53.079 94.738 C 63.847 94.073, 64.337 92.971, 56.661 86.691 C 50.971 82.035, 37.817 78.665, 41.188 82.726 M 137 101.031 C 106.879 105.344, 14.950 109.143, 3.250 106.559 C 0 105.841, 0 105.841, 0 127.927 L 0 150.013 75.250 149.756 L 150.500 149.500 150.803 130 C 151.307 97.550, 151.946 98.891, 137 101.031 M 0.428 128 C 0.428 140.375, 0.571 145.438, 0.747 139.250 C 0.922 133.063, 0.922 122.938, 0.747 116.750 C 0.571 110.563, 0.428 115.625, 0.428 128 M 115.500 109.308 C 108.827 110.021, 107.003 110.620, 104.500 112.922 C 96.687 120.111, 86.274 124, 74.837 124 C 67.667 124, 58.176 122.189, 59.690 121.110 C 60.675 120.408, 64 115.335, 64 114.535 C 64 114.241, 61.300 114, 58 114 C 51.197 114, 50.709 114.736, 55.077 118.411 C 59.355 122.011, 57.566 121.638, 50.700 117.497 C 45.160 114.157, 44.476 114, 35.450 114 C 24.528 114, 24.243 114.367, 30.474 120.423 C 57.376 146.568, 100.938 144.118, 123.865 115.170 C 129.353 108.242, 128.842 107.883, 115.500 109.308" stroke="none" fill="#fefefe" fill-rule="evenodd"/><path d="M 59 13.576 C 27.990 21.720, 7.802 52.809, 12.970 84.461 C 14.455 93.559, 14.906 94, 22.739 94 C 29.233 94, 29.233 94, 28.602 91.250 C 20.211 54.701, 40.788 25, 74.500 25 C 106.378 25, 128.187 53.794, 121.387 86.904 C 120.688 90.308, 120.688 90.308, 127.594 89.602 C 136.241 88.717, 136.106 88.877, 136.723 78.845 C 139.368 35.868, 100 2.808, 59 13.576 M 115.710 110.089 C 108.807 110.819, 107.445 111.319, 103.747 114.484 C 89.391 126.773, 65.250 128.135, 49.266 117.557 C 45.566 115.109, 44.614 114.942, 35.891 115.211 L 26.500 115.500 31.657 120.511 C 58.201 146.305, 110.096 141.204, 125.884 111.250 C 127.238 108.682, 128.098 108.780, 115.710 110.089" stroke="none" fill="#0a2c58" fill-rule="evenodd"/></svg>