<?xml version="1.0" standalone="no"?>
<!DOCTYPE svg PUBLIC "-//W3C//DTD SVG 20010904//EN"
 "http://www.w3.org/TR/2001/REC-SVG-20010904/DTD/svg10.dtd">
<svg version="1.0" xmlns="http://www.w3.org/2000/svg"
 width="150.000000pt" height="150.000000pt" viewBox="0 0 150.000000 150.000000"
 preserveAspectRatio="xMidYMid meet">

<g transform="translate(0.000000,150.000000) scale(0.100000,-0.100000)"
fill="#000000" stroke="none">
<path d="M615 1373 c-65 -16 -145 -49 -193 -79 -175 -113 -281 -287 -298 -491
-7 -86 10 -223 29 -235 7 -4 42 -8 79 -8 l66 0 -13 44 c-72 239 40 498 260
603 68 32 88 37 175 41 127 6 211 -18 299 -84 109 -82 168 -175 197 -312 15
-73 16 -95 6 -165 -6 -44 -10 -82 -7 -85 2 -2 35 -1 73 3 l70 7 6 36 c10 64 6
174 -9 246 -48 229 -224 412 -450 471 -56 14 -242 20 -290 8z"/>
<path d="M1148 400 c-57 -7 -75 -14 -108 -42 -59 -51 -139 -87 -223 -100 -105
-16 -189 -1 -297 54 -82 42 -88 43 -167 40 -46 -2 -83 -7 -83 -12 0 -5 30 -35
68 -66 234 -195 541 -206 783 -28 50 37 120 109 138 143 13 24 9 25 -111 11z"/>
</g>
</svg>
