<svg xmlns="http://www.w3.org/2000/svg" width="200" height="200" viewBox="0 0 200 200" version="1.1"><path d="M 93 19.581 C 91.625 19.826, 87.575 20.754, 84 21.643 C 80.425 22.532, 73.321 25.268, 68.213 27.721 C 60.967 31.202, 57.122 33.899, 50.713 39.992 C 46.196 44.287, 42.819 48.128, 43.209 48.527 C 43.599 48.926, 46.815 46.608, 50.355 43.376 C 53.895 40.144, 59.300 35.990, 62.367 34.145 C 65.433 32.300, 70.684 29.683, 74.035 28.330 C 77.386 26.976, 83.137 25.231, 86.814 24.452 C 90.491 23.672, 97.719 23.027, 102.876 23.017 C 108.890 23.006, 115.395 23.738, 121.016 25.058 C 125.836 26.189, 133.230 28.879, 137.447 31.036 C 141.664 33.192, 147.729 37.011, 150.924 39.522 C 154.120 42.033, 158.166 45.867, 159.915 48.043 C 161.663 50.220, 163.523 52, 164.047 52 C 164.571 52, 165 51.586, 165 51.081 C 165 50.575, 162.680 47.623, 159.844 44.520 C 157.009 41.417, 151.946 36.935, 148.594 34.559 C 145.242 32.183, 140.076 29.021, 137.112 27.533 C 134.149 26.045, 128.299 23.706, 124.112 22.336 C 118.498 20.499, 113.744 19.752, 106 19.490 C 100.225 19.295, 94.375 19.336, 93 19.581 M 90 26.346 C 86.290 27.124, 84.500 27.988, 84.500 29 C 84.500 30.143, 85.333 30.381, 88 30 C 89.925 29.725, 97.350 29.523, 104.500 29.550 C 115.888 29.595, 118.442 29.928, 125.096 32.242 C 129.274 33.694, 135.455 36.502, 138.832 38.481 C 142.209 40.460, 147.683 44.590, 150.998 47.658 C 154.312 50.727, 158.658 55.884, 160.654 59.119 C 162.651 62.354, 164.644 65, 165.083 65 C 165.522 65, 166.109 64.633, 166.387 64.184 C 166.664 63.735, 165.678 61.563, 164.196 59.359 C 162.713 57.154, 159.702 53.178, 157.505 50.523 C 155.308 47.868, 150.583 43.476, 147.005 40.763 C 143.427 38.049, 136.900 34.097, 132.500 31.981 C 128.100 29.864, 121.031 27.427, 116.792 26.566 C 112.553 25.705, 106.028 25.043, 102.292 25.096 C 98.556 25.149, 93.025 25.712, 90 26.346 M 92 31.690 C 90.625 31.920, 86.575 33.039, 83 34.176 C 79.425 35.313, 74.250 37.538, 71.500 39.121 C 68.750 40.705, 65.624 42.677, 64.554 43.504 C 63.333 44.447, 62.960 45.358, 63.554 45.947 C 64.145 46.534, 66.561 45.583, 70 43.410 C 73.025 41.497, 78.425 39.013, 82 37.889 C 85.575 36.764, 92.162 35.497, 96.638 35.072 C 101.113 34.648, 107.638 34.688, 111.138 35.162 C 114.637 35.635, 120.281 36.944, 123.680 38.070 C 127.079 39.195, 132.317 41.447, 135.321 43.074 C 138.324 44.701, 141.332 46.695, 142.004 47.505 C 142.676 48.315, 143.626 48.731, 144.113 48.430 C 144.601 48.129, 145 47.524, 145 47.086 C 145 46.648, 142.412 44.499, 139.250 42.310 C 136.088 40.121, 130.560 37.171, 126.966 35.755 C 123.372 34.340, 117.777 32.690, 114.532 32.091 C 111.287 31.491, 105.453 31.061, 101.566 31.136 C 97.680 31.211, 93.375 31.460, 92 31.690 M 46.472 67.045 C 46.088 67.666, 46.207 68.607, 46.736 69.136 C 47.265 69.665, 50.804 69.964, 54.599 69.799 C 59.934 69.568, 61.500 69.160, 61.500 68 C 61.500 66.833, 59.907 66.435, 54.335 66.208 C 49.792 66.023, 46.915 66.329, 46.472 67.045 M 81.697 69.637 C 81.314 70.020, 81 70.947, 81 71.697 C 81 72.791, 83.433 73.006, 93.250 72.781 C 103.347 72.549, 105.500 72.236, 105.500 71 C 105.500 69.769, 103.425 69.450, 93.947 69.220 C 87.592 69.066, 82.080 69.253, 81.697 69.637 M 23.467 76.054 C 23.086 76.670, 23.202 77.602, 23.724 78.124 C 24.246 78.646, 29.360 78.945, 35.087 78.787 C 43.549 78.554, 45.500 78.219, 45.500 77 C 45.500 75.778, 43.522 75.448, 34.829 75.217 C 27.746 75.029, 23.926 75.310, 23.467 76.054 M 51 77 C 49.900 78.100, 49 79.380, 49 79.845 C 49 80.310, 49.788 81.403, 50.752 82.275 C 51.715 83.147, 53.740 84.331, 55.252 84.906 C 56.763 85.480, 58 86.637, 58 87.475 C 58 88.314, 57.155 89, 56.122 89 C 55.090 89, 53.685 88.325, 53 87.500 C 52.315 86.675, 51.135 86, 50.378 86 C 49.620 86, 49 86.649, 49 87.443 C 49 88.237, 50 89.587, 51.223 90.443 C 52.445 91.299, 54.490 92, 55.768 92 C 57.046 92, 59.210 90.881, 60.577 89.514 C 62.923 87.168, 62.974 86.891, 61.484 84.616 C 60.534 83.166, 58.502 81.941, 56.388 81.545 C 54.315 81.156, 53.035 80.396, 53.269 79.693 C 53.487 79.037, 54.450 78.348, 55.408 78.162 C 56.367 77.976, 57.762 78.651, 58.508 79.662 C 59.534 81.051, 60.151 81.219, 61.033 80.350 C 61.920 79.476, 61.697 78.697, 60.100 77.100 C 58.945 75.945, 56.875 75, 55.500 75 C 54.125 75, 52.100 75.900, 51 77 M 67.326 76.484 C 66.160 77.301, 64.762 79.245, 64.218 80.805 C 63.509 82.838, 63.598 84.518, 64.533 86.741 C 65.250 88.447, 66.744 90.328, 67.853 90.921 C 68.961 91.515, 70.732 92, 71.788 92 C 72.844 92, 74.957 90.843, 76.483 89.429 C 78.508 87.551, 78.959 86.559, 78.152 85.752 C 77.346 84.946, 76.523 85.122, 75.106 86.404 C 74.038 87.370, 72.115 88.012, 70.832 87.830 C 68.876 87.553, 68.451 86.829, 68.197 83.334 C 67.942 79.836, 68.230 79.062, 69.996 78.501 C 71.257 78.101, 73.064 78.467, 74.514 79.417 C 75.842 80.288, 77.170 81, 77.465 81 C 77.759 81, 78 80.351, 78 79.557 C 78 78.763, 77 77.413, 75.777 76.557 C 74.555 75.701, 72.630 75, 71.500 75 C 70.370 75, 68.491 75.668, 67.326 76.484 M 81.451 76.266 C 81.149 77.054, 81.036 80.804, 81.201 84.599 C 81.432 89.934, 81.840 91.500, 83 91.500 C 84.207 91.500, 84.500 89.954, 84.500 83.583 C 84.500 78.141, 84.110 75.537, 83.251 75.250 C 82.563 75.021, 81.754 75.478, 81.451 76.266 M 87.419 76.349 C 87.135 77.091, 87.036 80.804, 87.201 84.599 L 87.500 91.500 93.500 91.500 C 98.167 91.500, 99.500 91.167, 99.500 90 C 99.500 88.950, 98.224 88.408, 95.250 88.193 C 92.448 87.990, 91 87.414, 91 86.503 C 91 85.628, 92.375 85.007, 94.750 84.810 C 97.279 84.601, 98.500 84.011, 98.500 83 C 98.500 81.989, 97.279 81.399, 94.750 81.190 C 92.688 81.019, 91 80.456, 91 79.940 C 91 79.423, 92.520 79, 94.378 79 C 96.235 79, 98.256 78.396, 98.869 77.658 C 99.481 76.920, 99.687 76.020, 99.325 75.658 C 98.963 75.296, 96.253 75, 93.302 75 C 89.722 75, 87.765 75.449, 87.419 76.349 M 102.419 76.349 C 102.135 77.091, 102.036 80.804, 102.201 84.599 C 102.432 89.934, 102.840 91.500, 104 91.500 C 105.011 91.500, 105.601 90.279, 105.810 87.750 C 105.981 85.688, 106.431 84.003, 106.810 84.008 C 107.190 84.012, 108.526 85.812, 109.780 88.008 C 111.034 90.203, 112.441 92, 112.907 92 C 113.374 92, 114.282 91.366, 114.925 90.590 C 115.641 89.728, 115.980 86.522, 115.798 82.340 C 115.568 77.059, 115.158 75.500, 114 75.500 C 112.950 75.500, 112.408 76.776, 112.193 79.750 C 112.023 82.088, 111.570 84, 111.185 84 C 110.800 84, 109.262 81.975, 107.767 79.500 C 106.272 77.025, 104.574 75, 103.993 75 C 103.412 75, 102.704 75.607, 102.419 76.349 M 121.660 76.131 C 120.647 76.719, 119.236 78.586, 118.524 80.280 C 117.614 82.445, 117.515 84.178, 118.190 86.114 C 118.718 87.629, 120.225 89.573, 121.540 90.434 C 122.854 91.295, 124.745 92, 125.742 92 C 126.739 92, 128.555 91.299, 129.777 90.443 C 131 89.587, 132 88.012, 132 86.943 C 132 85.874, 131.605 85, 131.122 85 C 130.640 85, 129.685 85.675, 129 86.500 C 128.315 87.325, 126.460 88, 124.878 88 C 122.140 88, 122 87.784, 122 83.567 C 122 79.978, 122.390 79.011, 124.049 78.484 C 125.250 78.103, 127.098 78.490, 128.514 79.417 C 129.842 80.288, 131.170 81, 131.465 81 C 131.759 81, 132 80.351, 132 79.557 C 132 78.763, 131 77.413, 129.777 76.557 C 128.555 75.701, 126.643 75.014, 125.527 75.030 C 124.412 75.047, 122.672 75.542, 121.660 76.131 M 134.710 75.623 C 134.320 76.014, 134 79.353, 134 83.044 C 134 87.627, 134.451 90.130, 135.422 90.936 C 136.218 91.596, 138.971 91.980, 141.672 91.808 C 145.160 91.585, 146.500 91.084, 146.500 90 C 146.500 88.989, 145.279 88.399, 142.750 88.190 C 140.384 87.994, 139 87.372, 139 86.503 C 139 85.681, 140.309 85, 142.250 84.813 C 144.333 84.613, 145.500 83.961, 145.500 83 C 145.500 82.039, 144.333 81.387, 142.250 81.187 C 140.463 81.014, 139 80.479, 139 79.997 C 139 79.515, 140.688 78.981, 142.750 78.810 C 145.279 78.601, 146.500 78.011, 146.500 77 C 146.500 75.883, 145.087 75.425, 140.960 75.206 C 137.913 75.045, 135.101 75.232, 134.710 75.623 M 150.189 77.299 C 148.204 79.412, 148.153 79.773, 149.560 81.782 C 150.401 82.983, 152.532 84.340, 154.295 84.797 C 156.058 85.253, 157.500 86.267, 157.500 87.050 C 157.500 87.832, 156.679 88.631, 155.676 88.824 C 154.672 89.017, 152.974 88.381, 151.902 87.411 C 150.510 86.152, 149.645 85.955, 148.876 86.724 C 148.108 87.492, 148.401 88.401, 149.900 89.900 C 151.055 91.055, 153.250 92, 154.777 92 C 156.305 92, 158.555 91.299, 159.777 90.443 C 161 89.587, 162 88.082, 162 87.098 C 162 86.115, 161.213 84.600, 160.250 83.733 C 159.287 82.866, 157.262 81.847, 155.750 81.470 C 154.238 81.092, 153 80.157, 153 79.392 C 153 78.626, 153.845 78, 154.878 78 C 155.910 78, 157.315 78.675, 158 79.500 C 158.685 80.325, 159.640 81, 160.122 81 C 160.605 81, 161 80.395, 161 79.655 C 161 78.915, 160.177 77.565, 159.171 76.655 C 158.165 75.745, 156.219 75, 154.846 75 C 153.472 75, 151.377 76.034, 150.189 77.299 M 34.477 95.038 C 34.090 95.663, 34.212 96.612, 34.748 97.148 C 35.283 97.683, 37.921 97.981, 40.610 97.810 C 44.152 97.586, 45.500 97.086, 45.500 96 C 45.500 94.899, 44.127 94.420, 40.339 94.201 C 37.254 94.022, 34.896 94.359, 34.477 95.038 M 87.460 95.065 C 87.083 95.675, 87.196 96.596, 87.710 97.110 C 88.245 97.645, 96.558 97.929, 107.073 97.773 C 122.664 97.542, 125.500 97.269, 125.500 96 C 125.500 94.730, 122.637 94.458, 106.822 94.228 C 93.955 94.041, 87.932 94.301, 87.460 95.065 M 50.417 97.355 C 50.131 98.101, 50.033 101.588, 50.199 105.105 C 50.429 109.989, 50.854 111.500, 52 111.500 C 52.825 111.500, 53.644 110.487, 53.820 109.250 C 54.051 107.621, 54.810 107, 56.570 107 C 57.906 107, 59.900 106.100, 61 105 C 62.100 103.900, 63 102.170, 63 101.155 C 63 100.140, 62.177 98.565, 61.171 97.655 C 60.080 96.668, 57.647 96, 55.140 96 C 52.526 96, 50.741 96.512, 50.417 97.355 M 66.452 98.646 C 65.009 100.203, 64 102.498, 64 104.223 C 64 106.129, 65.022 108.176, 66.923 110.077 C 68.531 111.685, 70.815 113, 72 113 C 73.185 113, 75.469 111.685, 77.077 110.077 C 78.749 108.405, 80 106.084, 80 104.654 C 80 103.279, 78.835 100.769, 77.411 99.077 C 75.594 96.918, 73.940 96, 71.863 96 C 69.948 96, 68.039 96.933, 66.452 98.646 M 54 101 C 54 102.467, 54.667 103, 56.500 103 C 57.970 103, 59 102.426, 59 101.607 C 59 100.841, 58.288 99.941, 57.418 99.607 C 56.548 99.273, 55.423 99, 54.918 99 C 54.413 99, 54 99.900, 54 101 M 69.181 99.867 C 68.354 100.391, 67.981 102.159, 68.181 104.602 C 68.465 108.068, 68.820 108.537, 71.391 108.830 C 73.034 109.018, 74.647 108.586, 75.126 107.830 C 75.590 107.099, 75.976 105.278, 75.985 103.785 C 75.994 102.113, 75.257 100.673, 74.066 100.035 C 73.002 99.466, 71.764 99.007, 71.316 99.015 C 70.867 99.024, 69.906 99.407, 69.181 99.867 M 97.581 103.869 C 97.274 104.366, 97.636 105.283, 98.386 105.905 C 99.337 106.695, 106.830 106.956, 123.125 106.769 C 143.117 106.539, 146.500 106.283, 146.500 105 C 146.500 103.715, 143.028 103.462, 122.320 103.232 C 108.660 103.081, 97.897 103.358, 97.581 103.869 M 97.688 109.646 C 97.309 110.024, 97 112.868, 97 115.967 C 97 119.065, 97.540 122.140, 98.200 122.800 C 98.860 123.460, 100.830 124, 102.578 124 C 104.325 124, 106.256 123.396, 106.869 122.658 C 107.481 121.920, 107.687 121.020, 107.325 120.658 C 106.963 120.296, 105.415 120, 103.886 120 C 101.242 120, 101.090 119.745, 100.802 114.829 C 100.636 111.984, 100.022 109.500, 99.438 109.308 C 98.853 109.116, 98.066 109.268, 97.688 109.646 M 106 109.535 C 106 109.830, 106.752 111.218, 107.671 112.621 C 108.591 114.024, 109.611 116.821, 109.938 118.836 C 110.304 121.085, 111.091 122.500, 111.976 122.500 C 112.773 122.500, 113.697 121.158, 114.042 119.500 C 114.385 117.850, 115.449 114.996, 116.406 113.157 C 117.364 111.318, 117.851 109.518, 117.488 109.157 C 117.125 108.796, 116.007 109.513, 115.004 110.750 C 114 111.987, 112.705 113, 112.125 113 C 111.545 113, 110.589 112.100, 110 111 C 109.411 109.900, 108.270 109, 107.465 109 C 106.659 109, 106 109.241, 106 109.535 M 121.073 111.635 C 119.933 113.084, 119 115.075, 119 116.058 C 119 117.042, 120.165 119.231, 121.589 120.923 C 123.013 122.615, 125.058 124, 126.134 124 C 127.210 124, 129.195 122.895, 130.545 121.545 C 132.077 120.014, 133 117.946, 133 116.045 C 133 114.333, 132.124 112.124, 131 111 C 129.900 109.900, 127.683 109, 126.073 109 C 124.101 109, 122.468 109.860, 121.073 111.635 M 135.415 110.362 C 135.127 111.111, 135.029 114.266, 135.196 117.373 C 135.363 120.481, 135.950 123.130, 136.500 123.262 C 137.050 123.393, 137.641 122.037, 137.813 120.250 C 137.986 118.463, 138.690 117, 139.378 117 C 140.066 117, 141.397 118.609, 142.335 120.577 C 143.273 122.544, 144.594 123.969, 145.270 123.743 C 146.079 123.474, 146.500 121.052, 146.500 116.667 C 146.500 112.911, 146.063 109.986, 145.500 109.967 C 144.950 109.949, 144.269 111.636, 143.987 113.717 L 143.474 117.500 140.725 113.250 C 139.212 110.912, 137.516 109, 136.956 109 C 136.396 109, 135.702 109.613, 135.415 110.362 M 123.667 112.667 C 123.300 113.033, 123 114.553, 123 116.044 C 123 117.535, 123.713 119.347, 124.584 120.070 C 125.729 121.020, 126.630 121.095, 127.834 120.340 C 128.750 119.766, 129.647 118.304, 129.827 117.093 C 130.006 115.881, 129.614 114.240, 128.954 113.445 C 128.295 112.650, 126.985 112, 126.044 112 C 125.103 112, 124.033 112.300, 123.667 112.667 M 64.463 116.060 C 64.084 116.673, 64.198 117.598, 64.716 118.116 C 65.244 118.644, 71.788 118.936, 79.579 118.779 C 91.162 118.547, 93.500 118.248, 93.500 117 C 93.500 115.750, 91.135 115.454, 79.326 115.223 C 69.709 115.035, 64.930 115.304, 64.463 116.060 M 27 118.396 C 27 119.164, 28.263 122.877, 29.808 126.646 C 31.352 130.416, 33.771 135.300, 35.183 137.500 C 36.595 139.700, 39.769 144.085, 42.236 147.245 C 44.702 150.404, 49.821 155.483, 53.610 158.531 C 57.400 161.579, 64.100 165.859, 68.500 168.042 C 72.900 170.225, 80.100 172.937, 84.500 174.069 C 90.090 175.506, 95.663 176.125, 103 176.125 C 110.416 176.125, 115.850 175.513, 121.500 174.041 C 125.900 172.895, 133.101 170.149, 137.502 167.939 C 141.903 165.729, 148.362 161.503, 151.854 158.546 C 155.347 155.590, 160.430 150.545, 163.149 147.336 C 165.868 144.126, 169.150 139.615, 170.442 137.312 C 171.733 135.008, 172.537 132.871, 172.228 132.562 C 171.919 132.253, 171.356 132, 170.975 132 C 170.595 132, 168.653 134.643, 166.660 137.872 C 164.666 141.102, 160.943 146.072, 158.386 148.916 C 155.829 151.760, 150.949 156.076, 147.542 158.508 C 144.135 160.939, 138.310 164.291, 134.597 165.956 C 130.885 167.622, 125.069 169.745, 121.674 170.675 C 117.351 171.858, 111.602 172.364, 102.500 172.364 C 93.185 172.364, 87.668 171.864, 83.036 170.599 C 79.481 169.629, 73.340 167.236, 69.390 165.283 C 65.439 163.330, 59.329 159.576, 55.810 156.941 C 52.292 154.306, 47.375 149.529, 44.884 146.325 C 42.393 143.121, 38.975 138.025, 37.288 135 C 35.601 131.975, 33.211 126.688, 31.976 123.250 C 30.712 119.729, 29.136 117, 28.366 117 C 27.615 117, 27 117.628, 27 118.396 M 41.686 122.647 C 41.331 123.003, 42.470 126.040, 44.218 129.397 C 46.269 133.333, 50.611 138.708, 56.449 144.537 C 63.832 151.909, 67.066 154.334, 74 157.693 C 78.675 159.957, 84.975 162.397, 88 163.114 C 91.025 163.832, 98 164.393, 103.500 164.363 C 110.032 164.326, 115.581 163.689, 119.500 162.525 C 122.800 161.545, 128.309 159.381, 131.742 157.716 C 135.176 156.051, 140.542 152.622, 143.668 150.095 C 146.794 147.568, 149.535 144.938, 149.759 144.250 C 149.983 143.563, 149.758 143, 149.258 143 C 148.758 143, 145.683 145.090, 142.425 147.644 C 139.166 150.198, 133.678 153.581, 130.230 155.163 C 126.781 156.744, 120.931 158.752, 117.230 159.624 C 112.292 160.787, 107.571 161.073, 99.500 160.695 C 92.261 160.357, 86.603 159.509, 82.952 158.214 C 79.900 157.132, 75.411 155.230, 72.975 153.987 C 70.539 152.745, 66.236 150.021, 63.412 147.935 C 60.588 145.848, 56.674 142.269, 54.714 139.979 C 52.755 137.690, 49.518 132.708, 47.521 128.909 C 45.525 125.109, 43.540 122, 43.112 122 C 42.684 122, 42.042 122.291, 41.686 122.647 M 119.464 127.059 C 119.085 127.672, 119.199 128.599, 119.718 129.118 C 120.243 129.643, 126.396 129.938, 133.581 129.781 C 144.273 129.548, 146.500 129.241, 146.500 128 C 146.500 126.757, 144.246 126.452, 133.327 126.222 C 124.433 126.033, 119.929 126.305, 119.464 127.059 M 47.616 142.812 C 47.323 143.286, 47.789 144.681, 48.651 145.912 C 49.513 147.142, 53.565 150.809, 57.655 154.059 C 61.746 157.310, 68.334 161.518, 72.296 163.412 C 76.258 165.305, 82.425 167.638, 86 168.595 C 89.998 169.666, 96.350 170.361, 102.500 170.401 C 108 170.437, 114.975 169.840, 118 169.075 C 121.025 168.310, 125.022 167.050, 126.882 166.274 C 129.188 165.312, 129.938 164.538, 129.240 163.840 C 128.542 163.142, 125.399 163.524, 119.358 165.040 C 111.852 166.925, 108.821 167.177, 99.500 166.694 C 91.520 166.280, 86.511 165.437, 81.255 163.623 C 77.270 162.248, 71.277 159.666, 67.937 157.886 C 64.597 156.106, 58.778 151.792, 55.007 148.300 C 51.235 144.808, 47.909 142.338, 47.616 142.812" stroke="none" fill="#1da6d9" fill-rule="evenodd"/></svg>