<?xml version="1.0" standalone="no"?>
<!DOCTYPE svg PUBLIC "-//W3C//DTD SVG 20010904//EN"
 "http://www.w3.org/TR/2001/REC-SVG-20010904/DTD/svg10.dtd">
<svg version="1.0" xmlns="http://www.w3.org/2000/svg"
 width="224.000000pt" height="224.000000pt" viewBox="0 0 224.000000 224.000000"
 preserveAspectRatio="xMidYMid meet">

<g transform="translate(0.000000,224.000000) scale(0.100000,-0.100000)"
fill="#000000" stroke="none">
<path d="M1733 2084 c-5 -13 -8 -13 -15 -2 -6 9 -7 3 -4 -17 7 -38 -9 -70 -20
-40 -10 28 -52 66 -60 54 -3 -5 -10 -6 -16 -3 -7 4 -8 -4 -3 -24 5 -24 2 -33
-13 -41 -11 -6 -22 -8 -24 -5 -9 8 -58 -56 -58 -76 0 -11 -11 -31 -25 -46 -14
-15 -25 -35 -25 -45 0 -11 -4 -19 -10 -19 -5 0 -10 -7 -10 -15 0 -8 -5 -15
-11 -15 -6 0 -9 -7 -6 -15 4 -8 2 -17 -4 -20 -5 -4 -7 -11 -4 -16 10 -15 -5
-31 -19 -20 -8 7 -12 1 -12 -20 -1 -16 3 -29 8 -29 6 0 7 -10 3 -22 -3 -13 -7
-29 -7 -36 -1 -7 -7 -10 -15 -7 -44 17 -48 18 -36 5 7 -7 26 -13 43 -13 34 0
34 -1 20 -28 -12 -21 -46 -18 -87 7 -20 13 -23 12 -23 0 0 -8 4 -16 9 -18 18
-6 16 -32 -3 -33 -19 0 -22 -4 -47 -59 -24 -50 -33 -66 -41 -66 -5 0 -8 5 -8
12 0 6 -3 9 -6 6 -3 -3 4 -23 15 -44 12 -21 21 -32 21 -24 0 11 5 10 19 -5 19
-21 41 -122 23 -111 -8 5 -19 -39 -24 -91 -1 -7 -5 -13 -9 -13 -5 0 -8 -21 -8
-47 1 -49 -19 -214 -27 -222 -2 -3 -10 4 -18 14 -7 10 -20 16 -29 12 -9 -3
-23 3 -34 15 -27 30 -93 62 -78 38 3 -6 -1 -10 -9 -10 -19 0 -21 11 -4 28 9 9
7 12 -13 13 -47 3 -64 6 -87 14 l-23 8 22 23 c12 13 20 27 17 30 -4 3 -14 -6
-23 -20 -20 -30 -30 -33 -39 -9 -4 10 1 28 13 44 18 24 18 28 5 33 -11 4 -15
2 -11 -8 4 -10 0 -12 -14 -9 -12 3 -18 11 -15 19 3 8 2 13 -2 11 -12 -4 -85
43 -78 51 4 3 10 2 14 -4 9 -14 52 -37 58 -31 5 5 -67 52 -77 49 -3 0 -5 12
-4 27 2 27 1 28 -34 20 -20 -5 -40 -9 -46 -9 -5 0 -3 -4 5 -10 12 -8 12 -10
-3 -16 -11 -4 -35 5 -64 24 -40 26 -261 135 -328 162 -34 14 -67 20 -152 26
-84 7 -104 -1 -65 -26 14 -9 12 -10 -11 -5 -25 5 -27 4 -18 -14 10 -18 8 -19
-29 -14 -28 4 -40 2 -40 -7 0 -19 83 -91 98 -85 13 5 72 -20 82 -35 3 -4 19
-14 35 -23 17 -8 41 -25 55 -37 14 -12 34 -30 46 -39 27 -22 179 -203 195
-233 7 -12 20 -29 31 -36 23 -17 23 -38 0 -52 -14 -8 -12 -9 10 -6 23 4 27 1
25 -17 -1 -15 3 -21 13 -19 10 1 9 -3 -5 -14 -19 -15 -19 -15 9 -8 21 5 27 4
22 -5 -4 -6 -13 -11 -19 -11 -7 0 -21 -8 -32 -16 l-20 -16 20 5 c74 20 85 19
94 -5 10 -28 -6 -58 -31 -58 -10 0 -18 -4 -18 -10 0 -5 7 -7 15 -4 8 4 15 1
15 -5 0 -6 -6 -11 -12 -11 -7 0 -3 -8 9 -18 17 -12 20 -21 13 -32 -8 -13 -10
-13 -10 1 0 9 -11 21 -24 27 -20 9 -25 8 -30 -4 -8 -21 -7 -26 3 -20 12 8 34
-20 27 -33 -12 -18 13 -22 49 -7 19 8 35 12 35 8 0 -4 4 -1 8 6 22 33 127 15
176 -31 30 -28 32 -37 11 -37 -25 0 -17 -18 15 -35 24 -13 29 -13 24 -1 -3 8
0 17 6 21 7 4 10 1 9 -6 -5 -24 11 -118 21 -124 6 -3 10 1 10 10 0 30 25 9 28
-23 l3 -31 20 20 c12 12 24 18 27 14 4 -3 0 -10 -8 -15 -8 -6 -10 -10 -4 -10
16 0 35 25 26 35 -4 5 -1 5 6 1 6 -4 12 -19 12 -33 0 -36 9 -24 14 18 2 19 4
37 5 40 0 4 10 9 21 12 20 5 37 -23 25 -42 -3 -5 -1 -12 4 -16 6 -3 9 -11 7
-18 -1 -7 -1 -9 1 -4 9 15 22 6 16 -10 -5 -15 -3 -16 8 -5 15 14 29 16 29 3 0
-5 -9 -12 -19 -16 -13 -4 -18 -12 -14 -21 4 -11 8 -12 13 -4 4 7 16 9 28 6 17
-6 23 -2 28 18 3 14 3 33 0 42 -5 14 -1 16 33 10 50 -8 61 5 72 86 5 35 10 73
12 85 2 12 1 22 -2 21 -24 -2 -31 3 -23 18 13 22 -5 90 -36 137 -14 20 -27 35
-30 32 -3 -3 2 -13 10 -22 30 -36 30 -43 1 -42 -15 0 -23 3 -16 5 18 8 4 34
-18 34 -16 0 -18 3 -9 19 15 29 32 21 109 -47 63 -57 71 -61 85 -46 29 28 40
15 48 -57 3 -26 24 -18 23 10 0 16 6 27 18 29 13 3 17 -3 17 -27 0 -16 5 -33
10 -36 6 -3 10 -3 10 2 0 4 11 13 25 19 13 7 24 9 23 5 -2 -18 4 -22 17 -11
13 11 15 7 16 -26 l1 -39 14 41 c13 35 18 41 37 36 35 -8 45 -20 39 -49 -3
-18 -1 -24 7 -19 6 4 9 12 6 17 -4 5 -1 9 4 9 6 0 11 -8 11 -17 0 -13 3 -14
12 -5 16 16 35 15 41 -2 4 -10 1 -13 -9 -9 -8 3 -20 0 -28 -6 -7 -6 -16 -7
-21 -3 -4 4 -2 -4 5 -17 9 -17 14 -20 20 -11 5 8 18 10 39 5 30 -6 31 -5 32
27 1 18 1 44 1 58 -1 19 8 30 38 48 21 12 52 39 67 60 15 20 31 39 34 42 22
17 51 92 70 181 33 155 14 274 -56 357 -34 39 -34 40 -12 47 19 6 19 8 5 12
-29 7 -20 30 15 37 27 6 29 8 15 17 -10 5 -18 18 -18 27 0 15 2 15 10 2 7 -10
10 -11 10 -2 0 7 -7 15 -16 19 -13 5 -10 9 12 19 28 13 28 13 -19 12 -82 -3
-85 44 -4 58 34 5 38 8 22 15 -19 7 -19 8 -1 8 18 1 18 2 1 21 -10 11 -14 20
-9 20 5 0 15 -10 22 -21 9 -15 17 -18 24 -11 6 6 7 16 2 24 -5 7 -7 20 -6 29
2 12 -6 15 -35 14 -21 -1 -47 -5 -58 -8 -16 -5 -25 0 -38 22 -25 42 -21 48 10
15 20 -21 25 -24 19 -9 -5 11 -12 35 -18 53 -9 33 -28 44 -28 17 0 -18 -20
-20 -21 -2 -1 6 0 26 1 44 1 19 -9 49 -24 75 -24 41 -25 42 -34 19 -8 -23 -9
-23 -16 -5 -8 18 -8 18 -16 -1 -8 -19 -9 -19 -9 3 -1 12 2 22 7 22 11 0 15 43
16 165 0 86 -3 117 -17 140 -17 30 -17 30 -17 5 l-1 -25 -12 23 c-10 18 -15
20 -26 10 -11 -10 -12 -10 -7 0 4 6 5 12 1 12 -3 0 -8 -7 -12 -16z m-110 -151
c8 -7 -21 -43 -35 -43 -12 0 -10 24 4 38 14 14 22 15 31 5z m77 -8 c0 -8 -2
-15 -4 -15 -2 0 -11 -3 -20 -6 -10 -4 -16 -1 -16 9 0 14 13 24 33 26 4 1 7 -6
7 -14z m-154 -53 c-18 -16 -18 -16 -6 6 6 13 14 21 18 18 3 -4 -2 -14 -12 -24z
m154 4 c0 -16 -26 -46 -41 -46 -13 0 -11 13 7 38 17 25 34 29 34 8z m56 -25
c-10 -16 -36 -13 -36 3 0 17 21 27 34 16 4 -5 5 -13 2 -19z m-156 -21 c0 -5
-5 -10 -11 -10 -5 0 -7 5 -4 10 3 6 8 10 11 10 2 0 4 -4 4 -10z m-30 -44 c0
-19 -44 -50 -48 -36 -4 12 26 50 40 50 4 0 8 -6 8 -14z m227 -2 c-3 -3 -12 -4
-19 -1 -8 3 -5 6 6 6 11 1 17 -2 13 -5z m-36 -27 c-13 -13 -26 -3 -16 12 3 6
11 8 17 5 6 -4 6 -10 -1 -17z m-156 -16 c8 -15 -27 -81 -43 -81 -12 0 -12 3
-2 15 11 13 10 14 -3 10 -26 -11 -30 15 -6 41 23 25 44 31 54 15z m61 -78 c18
-24 17 -31 -6 -43 -24 -13 -60 -4 -60 14 0 11 35 44 49 45 2 1 10 -7 17 -16z
m160 -10 c-10 -10 -19 5 -10 18 6 11 8 11 12 0 2 -7 1 -15 -2 -18z m-348 -5
c-2 -13 -11 -24 -20 -26 -21 -4 -24 18 -6 36 19 19 30 14 26 -10z m50 -15 c13
-26 4 -43 -24 -43 -26 0 -30 11 -14 41 13 24 27 24 38 2z m242 7 c0 -12 -28
-25 -36 -17 -9 9 6 27 22 27 8 0 14 -5 14 -10z m-60 -70 c0 -5 -5 -10 -11 -10
-5 0 -7 5 -4 10 3 6 8 10 11 10 2 0 4 -4 4 -10z m60 -10 c0 -5 -7 -10 -16 -10
-8 0 -12 5 -9 10 3 6 10 10 16 10 5 0 9 -4 9 -10z m45 -30 c3 -5 -1 -10 -10
-10 -9 0 -13 5 -10 10 3 6 8 10 10 10 2 0 7 -4 10 -10z m-181 -39 c-8 -15 -37
-42 -65 -60 -48 -30 -50 -30 -43 -9 9 30 31 56 74 83 43 28 53 24 34 -14z
m-337 7 c-3 -8 -6 -5 -6 6 -1 11 2 17 5 13 3 -3 4 -12 1 -19z m213 -13 c0 -8
-10 -24 -22 -35 -20 -19 -23 -19 -26 -5 -4 17 24 55 40 55 4 0 8 -7 8 -15z
m-220 -14 c0 -5 -9 -19 -20 -32 l-20 -24 17 32 c19 34 23 39 23 24z m137 -32
c-16 -26 -27 -24 -27 4 0 30 10 40 26 26 10 -8 11 -15 1 -30z m573 31 c0 -5
-4 -10 -10 -10 -5 0 -10 5 -10 10 0 6 5 10 10 10 6 0 10 -4 10 -10z m-687 -37
c-5 -11 -8 -12 -13 -2 -5 7 -6 19 -3 26 5 11 8 12 13 2 5 -7 6 -19 3 -26z
m460 5 c6 -23 1 -38 -12 -38 -11 0 -19 31 -14 48 7 19 20 14 26 -10z m-436
-30 c-3 -7 -5 -2 -5 12 0 14 2 19 5 13 2 -7 2 -19 0 -25z m326 -60 c4 -10 2
-18 -3 -18 -5 0 -12 9 -15 20 -3 11 -10 20 -15 20 -5 0 -7 7 -3 15 5 14 7 14
18 -2 6 -10 15 -26 18 -35z m-22 -9 c10 -19 5 -39 -9 -39 -4 0 -12 15 -18 34
-8 28 -8 33 3 29 7 -3 18 -14 24 -24z m184 21 c3 -6 0 -13 -9 -16 -8 -3 -12
-12 -10 -19 3 -8 1 -22 -4 -31 -8 -15 -12 -12 -21 21 -8 30 -8 41 2 47 17 11
35 10 42 -2z m77 -12 c-7 -7 -12 -8 -12 -2 0 6 3 14 7 17 3 4 9 5 12 2 2 -3
-1 -11 -7 -17z m-1636 0 c5 -7 2 -9 -8 -5 -9 3 -20 1 -26 -5 -6 -6 -16 -7 -24
-2 -9 6 -6 10 12 15 36 10 38 10 46 -3z m-61 -38 c3 -5 2 -10 -4 -10 -5 0 -13
5 -16 10 -3 6 -2 10 4 10 5 0 13 -4 16 -10z m1240 -71 c-10 -52 -39 -122 -93
-231 -44 -87 -82 -155 -85 -151 -10 9 -8 43 2 43 5 0 4 20 -1 46 -6 25 -7 61
-4 80 4 18 6 35 5 36 -1 2 3 14 10 27 10 18 15 21 22 10 11 -19 21 -6 24 32 1
17 7 34 13 38 6 3 14 19 18 35 5 20 9 24 15 14 7 -10 9 -8 9 7 0 11 5 27 11
35 8 11 9 6 5 -20 l-6 -35 23 35 c13 19 27 45 32 58 15 48 15 12 0 -59z m162
47 c-4 -9 -13 -13 -21 -10 -12 5 -13 9 -3 25 13 21 33 9 24 -15z m-1301 -13
c-7 -7 -46 16 -46 28 0 5 11 2 25 -7 14 -9 24 -19 21 -21z m1266 -11 c-1 -1
-26 -25 -56 -53 l-54 -49 20 52 c27 72 37 83 54 61 12 -17 13 -16 14 7 1 24 1
24 12 5 7 -11 11 -21 10 -23z m143 28 c3 -5 11 -10 16 -10 6 0 7 5 4 10 -3 6
3 10 14 10 47 0 36 -35 -22 -72 -23 -15 -73 -54 -111 -88 -38 -34 -74 -59 -82
-56 -8 3 -21 -7 -31 -24 -9 -17 -26 -31 -38 -31 -44 -3 -50 -4 -50 -16 0 -16
-28 -49 -46 -55 -12 -4 -11 -8 1 -23 14 -17 13 -18 -7 -13 -14 4 -23 2 -24 -5
0 -9 -2 -9 -5 0 -6 14 33 93 45 93 5 0 11 9 14 21 4 14 10 18 18 13 9 -5 10
-2 6 9 -9 24 53 86 172 172 107 77 116 82 126 65z m-1349 -15 c24 -18 7 -19
-26 0 -16 9 -19 14 -9 15 8 0 24 -7 35 -15z m-100 -11 c18 -14 18 -15 -6 -8
-31 8 -50 24 -29 24 8 0 24 -7 35 -16z m-6 -36 c0 -13 -23 -5 -28 10 -2 7 2
10 12 6 9 -3 16 -11 16 -16z m144 6 c9 -8 14 -20 11 -24 -8 -14 -50 5 -53 24
-4 21 22 21 42 0z m77 -12 c-7 -2 -18 1 -23 6 -8 8 -4 9 13 5 13 -4 18 -8 10
-11z m69 -7 c14 -16 10 -18 -14 -9 -9 3 -16 10 -16 15 0 14 16 11 30 -6z
m1365 5 c4 -6 -6 -10 -22 -9 -25 0 -26 1 -8 9 11 5 21 9 22 9 1 1 5 -3 8 -9z
m-1416 -19 c7 -5 10 -14 7 -20 -11 -17 -24 -13 -36 9 -12 22 3 27 29 11z
m1511 -33 c0 -5 -9 -4 -20 2 -11 6 -20 12 -20 14 0 2 9 2 20 -1 11 -3 20 -9
20 -15z m-1692 -3 c-2 -5 -11 -11 -21 -12 -15 -3 -16 -1 -5 12 14 15 32 16 26
0z m1486 6 c8 -12 -56 -66 -107 -91 -42 -21 -41 -20 23 39 67 62 75 67 84 52z
m-1354 -16 c19 -23 8 -37 -18 -20 -12 9 -22 20 -22 26 0 14 26 11 40 -6z
m1333 -85 c-92 -87 -212 -181 -252 -197 -39 -17 -192 -73 -198 -73 -1 0 -3 6
-3 14 0 14 90 76 110 76 5 0 24 13 42 29 54 47 208 142 208 129 1 -8 6 -6 14
5 7 9 20 17 29 17 9 0 21 9 27 21 7 11 26 34 43 49 31 28 32 28 36 7 2 -16
-13 -36 -56 -77z m-1083 65 c10 -12 10 -15 -2 -15 -8 0 -15 7 -15 15 0 8 1 15
2 15 2 0 8 -7 15 -15z m-50 -10 c16 -19 0 -19 -26 0 -16 12 -16 14 -3 15 9 0
22 -7 29 -15z m-310 -5 c0 -5 -2 -10 -4 -10 -3 0 -8 5 -11 10 -3 6 -1 10 4 10
6 0 11 -4 11 -10z m468 1 c11 -7 11 -9 -1 -14 -9 -3 -21 1 -27 9 -10 11 -10
14 1 14 8 0 20 -4 27 -9z m1082 -14 c0 -7 9 -21 21 -30 20 -18 20 -18 -32 -67
-29 -28 -55 -50 -57 -50 -2 0 -18 -11 -36 -25 -22 -16 -51 -26 -92 -31 -57 -6
-58 -6 -41 12 10 10 25 19 34 19 10 0 22 9 29 20 18 33 157 174 166 169 4 -3
8 -11 8 -17z m-1243 -14 c-7 -7 -57 8 -57 18 0 4 14 3 31 -3 16 -6 28 -12 26
-15z m213 -74 c184 -106 341 -234 270 -221 -8 1 -46 2 -84 2 -64 0 -68 1 -63
20 4 17 3 18 -16 8 -37 -20 -47 -18 -41 6 4 17 1 23 -11 23 -9 0 -14 -6 -11
-14 8 -19 -24 -16 -39 3 -6 9 -29 18 -50 20 -65 5 -68 25 -3 23 36 -1 55 -6
51 -12 -4 -7 1 -8 13 -3 21 9 28 10 62 8 13 -1 20 -6 17 -12 -3 -6 4 -9 17 -9
13 1 40 -6 62 -15 21 -10 40 -15 42 -13 2 2 -40 23 -94 47 -53 24 -108 51
-122 61 -14 9 -46 26 -71 38 -26 12 -57 33 -69 47 l-23 24 49 0 49 0 -40 36
-40 36 45 -36 c25 -19 70 -50 100 -67z m-422 62 c3 -8 -1 -12 -9 -9 -7 2 -15
10 -17 17 -3 8 1 12 9 9 7 -2 15 -10 17 -17z m-43 -11 c3 -5 1 -10 -4 -10 -6
0 -11 5 -11 10 0 6 2 10 4 10 3 0 8 -4 11 -10z m1662 -12 c-3 -8 -6 -5 -6 6
-1 11 2 17 5 13 3 -3 4 -12 1 -19z m-1507 2 c0 -5 -7 -10 -16 -10 -8 0 -12 5
-9 10 3 6 10 10 16 10 5 0 9 -4 9 -10z m94 -15 c29 -22 11 -34 -34 -23 -40 10
-40 11 -18 23 30 17 30 17 52 0z m-144 -15 c0 -5 -2 -10 -4 -10 -3 0 -8 5 -11
10 -3 6 -1 10 4 10 6 0 11 -4 11 -10z m-45 -10 c3 -5 2 -10 -4 -10 -5 0 -13 5
-16 10 -3 6 -2 10 4 10 5 0 13 -4 16 -10z m240 0 c3 -5 -1 -10 -10 -10 -9 0
-13 5 -10 10 3 6 8 10 10 10 2 0 7 -4 10 -10z m1372 -22 c-3 -8 -6 -5 -6 6 -1
11 2 17 5 13 3 -3 4 -12 1 -19z m-1379 -28 c5 -14 29 -13 35 3 4 8 11 5 24
-10 10 -12 29 -27 43 -32 20 -8 10 -10 -49 -10 -61 -1 -72 2 -67 14 3 9 -3 19
-17 25 -20 10 -20 10 -5 -3 13 -10 15 -16 6 -25 -18 -18 -39 -14 -65 10 -41
38 -31 52 34 45 32 -3 59 -11 61 -17z m1252 -40 c0 -34 -13 -41 -111 -56 -53
-8 -61 12 -19 47 28 24 36 26 54 17 14 -8 17 -13 8 -16 -10 -3 -10 -7 -1 -18
17 -21 31 -17 24 7 -5 14 -1 27 12 39 23 22 33 16 33 -20z m127 -17 c-3 -10
-5 -2 -5 17 0 19 2 27 5 18 2 -10 2 -26 0 -35z m-953 -4 c14 -11 23 -25 20
-30 -3 -6 -16 1 -29 15 -13 14 -26 22 -29 19 -3 -4 -6 -1 -6 5 0 18 14 15 44
-9z m-427 -37 c-19 -21 -22 -37 -5 -26 7 5 8 3 4 -5 -6 -9 -13 -8 -27 5 -29
26 -24 44 13 44 29 0 30 -1 15 -18z m1064 -2 c10 -6 19 -15 19 -20 0 -16 -92
-80 -115 -80 -12 0 -39 -11 -59 -25 -42 -29 -97 -33 -142 -11 -16 8 -44 17
-63 20 -39 5 -62 23 -40 30 8 2 23 7 34 9 11 3 38 12 60 20 30 11 42 12 47 4
6 -9 10 -9 16 0 4 6 14 11 22 11 49 -3 72 3 77 21 5 19 19 23 101 29 13 1 32
-3 43 -8z m-441 -10 c0 -5 -5 -10 -11 -10 -5 0 -7 5 -4 10 3 6 8 10 11 10 2 0
4 -4 4 -10z m600 -35 c-28 -55 -36 -61 -74 -57 l-35 4 29 29 c27 27 76 59 91
59 4 0 -1 -16 -11 -35z m50 -40 c-6 -7 -19 -15 -30 -18 -17 -4 -17 -2 -7 22 6
14 18 34 26 45 15 18 16 17 19 -8 2 -15 -2 -33 -8 -41z m-140 41 c0 -2 -6 -9
-13 -15 -10 -8 -14 -7 -14 4 0 8 6 15 14 15 7 0 13 -2 13 -4z m211 -53 c-12
-20 -14 -14 -5 12 4 9 9 14 11 11 3 -2 0 -13 -6 -23z m-1013 -10 c-10 -2 -26
-2 -35 0 -10 3 -2 5 17 5 19 0 27 -2 18 -5z m682 -28 c14 -8 35 -14 48 -15 26
0 31 -20 5 -20 -17 -1 -17 -1 -1 -10 10 -7 25 -7 41 -1 30 12 44 31 23 31 -9
0 -16 6 -16 13 0 8 -3 7 -10 -3 -7 -11 -12 -12 -21 -3 -8 8 -6 13 10 18 28 9
61 -3 61 -22 0 -11 6 -14 21 -10 20 5 20 5 3 -15 -11 -11 -19 -27 -19 -36 0
-8 -6 -17 -14 -20 -9 -3 -11 0 -6 8 6 9 4 11 -4 5 -22 -13 4 -28 27 -16 26 14
35 14 27 1 -15 -25 -42 -29 -76 -11 -19 10 -56 23 -84 30 -124 32 -138 43 -93
75 27 19 45 20 78 1z m-703 -21 c13 -14 22 -28 19 -31 -2 -3 -29 -2 -60 2 -56
7 -97 27 -83 41 4 4 12 3 19 -4 8 -8 14 -7 25 4 22 21 53 17 80 -12z m88 18
c-3 -3 0 -11 6 -19 14 -16 -3 -17 -19 -1 -16 16 -15 25 3 25 8 0 13 -3 10 -5z
m138 -27 c21 -15 20 -56 -2 -63 -9 -3 -11 0 -6 9 5 8 5 11 0 7 -4 -4 -14 -3
-21 3 -8 7 -14 6 -20 -2 -4 -7 -3 -9 4 -5 6 3 17 -3 25 -14 7 -11 17 -17 20
-13 11 10 8 -30 -3 -47 -8 -13 -11 -13 -25 1 -9 9 -18 22 -20 30 -10 43 -18
58 -29 52 -6 -4 -5 1 3 10 7 9 18 14 24 10 6 -4 8 0 4 10 -5 13 4 24 23 26 3
0 13 -6 23 -14z m330 -18 c48 -12 87 -24 87 -27 0 -4 -6 -15 -14 -25 -13 -18
-15 -18 -30 -2 -17 17 -66 24 -66 10 0 -4 12 -20 27 -35 30 -31 23 -33 -45
-16 -44 11 -152 88 -152 108 0 24 62 20 193 -13z m436 -11 c-7 -14 -16 -26
-21 -26 -5 0 -7 -4 -4 -9 3 -5 -12 -27 -33 -50 -28 -30 -40 -37 -44 -27 -4 9
5 22 21 32 44 29 52 40 39 53 -8 8 -7 11 6 11 10 0 23 11 29 25 6 14 13 23 15
21 2 -2 -2 -15 -8 -30z m-1281 -21 c-3 -3 -9 2 -12 12 -6 14 -5 15 5 6 7 -7
10 -15 7 -18z m162 5 c19 -26 45 -28 31 -1 -10 17 -7 18 34 10 25 -5 61 -9 80
-11 49 -3 44 -20 -12 -40 -59 -20 -125 -11 -157 22 -11 13 -15 19 -7 15 11 -6
13 -4 8 8 -9 23 6 21 23 -3z m263 -12 c7 -7 21 -26 31 -42 18 -28 18 -30 0
-43 -26 -19 -81 -17 -92 4 -12 21 5 73 24 73 8 0 14 5 14 10 0 14 9 13 23 -2z
m613 -14 c45 -21 61 -41 46 -56 -16 -16 -15 -31 1 -22 8 5 9 4 2 -4 -12 -13
-58 -4 -49 9 3 5 1 9 -5 9 -5 0 -13 -4 -16 -10 -5 -7 -74 12 -93 26 -2 1 4 16
13 33 18 36 47 40 101 15z m-126 -28 c0 -3 -4 -8 -10 -11 -5 -3 -10 -1 -10 4
0 6 5 11 10 11 6 0 10 -2 10 -4z m-892 -22 c-11 -11 -23 -14 -35 -9 -15 7 -13
9 12 15 17 4 32 8 35 9 2 0 -3 -6 -12 -15z m314 -18 c13 -19 4 -40 -24 -56
-27 -15 -29 -14 -74 31 l-47 47 69 -5 c38 -3 72 -11 76 -17z m288 -13 c0 -26
-3 -34 -9 -24 -5 8 -14 10 -22 5 -12 -6 -12 -5 0 9 12 15 11 17 -9 17 -19 0
-20 2 -10 15 7 8 21 15 31 15 15 0 19 -7 19 -37z m-106 -15 c3 -13 8 -47 11
-77 3 -30 11 -63 16 -74 6 -10 9 -21 6 -23 -6 -7 -77 28 -77 38 0 4 -6 5 -14
2 -12 -4 -13 6 -9 58 3 35 10 71 15 81 13 25 47 22 52 -5z m-87 -50 c-5 -24
-13 -53 -18 -66 l-9 -23 -28 21 c-15 11 -38 29 -52 40 l-25 18 30 12 c16 6 37
17 45 25 15 13 50 24 61 18 4 -1 2 -22 -4 -45z m673 18 c0 -3 -4 -8 -10 -11
-5 -3 -10 -1 -10 4 0 6 5 11 10 11 6 0 10 -2 10 -4z m-528 -76 c5 0 8 7 4 15
-4 12 0 14 22 9 15 -4 29 -8 31 -10 8 -7 -32 -104 -41 -98 -15 9 -38 70 -37
96 1 17 2 18 6 6 2 -10 9 -18 15 -18z m-66 -137 c-10 -10 -19 5 -10 18 6 11 8
11 12 0 2 -7 1 -15 -2 -18z"/>
<path d="M1619 1503 c-13 -16 -12 -17 4 -4 9 7 17 15 17 17 0 8 -8 3 -21 -13z"/>
<path d="M1337 1073 c-4 -3 -7 -13 -7 -22 1 -13 3 -13 11 2 11 19 8 33 -4 20z"/>
<path d="M1690 1278 c0 -9 5 -20 10 -23 13 -8 13 5 0 25 -8 13 -10 13 -10 -2z"/>
<path d="M1000 820 c0 -5 6 -10 14 -10 8 0 18 5 21 10 3 6 -3 10 -14 10 -12 0
-21 -4 -21 -10z"/>
<path d="M2015 1399 c-4 -6 -4 -13 -1 -16 3 -4 6 -1 6 5 0 6 8 13 18 15 15 4
15 5 0 6 -9 0 -20 -4 -23 -10z"/>
<path d="M640 1326 c0 -2 7 -6 15 -10 8 -3 15 -1 15 4 0 6 -7 10 -15 10 -8 0
-15 -2 -15 -4z"/>
<path d="M1210 1322 c0 -5 10 -17 22 -28 l21 -19 -18 28 c-18 28 -25 33 -25
19z"/>
<path d="M1130 1271 c0 -6 5 -13 10 -16 6 -3 10 1 10 9 0 9 -4 16 -10 16 -5 0
-10 -4 -10 -9z"/>
<path d="M1205 1114 c-19 -29 -47 -105 -41 -111 2 -2 10 13 16 34 7 21 21 53
32 71 23 38 18 43 -7 6z"/>
<path d="M1153 945 c0 -27 2 -38 4 -22 2 15 2 37 0 50 -2 12 -4 0 -4 -28z"/>
<path d="M545 751 c-3 -5 -2 -12 3 -15 5 -3 9 1 9 9 0 17 -3 19 -12 6z"/>
<path d="M546 585 c-25 -19 -9 -19 24 0 14 8 19 14 10 14 -8 0 -24 -6 -34 -14z"/>
<path d="M1442 541 c-15 -9 -6 -28 46 -103 37 -54 48 -62 26 -20 -7 15 -14 33
-14 40 0 6 -4 12 -9 12 -6 0 -8 9 -6 21 5 25 -25 61 -43 50z m18 -11 c0 -5 -5
-10 -11 -10 -5 0 -7 5 -4 10 3 6 8 10 11 10 2 0 4 -4 4 -10z"/>
<path d="M1552 450 c0 -14 2 -19 5 -12 2 6 2 18 0 25 -3 6 -5 1 -5 -13z"/>
<path d="M1706 457 c3 -10 9 -15 12 -12 3 3 0 11 -7 18 -10 9 -11 8 -5 -6z"/>
<path d="M650 420 c-13 -8 -12 -10 3 -10 9 0 17 5 17 10 0 12 -1 12 -20 0z"/>
<path d="M1742 395 c0 -16 2 -22 5 -12 2 9 2 23 0 30 -3 6 -5 -1 -5 -18z"/>
<path d="M1926 385 c-9 -26 -7 -32 5 -12 6 10 9 21 6 23 -2 3 -7 -2 -11 -11z"/>
<path d="M1841 364 c0 -11 3 -14 6 -6 3 7 2 16 -1 19 -3 4 -6 -2 -5 -13z"/>
<path d="M1565 350 c3 -5 8 -10 11 -10 2 0 4 5 4 10 0 6 -5 10 -11 10 -5 0 -7
-4 -4 -10z"/>
<path d="M1738 253 c7 -3 16 -2 19 1 4 3 -2 6 -13 5 -11 0 -14 -3 -6 -6z"/>
<path d="M1161 214 c0 -11 3 -14 6 -6 3 7 2 16 -1 19 -3 4 -6 -2 -5 -13z"/>
</g>
</svg>
