<svg xmlns="http://www.w3.org/2000/svg" width="225" height="225" viewBox="0 0 225 225" version="1.1"><path d="M 168.530 23.736 L 167.843 26.472 166.928 24.836 L 166.013 23.200 162.256 23.223 L 158.500 23.246 160.500 23.998 C 161.600 24.411, 162.831 24.559, 163.235 24.325 C 163.639 24.092, 164.803 25.272, 165.822 26.947 C 167.839 30.265, 169 30.019, 169 26.274 L 169 23.882 170.155 24.595 C 170.847 25.023, 171.038 24.871, 170.633 24.216 C 170.262 23.615, 170.755 22.659, 171.729 22.092 L 173.500 21.061 171.358 21.030 L 169.217 21 168.530 23.736 M 179.320 36 C 179.320 39.575, 179.502 41.038, 179.723 39.250 C 179.945 37.462, 179.945 34.538, 179.723 32.750 C 179.502 30.962, 179.320 32.425, 179.320 36 M 156.987 38.025 C 156.355 39.205, 156.061 40.394, 156.333 40.667 C 157.194 41.527, 161.139 38.917, 160.748 37.745 C 160.068 35.704, 158.152 35.847, 156.987 38.025 M 164.611 37.877 C 162.470 40.243, 163.804 41.348, 166.457 39.408 L 168.393 37.993 167.373 36.973 L 166.353 35.953 164.611 37.877 M 152.980 41.524 C 152.284 42.362, 151.968 43.301, 152.276 43.610 C 152.585 43.919, 153.340 43.233, 153.954 42.086 C 155.264 39.638, 154.778 39.358, 152.980 41.524 M 164.655 42.829 C 162.835 44.840, 162.467 47, 163.943 47 C 164.951 47, 168 43.075, 168 41.777 C 168 40.422, 166.369 40.935, 164.655 42.829 M 176.500 42 C 176.160 42.550, 176.359 43, 176.941 43 C 177.523 43, 178 42.550, 178 42 C 178 41.450, 177.802 41, 177.559 41 C 177.316 41, 176.840 41.450, 176.500 42 M 169.952 44.089 L 168.834 46.179 170.656 45.828 C 171.657 45.635, 172.628 44.695, 172.812 43.739 C 173.278 41.318, 171.306 41.560, 169.952 44.089 M 146.079 44.583 C 146.127 45.748, 146.364 45.985, 146.683 45.188 C 146.972 44.466, 146.936 43.603, 146.604 43.271 C 146.272 42.939, 146.036 43.529, 146.079 44.583 M 157 46.500 C 157 47.325, 157.436 48, 157.969 48 C 158.501 48, 158.678 47.325, 158.362 46.500 C 158.045 45.675, 157.609 45, 157.393 45 C 157.177 45, 157 45.675, 157 46.500 M 173.750 50.572 C 170.818 52.163, 170.091 54, 172.393 54 C 173.159 54, 174.113 53.212, 174.513 52.250 L 175.240 50.500 176.575 53.500 C 177.309 55.150, 177.937 55.825, 177.970 55 L 178.031 53.500 178.876 54.834 L 179.722 56.168 180.282 54.708 C 180.637 53.783, 179.883 52.812, 178.223 52.056 L 175.604 50.863 177.052 49.947 C 179.424 48.446, 176.727 48.957, 173.750 50.572 M 151.580 52.190 C 150.736 53.394, 150.241 54.575, 150.480 54.813 C 151.324 55.657, 153.884 54.086, 154.970 52.056 L 156.070 50 154.592 50 C 153.779 50, 152.423 50.985, 151.580 52.190 M 153.534 55.963 C 151.747 57.937, 152.114 61.666, 153.981 60.511 C 154.556 60.156, 154.725 60.552, 154.382 61.448 C 153.145 64.671, 156.167 62.844, 157.551 59.532 C 159.975 53.732, 157.524 51.554, 153.534 55.963 M 140.079 62.583 C 140.127 63.748, 140.364 63.985, 140.683 63.188 C 140.972 62.466, 140.936 61.603, 140.604 61.271 C 140.272 60.939, 140.036 61.529, 140.079 62.583 M 144.035 62.934 C 142.596 65.623, 142.715 66, 145 66 L 147 66 147 63.500 C 147 60.523, 145.481 60.233, 144.035 62.934 M 159.512 62.987 L 157.647 65.047 158.750 66.150 C 159.376 66.776, 160.995 66.967, 162.492 66.591 L 165.130 65.929 164.815 63.725 C 164.396 60.793, 161.822 60.434, 159.512 62.987 M 178.079 62.583 C 178.127 63.748, 178.364 63.985, 178.683 63.188 C 178.972 62.466, 178.936 61.603, 178.604 61.271 C 178.272 60.939, 178.036 61.529, 178.079 62.583 M 148.080 64.851 C 146.432 67.931, 146.770 69, 149.393 69 C 152.510 69, 153.362 66.638, 151.012 64.511 L 149.159 62.834 148.080 64.851 M 170.500 64 C 170.160 64.550, 170.148 65.430, 170.473 65.956 C 171.296 67.287, 174 66.089, 174 64.393 C 174 62.794, 171.424 62.505, 170.500 64 M 137.694 68 C 136.661 70.736, 135.213 71.582, 132.500 71.035 C 131.950 70.924, 131.838 71.171, 132.250 71.583 C 132.662 71.996, 134.688 72.335, 136.750 72.338 L 140.500 72.342 140.819 70.176 L 141.138 68.010 139.453 68.657 L 137.767 69.303 138.919 67.152 C 139.552 65.968, 139.790 65, 139.448 65 C 139.106 65, 138.317 66.350, 137.694 68 M 185 65.902 C 185 66.940, 186.902 68.443, 187.466 67.850 C 187.649 67.658, 187.169 66.920, 186.399 66.211 C 185.630 65.501, 185 65.362, 185 65.902 M 178.500 68 C 178.840 68.550, 179.316 69, 179.559 69 C 179.802 69, 180 68.550, 180 68 C 180 67.450, 179.523 67, 178.941 67 C 178.359 67, 178.160 67.450, 178.500 68 M 167 70.500 C 166.293 71.352, 165.940 72.273, 166.215 72.548 C 166.490 72.823, 167.293 72.352, 168 71.500 C 168.707 70.648, 169.060 69.727, 168.785 69.452 C 168.510 69.177, 167.707 69.648, 167 70.500 M 188.032 70.203 C 187.837 74.535, 192.558 77.329, 196 74.919 L 197.500 73.869 195.258 74.499 L 193.016 75.130 190.539 72.315 C 189.178 70.767, 188.049 69.816, 188.032 70.203 M 171.500 72 C 171.160 72.550, 171.584 73, 172.441 73 C 173.298 73, 174 72.550, 174 72 C 174 71.450, 173.577 71, 173.059 71 C 172.541 71, 171.840 71.450, 171.500 72 M 131 75.059 C 131 75.641, 131.450 75.840, 132 75.500 C 132.550 75.160, 133 74.684, 133 74.441 C 133 74.198, 132.550 74, 132 74 C 131.450 74, 131 74.477, 131 75.059 M 176 75 C 176 75.550, 176.450 76, 177 76 C 177.550 76, 178 75.550, 178 75 C 178 74.450, 177.550 74, 177 74 C 176.450 74, 176 74.450, 176 75 M 159.819 75.981 C 156.387 77.017, 151 82.501, 151 84.959 L 151 86.849 155.942 83.675 C 158.660 81.929, 160.910 79.802, 160.942 78.950 C 160.974 78.098, 161.540 76.860, 162.200 76.200 C 163.542 74.858, 163.542 74.858, 159.819 75.981 M 201.583 76.643 C 200.665 79.037, 201.381 79.221, 202.796 76.955 C 203.468 75.880, 203.611 75, 203.115 75 C 202.620 75, 201.930 75.739, 201.583 76.643 M 129.079 77.583 C 129.127 78.748, 129.364 78.985, 129.683 78.188 C 129.972 77.466, 129.936 76.603, 129.604 76.271 C 129.272 75.939, 129.036 76.529, 129.079 77.583 M 146.655 78.829 C 145.745 79.835, 145 81.420, 145 82.352 L 145 84.046 147.500 82.408 C 148.875 81.507, 150 79.922, 150 78.885 C 150 76.503, 148.778 76.482, 146.655 78.829 M 198 78.761 C 198 79.222, 198.563 80.206, 199.250 80.947 L 200.500 82.293 199.319 81.630 C 198.670 81.266, 197.856 81.425, 197.510 81.984 C 197.165 82.543, 197.471 83.037, 198.191 83.083 C 198.911 83.129, 200.512 83.279, 201.750 83.416 C 202.988 83.553, 204 83.291, 204 82.833 C 204 82.375, 203.635 82, 203.189 82 C 202.742 82, 201.392 81.082, 200.189 79.961 C 198.985 78.840, 198 78.300, 198 78.761 M 193.500 80 C 193.160 80.550, 193.359 81, 193.941 81 C 194.523 81, 195 80.550, 195 80 C 195 79.450, 194.802 79, 194.559 79 C 194.316 79, 193.840 79.450, 193.500 80 M 127.153 82.564 C 126.486 84.028, 126.415 84.862, 126.987 84.508 C 128.455 83.601, 130.219 80, 129.196 80 C 128.715 80, 127.795 81.154, 127.153 82.564 M 139.667 80.667 C 138.729 81.604, 138.834 85, 139.800 85 C 141.046 85, 143 82.741, 143 81.300 C 143 79.938, 140.812 79.522, 139.667 80.667 M 171.473 83.748 C 172.327 87.150, 172.774 87.626, 173.984 86.416 C 175.337 85.063, 174.055 81, 172.275 81 L 170.783 81 171.473 83.748 M 130 83.559 C 130 84.416, 130.450 84.840, 131 84.500 C 131.550 84.160, 132 83.459, 132 82.941 C 132 82.423, 131.550 82, 131 82 C 130.450 82, 130 82.702, 130 83.559 M 122 84.500 C 122 85.417, 122.484 86.005, 123.075 85.808 C 123.666 85.611, 124.150 85.023, 124.150 84.500 C 124.150 83.977, 123.666 83.389, 123.075 83.192 C 122.484 82.995, 122 83.583, 122 84.500 M 133.070 84.691 C 133.032 85.896, 133.418 87.140, 133.928 87.456 C 134.967 88.098, 136.518 84.184, 135.591 83.258 C 135.266 82.933, 134.968 83.529, 134.930 84.583 L 134.859 86.500 134 84.500 L 133.141 82.500 133.070 84.691 M 194 84.891 C 192.465 85.315, 191.377 86.435, 191.180 87.791 L 190.861 90 194.037 90 L 197.214 90 196.658 88.551 C 196.322 87.675, 196.872 86.858, 198.051 86.484 C 203.014 84.909, 199.265 83.435, 194 84.891 M 19.762 86.707 C 21.006 86.946, 22.806 86.937, 23.762 86.687 C 24.718 86.437, 23.700 86.241, 21.500 86.252 C 19.300 86.263, 18.518 86.468, 19.762 86.707 M 167.015 86.691 C 167.024 87.136, 167.467 88.175, 168 89 L 168.969 90.500 168.985 88.809 C 168.993 87.879, 168.550 86.840, 168 86.500 C 167.450 86.160, 167.007 86.246, 167.015 86.691 M 29.813 87.683 C 30.534 87.972, 31.397 87.936, 31.729 87.604 C 32.061 87.272, 31.471 87.036, 30.417 87.079 C 29.252 87.127, 29.015 87.364, 29.813 87.683 M 159.511 87.983 C 158.785 89.156, 159.945 96.014, 160.861 95.968 C 161.213 95.951, 162.319 95.315, 163.321 94.556 L 165.142 93.176 163.545 90.088 C 161.912 86.929, 160.589 86.239, 159.511 87.983 M 16.750 89.662 C 17.438 89.940, 18.563 89.940, 19.250 89.662 C 19.938 89.385, 19.375 89.158, 18 89.158 C 16.625 89.158, 16.063 89.385, 16.750 89.662 M 175.689 89.764 L 173.878 90.170 174.519 93.085 L 175.159 96 173.079 96 C 171.936 96, 170.986 96.563, 170.968 97.250 C 170.949 97.994, 170.380 97.767, 169.564 96.690 C 167.982 94.603, 166.684 95.926, 167.631 98.660 L 168.269 100.500 166.885 98.758 L 165.500 97.015 155.793 103.880 C 147.111 110.020, 141 115.620, 141 117.436 C 141 117.792, 140.161 118.984, 139.135 120.085 C 138.110 121.186, 136.083 124.270, 134.630 126.938 L 131.990 131.789 134.482 131.645 L 136.975 131.500 136.489 129.969 C 136.223 129.127, 136.947 127.777, 138.100 126.969 C 139.252 126.161, 140.551 124.590, 140.986 123.477 C 141.475 122.229, 142.834 121.367, 144.538 121.226 C 147.783 120.958, 150 119.352, 150 117.271 C 150 116.385, 150.585 116.010, 151.449 116.342 C 152.326 116.679, 156.256 114.021, 161.414 109.602 C 166.098 105.589, 171.465 101.254, 173.340 99.969 C 175.215 98.684, 177.423 96.147, 178.246 94.332 L 179.742 91.031 178.621 90.194 C 178.004 89.734, 176.685 89.540, 175.689 89.764 M 30.250 90.766 C 26.431 91.399, 27.769 92.903, 32 92.735 C 34.200 92.647, 36 92.461, 36 92.323 C 36 91.494, 32.149 90.452, 30.250 90.766 M 125 91.238 C 125 92.089, 125.739 93.070, 126.643 93.417 C 129.106 94.361, 129.261 93.546, 127.006 91.506 L 125 89.690 125 91.238 M 185.500 91 C 185.160 91.550, 185.359 92, 185.941 92 C 186.523 92, 187 91.550, 187 91 C 187 90.450, 186.802 90, 186.559 90 C 186.316 90, 185.840 90.450, 185.500 91 M 196.534 93.177 C 196.765 94.374, 197.480 95.836, 198.124 96.427 L 199.294 97.500 198.683 95.762 C 198.347 94.806, 198.393 94.131, 198.786 94.262 C 199.179 94.393, 199.613 94.162, 199.750 93.750 C 200.379 91.862, 199.849 91, 198.057 91 L 196.115 91 196.534 93.177 M 26.991 95.489 C 27.671 96.308, 28.674 96.702, 29.220 96.364 C 29.824 95.991, 29.681 95.413, 28.857 94.890 C 26.700 93.524, 25.641 93.863, 26.991 95.489 M 144.105 95 C 144.013 95.825, 142.812 98.300, 141.437 100.500 L 138.937 104.500 139.406 101.730 C 139.674 100.148, 139.473 99.208, 138.937 99.539 C 138.422 99.857, 138 100.718, 138 101.452 C 138 102.186, 137.325 103.045, 136.500 103.362 C 135.675 103.678, 135 104.865, 135 106 C 135 107.135, 134.353 108.311, 133.563 108.614 C 132.773 108.917, 132.361 109.776, 132.647 110.522 C 132.933 111.268, 132.693 112.693, 132.114 113.689 L 131.061 115.500 131.024 113.500 L 130.987 111.500 129.108 114.350 L 127.229 117.200 127.222 128.144 L 127.215 139.089 128.681 137.294 C 129.488 136.307, 129.863 136.063, 129.515 136.750 C 129.167 137.438, 129.411 138, 130.058 138 C 130.785 138, 131.008 137.142, 130.644 135.750 L 130.054 133.500 136.465 120.500 C 143.124 106.997, 145.491 99.939, 144.723 95.878 C 144.475 94.570, 144.197 94.175, 144.105 95 M 155.250 95.085 C 154.012 95.553, 152.993 96.738, 152.985 97.718 L 152.969 99.500 152.026 98.008 L 151.083 96.517 150.118 97.508 C 148.809 98.852, 145.025 109.007, 145.846 108.972 C 146.206 108.957, 147.850 107.555, 149.500 105.857 C 151.150 104.159, 153.963 101.644, 155.750 100.266 C 160.376 96.702, 160.045 93.273, 155.250 95.085 M 33 95.999 C 33 97.116, 37.964 99.370, 38.732 98.602 C 38.981 98.352, 37.794 97.428, 36.093 96.548 C 34.280 95.611, 33 95.383, 33 95.999 M 154.756 96.687 C 155.447 96.953, 155.758 97.582, 155.447 98.085 C 154.598 99.459, 155.601 99.185, 156.827 97.709 L 157.898 96.418 155.699 96.311 C 154.490 96.252, 154.065 96.421, 154.756 96.687 M 30 97.893 C 30 98.950, 32.483 100.014, 34.832 99.965 L 36.500 99.929 34 98.500 C 31.068 96.824, 30 96.662, 30 97.893 M 40.425 97.879 C 40.724 98.363, 41.988 99.016, 43.234 99.330 L 45.500 99.901 43.559 98.450 C 41.409 96.844, 39.580 96.511, 40.425 97.879 M 128.451 99.750 C 128.075 100.987, 127.427 102, 127.011 102 C 126.596 102, 125.968 103.800, 125.616 106 C 125.264 108.200, 124.532 110, 123.988 110 C 123.445 110, 123.070 110.338, 123.156 110.750 C 123.396 111.909, 118.829 121.457, 117.853 121.835 C 117.377 122.020, 117.242 122.582, 117.553 123.085 C 117.864 123.588, 117.765 124.563, 117.333 125.250 C 116.902 125.938, 116.425 128.525, 116.273 131 L 115.998 135.500 116.892 134.114 L 117.786 132.728 119.615 134.864 C 122.831 138.619, 123.008 138.107, 125.033 119.148 C 126.078 109.361, 127.402 103.426, 128.957 101.552 C 129.635 100.735, 129.952 99.490, 129.662 98.784 C 129.330 97.975, 128.882 98.332, 128.451 99.750 M 183 100 C 183 100.550, 183.450 101, 184 101 C 184.550 101, 185 100.550, 185 100 C 185 99.450, 184.550 99, 184 99 C 183.450 99, 183 99.450, 183 100 M 194 99.902 C 194 100.940, 195.902 102.443, 196.466 101.850 C 196.649 101.658, 196.169 100.920, 195.399 100.211 C 194.630 99.501, 194 99.362, 194 99.902 M 18.510 102.016 C 18.856 102.575, 19.557 102.774, 20.069 102.457 C 21.456 101.600, 21.198 101, 19.441 101 C 18.584 101, 18.165 101.457, 18.510 102.016 M 31 102 C 31.825 102.533, 32.950 102.969, 33.500 102.969 C 34.050 102.969, 33.825 102.533, 33 102 C 32.175 101.467, 31.050 101.031, 30.500 101.031 C 29.950 101.031, 30.175 101.467, 31 102 M 43 101.800 C 43 103.213, 45.345 105, 47.200 105 C 49.283 105, 49.515 103.915, 47.800 102.200 C 46.454 100.854, 43 100.566, 43 101.800 M 51.614 102.150 C 52.084 102.893, 52.515 103.725, 52.571 104 C 52.996 106.091, 54.445 108, 55.607 108 C 57.464 108, 57.391 106.087, 55.506 105.364 C 54.684 105.048, 54.247 104.410, 54.534 103.945 C 54.821 103.481, 54.089 102.583, 52.907 101.950 L 50.759 100.800 51.614 102.150 M 58.229 103.187 C 58.727 104.682, 61 105.505, 61 104.190 C 61 103.653, 60.287 102.941, 59.416 102.606 C 58.443 102.233, 57.985 102.456, 58.229 103.187 M 184.813 103.683 C 185.534 103.972, 186.397 103.936, 186.729 103.604 C 187.061 103.272, 186.471 103.036, 185.417 103.079 C 184.252 103.127, 184.015 103.364, 184.813 103.683 M 191.500 104 C 191.840 104.550, 192.316 105, 192.559 105 C 192.802 105, 193 104.550, 193 104 C 193 103.450, 192.523 103, 191.941 103 C 191.359 103, 191.160 103.450, 191.500 104 M 81.878 104.904 C 82.726 105.441, 82.941 106.300, 82.436 107.138 L 81.616 108.500 83.308 107.128 C 85.645 105.232, 85.424 103.997, 82.750 104.015 L 80.500 104.031 81.878 104.904 M 75 106.059 C 75 106.641, 75.450 106.840, 76 106.500 C 76.550 106.160, 77 105.684, 77 105.441 C 77 105.198, 76.550 105, 76 105 C 75.450 105, 75 105.477, 75 106.059 M 194.461 107.957 C 196.639 110.364, 197.138 110.524, 196.391 108.577 C 196.091 107.795, 195.118 106.875, 194.229 106.534 L 192.612 105.914 194.461 107.957 M 37.500 108 C 37.840 108.550, 38.541 109, 39.059 109 C 39.577 109, 40 108.550, 40 108 C 40 107.450, 39.298 107, 38.441 107 C 37.584 107, 37.160 107.450, 37.500 108 M 168.979 113.061 L 162.500 119.122 167 116.596 C 173.311 113.053, 178.149 109.051, 177.463 107.940 C 176.467 106.329, 175.642 106.827, 168.979 113.061 M 175.089 112.567 C 172.663 115.496, 170.413 117.864, 170.089 117.828 C 169.765 117.792, 169.275 117.851, 169 117.958 C 168.725 118.065, 167.761 118.297, 166.858 118.472 C 164.900 118.853, 146.820 130.775, 145.765 132.381 C 145.349 133.015, 145.017 133.067, 145 132.500 C 144.981 131.874, 144.695 131.892, 144.235 132.548 C 143.831 133.124, 141.371 134.826, 138.768 136.329 C 136.166 137.833, 133.527 140.014, 132.905 141.178 L 131.773 143.293 133.637 142.723 C 139.748 140.854, 152.854 135.663, 155.130 134.210 C 159.798 131.229, 172.342 120.707, 176.668 116.144 L 180.836 111.747 180.450 109.738 C 179.881 106.785, 179.876 106.788, 175.089 112.567 M 47 108.800 C 47 110.224, 49.351 112, 51.235 112 L 53.070 112 52 110 C 50.976 108.087, 47 107.133, 47 108.800 M 83 109.333 C 83 109.516, 84.848 111.150, 87.106 112.965 L 91.212 116.265 90.071 114.132 C 89.443 112.960, 88.469 112, 87.906 112 C 87.343 112, 87.157 111.555, 87.493 111.011 C 87.843 110.445, 87.442 110.277, 86.552 110.618 C 85.698 110.946, 85 110.716, 85 110.107 C 85 109.498, 84.550 109, 84 109 C 83.450 109, 83 109.150, 83 109.333 M 72.008 110.974 C 71.188 111.492, 69.500 111.662, 68.258 111.350 C 65.347 110.619, 65.316 111.811, 68.219 112.885 L 70.437 113.706 71.824 112.318 L 73.212 110.931 74.856 112.215 L 76.500 113.500 75.128 111.750 C 74.373 110.787, 73.698 110.007, 73.628 110.015 C 73.557 110.024, 72.829 110.455, 72.008 110.974 M 197.670 112.766 C 197.984 114.012, 198.637 115.276, 199.121 115.575 C 200.489 116.420, 200.156 114.591, 198.550 112.441 L 197.099 110.500 197.670 112.766 M 82 113 C 82 113.550, 82.702 114, 83.559 114 C 84.416 114, 84.840 113.550, 84.500 113 C 84.160 112.450, 83.459 112, 82.941 112 C 82.423 112, 82 112.450, 82 113 M 182 112.905 C 182 113.403, 179.117 116.794, 175.593 120.441 C 172.069 124.089, 168.915 127.778, 168.585 128.640 C 168.254 129.502, 167.354 129.966, 166.586 129.671 C 165.817 129.376, 164.401 130.005, 163.439 131.067 L 161.690 133 166.595 132.982 L 171.500 132.964 175.500 130.207 C 177.700 128.690, 181.641 125.476, 184.259 123.063 L 189.017 118.677 187.661 117.088 C 186.914 116.215, 186.025 114.713, 185.683 113.750 C 185.050 111.964, 182 111.264, 182 112.905 M 64.550 113.888 C 65.073 114.376, 66.625 115.074, 68 115.439 L 70.500 116.104 68.559 114.552 C 66.513 112.916, 62.863 112.312, 64.550 113.888 M 79.962 115.890 L 83.424 119 79.212 119 C 76.896 119, 75 119.324, 75 119.720 C 75 120.783, 81.318 125.995, 82.610 125.998 C 83.221 125.999, 85.246 127.025, 87.110 128.278 C 88.975 129.531, 94.440 132.303, 99.256 134.439 C 104.072 136.574, 107.826 138.507, 107.599 138.735 C 107.372 138.962, 105.781 138.421, 104.064 137.533 C 102.346 136.645, 100.504 136.188, 99.971 136.518 C 99.437 136.848, 99 136.694, 99 136.176 C 99 134.747, 93.776 134.050, 91.640 135.193 C 90.605 135.746, 90.006 135.800, 90.307 135.312 C 90.609 134.823, 88.312 134.317, 85.203 134.187 L 79.550 133.950 80.700 135.100 C 81.333 135.733, 83.462 136.332, 85.433 136.433 C 87.403 136.533, 89.574 137.218, 90.258 137.954 L 91.500 139.293 90.095 138.492 L 88.691 137.691 89.405 138.845 C 89.797 139.480, 91.018 140, 92.118 140 C 93.218 140, 93.869 139.597, 93.565 139.105 C 93.260 138.612, 93.689 137.949, 94.518 137.631 L 96.025 137.053 95.404 139.527 L 94.783 142 96.892 142 C 98.051 142, 99 141.518, 99 140.929 C 99 140.339, 99.707 140.564, 100.571 141.429 C 102.235 143.093, 110 143.651, 110 142.107 C 110 141.616, 110.739 140.931, 111.641 140.584 L 113.283 139.954 112.019 141.477 L 110.755 143 113.319 143 C 119.086 143, 118.072 141.750, 104.013 131.531 C 100.094 128.683, 97 124.189, 97 121.346 C 97 120.606, 96.325 120, 95.500 120 C 94.675 120, 93.986 119.438, 93.970 118.750 C 93.953 118.063, 93.467 118.311, 92.891 119.302 L 91.842 121.105 93.083 122.600 L 94.323 124.095 95.146 122.797 C 95.610 122.066, 95.976 121.973, 95.985 122.583 C 96.030 125.791, 90.593 123.473, 81 116.195 L 76.500 112.781 79.962 115.890 M 47.991 116.489 C 48.671 117.308, 49.633 117.727, 50.130 117.420 C 51.406 116.631, 50.185 115, 48.319 115 L 46.755 115 47.991 116.489 M 45.500 118 C 45.840 118.550, 46.316 119, 46.559 119 C 46.802 119, 47 118.550, 47 118 C 47 117.450, 46.523 117, 45.941 117 C 45.359 117, 45.160 117.450, 45.500 118 M 58.543 117.931 C 57.860 119.036, 59.437 120.230, 60.361 119.306 C 61.311 118.355, 61.134 117, 60.059 117 C 59.541 117, 58.859 117.419, 58.543 117.931 M 66 118.934 C 66 119.447, 64.763 120.029, 63.250 120.228 L 60.500 120.588 65 121.626 C 67.872 122.289, 69.952 122.319, 70.750 121.710 L 72 120.755 72 121.771 C 72 122.329, 72.675 123.045, 73.500 123.362 C 76.916 124.672, 74.675 121.890, 70.812 120.023 C 65.989 117.693, 66 117.695, 66 118.934 M 54 121 C 54 121.550, 54.702 122, 55.559 122 C 56.416 122, 56.840 121.550, 56.500 121 C 56.160 120.450, 55.459 120, 54.941 120 C 54.423 120, 54 120.450, 54 121 M 201.320 128 C 201.320 131.575, 201.502 133.037, 201.723 131.250 C 201.945 129.463, 201.945 126.537, 201.723 124.750 C 201.502 122.963, 201.320 124.425, 201.320 128 M 63.013 125.487 C 62.531 126.068, 62.918 127.418, 63.920 128.655 L 65.666 130.810 75.583 130.810 C 81.488 130.810, 84.489 130.509, 83 130.066 C 81.625 129.657, 80.624 128.767, 80.775 128.087 C 80.926 127.407, 80.627 127.113, 80.110 127.432 C 79.594 127.751, 78.966 127.447, 78.716 126.756 L 78.261 125.500 76.220 126.703 L 74.178 127.906 73.661 126.559 C 73.035 124.928, 64.212 124.039, 63.013 125.487 M 96.500 126 C 96.840 126.550, 97.316 127, 97.559 127 C 97.802 127, 98 126.550, 98 126 C 98 125.450, 97.523 125, 96.941 125 C 96.359 125, 96.160 125.450, 96.500 126 M 104.323 126.703 C 105.396 126.981, 105.924 127.757, 105.605 128.587 C 105.060 130.007, 107.095 130.571, 108.325 129.342 C 109.438 128.228, 106.877 125.993, 104.628 126.116 L 102.500 126.232 104.323 126.703 M 186.441 128.441 C 185.374 129.234, 183.551 129.651, 182.391 129.368 L 180.281 128.854 177.391 131.357 L 174.500 133.861 175.722 135.103 L 176.944 136.344 182.722 135.149 C 185.900 134.492, 189.082 133.889, 189.793 133.810 C 190.504 133.731, 190.842 133.030, 190.543 132.252 C 190.244 131.473, 190 129.973, 190 128.918 C 190 126.627, 189.055 126.501, 186.441 128.441 M 109 130.639 C 109 130.888, 110.101 132.192, 111.446 133.537 C 113.931 136.022, 116.216 135.170, 114.053 132.564 C 112.962 131.249, 109 129.740, 109 130.639 M 183.229 132.188 C 183.447 132.841, 184.160 133.553, 184.813 133.771 C 185.544 134.015, 185.767 133.557, 185.394 132.584 C 184.696 130.766, 182.629 130.388, 183.229 132.188 M 69 134.889 C 69 135.378, 69.828 136.801, 70.841 138.052 L 72.681 140.325 73.400 139.162 C 73.795 138.523, 73.572 138, 72.904 138 C 72.151 138, 72.377 137.241, 73.500 136 L 75.310 134 72.155 134 C 70.420 134, 69 134.400, 69 134.889 M 62.500 136 C 62.840 136.550, 63.316 137, 63.559 137 C 63.802 137, 64 136.550, 64 136 C 64 135.450, 63.523 135, 62.941 135 C 62.359 135, 62.160 135.450, 62.500 136 M 162.750 135.728 C 160.499 135.964, 159 136.651, 159 137.447 C 159 138.696, 154.990 139.672, 146.154 140.574 C 144.313 140.761, 142.288 141.325, 141.654 141.827 C 141.019 142.329, 138.706 143.063, 136.513 143.459 L 132.525 144.180 134.454 145.590 C 135.514 146.365, 137.646 147, 139.191 147 C 140.736 147, 142 147.375, 142 147.833 C 142 148.767, 142.346 148.847, 149.827 149.639 L 155.155 150.203 157.327 148.191 C 158.522 147.084, 161.353 145.687, 163.618 145.086 C 165.883 144.486, 169.258 142.635, 171.118 140.974 L 174.500 137.955 172.559 136.477 C 170.636 135.014, 170.027 134.967, 162.750 135.728 M 185.830 137.409 C 184.362 138.028, 182.021 139.764, 180.628 141.267 C 179.235 142.770, 177.512 144.045, 176.798 144.100 C 176.084 144.156, 177.256 144.613, 179.403 145.117 L 183.307 146.032 185.153 144.361 C 186.169 143.442, 187 141.950, 187 141.045 C 187 140.140, 187.532 138.868, 188.183 138.217 C 189.919 136.481, 188.878 136.124, 185.830 137.409 M 200.079 137.583 C 200.127 138.748, 200.364 138.985, 200.683 138.188 C 200.972 137.466, 200.936 136.603, 200.604 136.271 C 200.272 135.939, 200.036 136.529, 200.079 137.583 M 60.237 140.240 C 60.931 141.722, 61.665 142.455, 61.866 141.869 C 62.067 141.283, 61.499 140.070, 60.603 139.174 L 58.973 137.545 60.237 140.240 M 84.750 138.662 C 85.438 138.940, 86.563 138.940, 87.250 138.662 C 87.938 138.385, 87.375 138.158, 86 138.158 C 84.625 138.158, 84.063 138.385, 84.750 138.662 M 189 142 L 186.959 146 188.819 146 C 190.646 146, 193 142.313, 193 139.453 C 193 136.742, 191.049 137.984, 189 142 M 175.726 140.940 L 175.218 142.880 177.109 141.700 C 179.330 140.313, 179.577 139, 177.617 139 C 176.856 139, 176.005 139.873, 175.726 140.940 M 103.813 140.683 C 104.534 140.972, 105.397 140.936, 105.729 140.604 C 106.061 140.272, 105.471 140.036, 104.417 140.079 C 103.252 140.127, 103.015 140.364, 103.813 140.683 M 63.541 145.992 L 64.288 148.484 62.802 147.251 C 60.828 145.613, 60 146.623, 60 150.667 L 60 154 62.250 153.921 C 63.639 153.872, 63.958 153.628, 63.084 153.282 L 61.668 152.723 65.084 150.903 L 68.500 149.084 66.691 149.042 C 65.696 149.019, 65.094 148.658, 65.352 148.239 C 65.611 147.820, 65.141 146.583, 64.308 145.489 L 62.793 143.500 63.541 145.992 M 102.269 145.693 C 103.242 145.947, 104.592 145.930, 105.269 145.656 C 105.946 145.382, 105.150 145.175, 103.500 145.195 C 101.850 145.215, 101.296 145.439, 102.269 145.693 M 88.733 147.124 C 89.412 147.808, 90.219 148.115, 90.526 147.807 C 90.834 147.499, 90.279 146.940, 89.293 146.564 L 87.500 145.882 88.733 147.124 M 92 146.800 C 92 147.460, 92.450 148, 93 148 C 93.550 148, 94 148.730, 94 149.622 L 94 151.245 92.476 149.980 C 90.691 148.499, 89.764 149, 90.897 150.833 C 91.578 151.934, 103.915 154.419, 104.718 153.616 C 104.879 153.455, 103.981 152.125, 102.723 150.662 L 100.436 148 97.418 148 C 95.758 148, 93.860 147.460, 93.200 146.800 L 92 145.600 92 146.800 M 111.592 148.366 L 112.303 150.233 110.212 149.114 C 107.277 147.542, 106.730 149.144, 109.495 151.216 L 111.785 152.931 112.360 150.733 C 112.676 149.524, 112.473 148.077, 111.908 147.517 L 110.882 146.500 111.592 148.366 M 159.655 148.829 C 156.891 151.883, 159.486 154.059, 167.500 155.404 C 169.700 155.773, 173.447 157.047, 175.827 158.234 L 180.153 160.393 181.767 159.375 C 182.655 158.815, 183.576 157.714, 183.815 156.929 L 184.250 155.500 182.925 156.750 C 182.196 157.438, 180.902 157.986, 180.050 157.970 L 178.500 157.939 180.208 156.943 C 181.148 156.395, 181.664 155.288, 181.355 154.482 C 181.039 153.660, 181.496 152.747, 182.396 152.401 C 183.278 152.063, 184 151.398, 184 150.924 C 184 150.451, 183.325 150.322, 182.500 150.638 C 181.567 150.996, 181 150.632, 181 149.674 C 181 148.828, 180.100 147.849, 179 147.500 C 176.536 146.718, 172.762 147.806, 173.544 149.072 C 174.417 150.484, 170.821 150.113, 168 148.500 C 164.569 146.538, 161.623 146.654, 159.655 148.829 M 175.276 150.395 C 174.849 151.116, 173.825 151.962, 173 152.274 L 171.500 152.842 173.559 152.921 C 174.691 152.964, 176.442 152.397, 177.449 151.661 L 179.281 150.322 177.667 149.702 C 176.779 149.362, 175.703 149.673, 175.276 150.395 M 119 151.500 C 119 152.325, 118.325 153, 117.500 153 C 115.648 153, 115.647 153.218, 117.479 157.604 C 118.421 159.859, 119.385 160.880, 120.134 160.417 L 121.309 159.691 120.514 160.977 L 119.720 162.262 116.429 158.381 L 113.138 154.500 111.374 156.636 L 109.610 158.771 107.055 156.974 C 105.571 155.930, 101.839 154.942, 98.151 154.616 L 91.801 154.056 93.043 155.552 C 95.403 158.396, 93.346 157.967, 90.289 154.978 L 87.222 151.980 86.647 153.476 C 86.331 154.300, 87.069 156.086, 88.286 157.445 L 90.500 159.917 94.855 160.523 L 99.211 161.128 102.675 159.484 C 106.713 157.568, 109.445 158.192, 108.744 160.870 C 107.561 165.396, 111.785 167.271, 117.685 164.840 C 119.233 164.201, 121.028 163.763, 121.674 163.866 C 123.301 164.125, 124.505 159.930, 123.060 159.037 L 121.905 158.323 123.453 157.039 C 125.496 155.343, 125.413 153.034, 123.250 151.392 C 120.906 149.613, 119 149.661, 119 151.500 M 135.552 150.916 C 134.960 151.874, 145.343 161.274, 147.349 161.597 C 147.982 161.699, 150.264 162.121, 152.420 162.534 L 156.340 163.286 154.061 160.086 C 151.306 156.216, 151.897 155.301, 156.045 157.018 L 159.153 158.306 158.670 160.153 C 157.805 163.462, 159.481 162.096, 160.575 158.600 L 161.639 155.201 158.069 154.119 C 144.187 149.911, 136.820 148.864, 135.552 150.916 M 193.649 153.018 C 192.638 154.729, 191.389 155.740, 190.763 155.354 C 190.076 154.929, 189.878 155.239, 190.238 156.177 C 190.952 158.039, 190.257 159.065, 186.782 161.275 C 185.155 162.310, 184.285 163.578, 184.613 164.434 L 185.161 165.863 188.081 163.073 C 189.686 161.539, 191 159.840, 191 159.297 C 191 158.755, 192.124 157.004, 193.499 155.406 C 194.873 153.807, 195.998 151.938, 195.999 151.250 C 196.001 149.397, 195.617 149.686, 193.649 153.018 M 68.250 152.689 C 70.611 153.306, 70.452 154.449, 67.750 156.285 L 65.500 157.815 67.328 158.544 C 68.467 158.999, 69.727 158.701, 70.675 157.753 L 72.195 156.233 71.062 154.117 C 70.439 152.952, 69.158 152.052, 68.215 152.116 L 66.500 152.232 68.250 152.689 M 126.606 154.537 C 124.648 156.495, 124.535 158, 126.345 158 C 127.085 158, 128.547 158.977, 129.595 160.172 C 130.643 161.366, 130.960 162.029, 130.300 161.644 C 129.606 161.239, 128.643 161.798, 128.015 162.972 L 126.930 165 129.087 165 L 131.245 165 129.872 166.687 L 128.500 168.374 130.250 167.719 L 132 167.063 132 168.590 C 132 169.431, 132.435 169.849, 132.967 169.520 C 133.998 168.883, 133.360 164.125, 131.691 160 C 131.135 158.625, 130.757 156.998, 130.853 156.383 C 130.948 155.769, 130.393 154.741, 129.619 154.099 L 128.212 152.931 126.606 154.537 M 74 155 C 74 155.550, 74.477 156, 75.059 156 C 75.641 156, 75.840 155.550, 75.500 155 C 75.160 154.450, 74.684 154, 74.441 154 C 74.198 154, 74 154.450, 74 155 M 162.452 159.093 C 161.572 160.794, 160.998 162.286, 161.176 162.409 C 161.354 162.532, 163.054 163.357, 164.953 164.243 L 168.406 165.853 170.324 164.827 C 171.517 164.188, 172.011 164.173, 171.632 164.786 C 171.297 165.328, 172.154 165.987, 173.536 166.252 C 174.917 166.516, 176.289 166.342, 176.583 165.866 C 176.877 165.390, 176.586 165, 175.937 165 L 174.755 165 175.964 163.544 C 177.608 161.562, 176.507 160.134, 171.627 157.918 C 165.905 155.320, 164.297 155.525, 162.452 159.093 M 65.038 162.363 C 64.323 163.539, 64.081 164.178, 64.500 163.785 C 65.516 162.833, 69.208 164.855, 68.512 165.981 C 68.212 166.465, 68.394 167.125, 68.915 167.447 C 71.055 168.770, 71.174 165.559, 69.048 163.838 L 66.778 162 68.556 162 C 69.533 162, 70.020 161.687, 69.638 161.304 C 68.195 159.862, 66.295 160.300, 65.038 162.363 M 73 163 C 73 163.550, 73.648 164, 74.441 164 C 75.234 164, 76.160 163.550, 76.500 163 C 76.840 162.450, 76.191 162, 75.059 162 C 73.927 162, 73 162.450, 73 163 M 94 162.732 C 94 163.206, 95.776 165.328, 97.946 167.447 L 101.892 171.301 104.446 169.627 C 107.122 167.874, 107.834 164.634, 105.818 163.387 C 104.049 162.294, 94 161.737, 94 162.732 M 142.872 164.663 L 141.500 166.325 142.756 166.748 C 143.447 166.981, 143.758 167.582, 143.447 168.085 C 143.136 168.588, 143.359 169, 143.941 169 C 144.523 169, 145.014 168.213, 145.030 167.250 L 145.061 165.500 146.254 167.500 C 147.750 170.006, 147.849 171.055, 146.793 173.227 L 145.954 174.955 147.250 174.458 C 148.031 174.158, 149.027 175.233, 149.756 177.164 C 150.421 178.926, 151.281 180.053, 151.666 179.667 C 152.051 179.282, 151.834 178.434, 151.183 177.783 C 149.465 176.065, 149.730 175, 151.878 175 C 152.911 175, 154.484 176.012, 155.375 177.250 L 156.993 179.500 155.552 176 C 154.760 174.075, 153.835 170.784, 153.498 168.686 C 152.772 164.167, 150.499 164.192, 150.502 168.719 C 150.505 172.309, 148.565 172.097, 148.356 168.484 C 148.037 162.993, 145.634 161.318, 142.872 164.663 M 64.379 166.399 C 65.564 167.352, 66.060 168.663, 65.722 169.954 C 65.391 171.221, 65.670 172, 66.455 172 L 67.723 172 67.239 169.470 C 66.973 168.078, 65.798 166.478, 64.628 165.915 L 62.500 164.890 64.379 166.399 M 118.160 166.750 C 117.659 167.713, 117.043 171.088, 116.792 174.250 L 116.335 180 117.918 180.032 C 118.788 180.049, 120.374 180.724, 121.441 181.532 C 123.175 182.843, 127 183.593, 127 182.622 C 127 182.414, 126.325 180.629, 125.500 178.654 C 124.675 176.680, 124 173.512, 124 171.614 C 124 165.311, 120.448 162.353, 118.160 166.750 M 110.697 168.446 C 109.902 169.241, 107.732 170.513, 105.876 171.272 L 102.500 172.652 106.666 175.286 C 108.957 176.734, 111.142 178.420, 111.520 179.033 L 112.209 180.147 113.455 178.323 C 114.141 177.321, 114.985 174.363, 115.332 171.750 L 115.962 167 114.052 167 C 113.002 167, 111.492 167.651, 110.697 168.446 M 157.566 169.898 C 156.396 170.356, 156.055 170.916, 156.703 171.316 C 157.292 171.680, 158.329 171.308, 159.009 170.489 C 160.379 168.839, 160.326 168.817, 157.566 169.898 M 182 170.441 C 182 171.234, 182.408 172.134, 182.907 172.442 C 183.405 172.751, 183.578 172.102, 183.290 171.001 C 182.679 168.666, 182 168.371, 182 170.441 M 159.128 171.868 L 156.756 173.692 158.441 174.339 C 159.368 174.695, 159.823 175.477, 159.452 176.077 L 158.778 177.168 161.139 176.834 C 162.438 176.650, 163.387 176.162, 163.250 175.750 C 163.113 175.338, 163 173.875, 163 172.500 C 163 169.539, 162.305 169.426, 159.128 171.868 M 168.625 170.798 C 167.834 172.077, 169.668 174.323, 170.888 173.569 C 171.507 173.187, 172 173.519, 172 174.319 C 172 175.109, 172.635 176.282, 173.411 176.926 L 174.822 178.097 175.470 177.049 C 175.826 176.472, 177.104 175.986, 178.309 175.970 L 180.500 175.939 178.698 174.891 L 176.895 173.842 175.198 175.138 C 174.264 175.851, 173.842 176.032, 174.259 175.541 C 174.677 175.050, 174.036 173.602, 172.835 172.324 C 170.536 169.877, 169.440 169.480, 168.625 170.798 M 134 171.409 C 134 171.599, 134.675 172.315, 135.500 173 C 136.365 173.718, 137 173.815, 137 173.229 C 137 172.671, 136.325 171.955, 135.500 171.638 C 134.675 171.322, 134 171.219, 134 171.409 M 93 174 C 92.099 174.582, 91.975 174.975, 92.691 174.985 C 93.346 174.993, 94.160 174.550, 94.500 174 C 95.267 172.758, 94.921 172.758, 93 174 M 127.075 174.410 C 125.735 176.024, 126.300 179.060, 128.627 182.750 C 130.511 185.737, 131.621 185.588, 132.351 182.250 C 132.681 180.738, 133.240 178.488, 133.593 177.250 L 134.233 175 132.317 175 C 131.262 175, 129.931 174.531, 129.358 173.958 L 128.315 172.915 127.075 174.410 M 182.158 176 C 182.158 177.375, 182.385 177.938, 182.662 177.250 C 182.940 176.563, 182.940 175.438, 182.662 174.750 C 182.385 174.063, 182.158 174.625, 182.158 176 M 95.500 178 C 95.160 178.550, 95.359 179, 95.941 179 C 96.523 179, 97 178.550, 97 178 C 97 177.450, 96.802 177, 96.559 177 C 96.316 177, 95.840 177.450, 95.500 178 M 97.079 181.583 C 97.127 182.748, 97.364 182.985, 97.683 182.188 C 97.972 181.466, 97.936 180.603, 97.604 180.271 C 97.272 179.939, 97.036 180.529, 97.079 181.583 M 180 182.059 C 180 183.191, 180.450 183.840, 181 183.500 C 181.550 183.160, 182 182.234, 182 181.441 C 182 180.648, 181.550 180, 181 180 C 180.450 180, 180 180.927, 180 182.059 M 154.496 184.007 C 154.153 184.561, 154.596 185.292, 155.480 185.631 C 157.394 186.365, 158.461 185.556, 157.541 184.067 C 156.711 182.723, 155.306 182.696, 154.496 184.007 M 113.200 185.200 C 111.389 187.011, 111.759 189, 113.906 189 L 115.813 189 115.246 191.169 L 114.679 193.337 116.339 192.700 C 117.253 192.350, 118 192.525, 118 193.090 C 118 193.656, 118.508 193.804, 119.128 193.421 L 120.257 192.723 118.628 191.812 C 117.615 191.245, 117 189.598, 117 187.450 C 117 183.867, 115.451 182.949, 113.200 185.200 M 100.459 187.067 C 99.433 188.727, 100.354 188.957, 101.789 187.399 C 102.499 186.630, 102.638 186, 102.098 186 C 101.559 186, 100.821 186.480, 100.459 187.067 M 121.600 188.600 C 121.244 189.527, 121.178 190.511, 121.453 190.786 C 121.728 191.061, 122.244 190.527, 122.600 189.600 C 122.956 188.673, 123.022 187.689, 122.747 187.414 C 122.472 187.139, 121.956 187.673, 121.600 188.600 M 103.070 189.857 L 103 192.214 104.449 191.658 C 105.325 191.322, 106.142 191.872, 106.516 193.051 C 107.611 196.501, 113.099 194.788, 112.930 191.050 L 112.859 189.500 112 191.500 L 111.141 193.500 111.070 191.309 C 111.032 190.104, 110.480 188.797, 109.845 188.405 C 109.130 187.962, 108.962 188.130, 109.405 188.845 C 109.799 189.484, 109.533 190.052, 108.809 190.115 C 108.089 190.179, 106.825 190.291, 106 190.365 C 105.175 190.439, 104.194 189.825, 103.820 189 L 103.141 187.500 103.070 189.857 M 126.195 192.500 C 126.215 194.150, 126.439 194.704, 126.693 193.731 C 126.947 192.758, 126.930 191.408, 126.656 190.731 C 126.382 190.054, 126.175 190.850, 126.195 192.500 M 158.208 190.732 L 156.917 191.194 158.081 192.597 C 159.586 194.411, 161 194.392, 161 192.559 C 161 190.806, 159.940 190.113, 158.208 190.732 M 120.500 194 C 120.160 194.550, 120.557 195, 121.382 195 C 122.207 195, 123.160 194.550, 123.500 194 C 123.840 193.450, 123.443 193, 122.618 193 C 121.793 193, 120.840 193.450, 120.500 194 M 121.813 196.683 C 122.534 196.972, 123.397 196.936, 123.729 196.604 C 124.061 196.272, 123.471 196.036, 122.417 196.079 C 121.252 196.127, 121.015 196.364, 121.813 196.683" stroke="none" fill="#68b7dc" fill-rule="evenodd"/><path d="M 168.651 25.238 C 168.991 27.331, 168.773 29.022, 168.110 29.432 C 167.500 29.809, 167 29.702, 167 29.194 C 167 28.686, 166.100 27.126, 165.001 25.728 L 163.002 23.187 160.973 23.717 L 158.944 24.248 159.555 26.172 C 160.246 28.351, 158.292 31.298, 156.776 30.362 C 155.519 29.585, 151.084 34.907, 151.036 37.250 C 151.016 38.212, 150.100 39.900, 149 41 C 147.900 42.100, 147 43.585, 147 44.300 C 147 45.015, 146.438 46.159, 145.750 46.843 C 145.063 47.527, 143.768 50.204, 142.872 52.793 C 141.977 55.382, 140.740 57.387, 140.122 57.250 C 139.505 57.112, 139 58.152, 139 59.559 C 139 61.010, 139.433 61.851, 140 61.500 C 141.326 60.681, 141.266 62.321, 139.858 65.412 L 138.716 67.918 136.772 66.878 C 135.703 66.306, 134.580 66.087, 134.276 66.391 C 133.448 67.219, 139.010 69.112, 140.168 68.396 C 140.756 68.033, 141.031 68.751, 140.834 70.139 L 140.500 72.500 137.500 72.156 C 132.742 71.610, 132.546 71.554, 131.656 70.500 C 131.179 69.935, 131.102 70.370, 131.480 71.500 C 132.595 74.838, 132.554 75.511, 131.250 75.250 C 130.550 75.110, 129.993 75.989, 129.985 77.250 L 129.969 79.500 129.116 78.154 L 128.263 76.807 127.127 80.066 C 126.502 81.858, 126.177 83.510, 126.404 83.738 C 126.631 83.965, 127.114 83.217, 127.476 82.075 C 127.838 80.934, 128.609 80, 129.189 80 C 129.799 80, 129.613 80.950, 128.750 82.250 C 127.928 83.488, 126.861 84.507, 126.378 84.515 C 125.895 84.524, 124.938 84.888, 124.250 85.324 C 123.563 85.761, 122.542 85.835, 121.983 85.490 C 121.424 85.144, 121.749 86.503, 122.706 88.510 C 123.664 90.518, 124.618 91.646, 124.827 91.019 L 125.207 89.878 126.969 91.472 L 128.730 93.066 128.379 96.083 C 128.168 97.891, 128.423 98.857, 129.014 98.492 C 130.504 97.571, 130.135 100.237, 128.468 102.441 C 127.661 103.509, 127 105.277, 127 106.370 C 127 107.463, 126.581 109.740, 126.069 111.429 C 125.558 113.118, 124.663 119.407, 124.081 125.405 C 122.874 137.857, 122.737 138.169, 119.859 135.079 L 117.739 132.804 116.885 134.152 L 116.031 135.500 115.985 134 L 115.939 132.500 114.921 134.247 L 113.904 135.995 111.452 133.543 C 108.552 130.643, 108.363 129.858, 110.750 130.626 L 112.500 131.189 111.008 130.136 C 110.188 129.557, 108.495 129.340, 107.247 129.653 L 104.977 130.222 105.545 128.743 C 106.209 127.012, 103.387 125.987, 100.627 126.956 L 98.785 127.602 103.143 130.833 C 105.539 132.610, 109.647 135.653, 112.271 137.594 C 117.278 141.298, 117.608 143, 113.319 143 L 110.755 143 112.019 141.477 L 113.283 139.954 111.641 140.584 C 110.739 140.931, 110 141.616, 110 142.107 C 110 143.651, 102.235 143.093, 100.571 141.429 C 99.707 140.564, 99 140.339, 99 140.929 C 99 141.518, 98.051 142, 96.892 142 L 94.783 142 95.404 139.527 L 96.025 137.053 94.518 137.631 C 93.689 137.949, 93.260 138.612, 93.565 139.105 C 93.869 139.597, 93.218 140, 92.118 140 C 91.018 140, 89.797 139.480, 89.405 138.845 L 88.691 137.691 90.095 138.492 L 91.500 139.293 90.258 137.954 C 89.574 137.218, 87.403 136.533, 85.433 136.433 C 83.462 136.332, 81.333 135.733, 80.700 135.100 L 79.550 133.950 85.203 134.187 C 88.312 134.317, 90.609 134.823, 90.307 135.312 C 90.006 135.800, 90.605 135.746, 91.640 135.193 C 93.776 134.050, 99 134.747, 99 136.176 C 99 136.694, 99.437 136.848, 99.971 136.518 C 100.504 136.188, 102.346 136.645, 104.064 137.533 C 105.781 138.421, 107.372 138.962, 107.599 138.735 C 107.826 138.507, 104.072 136.574, 99.256 134.439 C 94.440 132.303, 88.975 129.531, 87.110 128.278 C 85.246 127.025, 83.221 125.999, 82.610 125.998 C 81.318 125.995, 75 120.783, 75 119.720 C 75 119.324, 76.896 119, 79.212 119 L 83.424 119 79.962 115.890 L 76.500 112.781 81 116.195 C 83.475 118.073, 87.609 120.825, 90.188 122.310 L 94.875 125.011 95.538 123.939 C 95.902 123.349, 95.930 122.597, 95.600 122.267 C 95.270 121.937, 95 122.247, 95 122.956 L 95 124.245 93.500 123 C 91.517 121.355, 91.607 120.393, 93.964 118.036 C 95.060 116.940, 95.501 115.810, 94.964 115.477 C 94.434 115.150, 94 115.359, 94 115.941 C 94 116.523, 93.624 117, 93.164 117 C 91.951 117, 82.879 109.788, 83.416 109.251 C 83.862 108.805, 85.275 109.804, 89.072 113.250 C 90.132 114.213, 91 114.603, 91 114.119 C 91 113.030, 83.771 107.418, 82.786 107.741 C 82.393 107.870, 82.329 107.306, 82.643 106.488 C 82.975 105.624, 82.645 104.994, 81.857 104.985 L 80.500 104.969 82 104 L 83.500 103.031 82 103.029 C 79.250 103.026, 76.016 104.217, 76.528 105.045 C 78.371 108.027, 72.623 105.998, 56.720 98.050 L 38.500 88.944 32.500 87.978 C 22.106 86.304, 11.266 87.355, 18.750 89.311 L 20.500 89.768 18.143 89.884 L 15.786 90 16.405 91.614 L 17.024 93.227 13.590 92.583 C 11.701 92.229, 9.908 92.340, 9.605 92.830 C 8.552 94.534, 16.802 100.791, 21.049 101.508 C 23.299 101.888, 25.373 102.809, 25.659 103.554 C 26.256 105.109, 34.998 109.620, 36.500 109.148 C 37.050 108.975, 37.166 109.167, 36.759 109.575 C 35.780 110.553, 37.817 112.959, 39.323 112.604 C 39.970 112.452, 40.157 112.518, 39.738 112.751 C 39.319 112.984, 41.817 116.398, 45.289 120.337 C 55.530 131.958, 62.197 141.044, 61.609 142.577 C 61.301 143.378, 61.658 144, 62.424 144 C 63.739 144, 65.484 146.713, 65.159 148.250 C 65.071 148.662, 65.788 149.019, 66.750 149.042 L 68.500 149.084 65 151.092 L 61.500 153.100 65.712 152.545 L 69.924 151.989 71.031 154.058 L 72.139 156.128 70.947 157.564 C 70.291 158.354, 69.135 159, 68.378 159 C 67.620 159, 67 159.477, 67 160.059 C 67 160.641, 67.419 160.859, 67.931 160.543 C 68.443 160.226, 69.144 160.425, 69.490 160.984 C 69.835 161.543, 69.367 162, 68.448 162 L 66.778 162 69.048 163.838 C 71.174 165.559, 71.055 168.770, 68.915 167.447 C 68.394 167.125, 68.212 166.465, 68.512 165.981 C 68.811 165.497, 68.171 164.627, 67.089 164.047 L 65.121 162.995 64.420 164.129 C 64.035 164.753, 64.457 165.676, 65.360 166.181 C 66.262 166.686, 67 168.013, 67 169.129 L 67 171.159 70.010 170.498 C 71.666 170.134, 74.435 169.131, 76.163 168.269 L 79.307 166.701 84.403 167.993 C 87.207 168.704, 90.773 170.348, 92.330 171.646 L 95.160 174.005 92.992 174.807 L 90.824 175.609 92.399 176.916 C 93.266 177.635, 94.628 177.973, 95.428 177.666 L 96.881 177.108 98.098 182.546 L 99.315 187.984 100.734 186.806 L 102.152 185.629 103.061 187.064 C 103.561 187.854, 103.976 188.987, 103.985 189.583 C 103.993 190.178, 105.012 190.553, 106.250 190.416 C 107.487 190.279, 108.864 190.129, 109.309 190.083 C 109.754 190.037, 109.797 189.480, 109.405 188.845 C 108.962 188.130, 109.130 187.962, 109.845 188.405 C 110.480 188.797, 111 190.066, 111 191.226 C 111 194.517, 112.148 192.550, 112.334 188.940 C 112.698 181.876, 116.886 182.411, 117.156 189.555 C 117.258 192.260, 117.528 193.917, 117.754 193.237 C 118.442 191.174, 119.664 191.852, 119.579 194.250 L 119.500 196.500 121.750 196.187 C 122.987 196.015, 124 196.353, 124 196.937 C 124 197.522, 124.450 198, 125 198 C 125.550 198, 126 196.144, 126 193.875 L 126 189.750 128.877 190.325 C 133.324 191.215, 134.850 189.314, 135.937 181.530 L 136.912 174.560 135.469 172.966 C 134.632 172.041, 134.394 170.980, 134.902 170.436 C 135.406 169.897, 135.162 167.441, 134.327 164.644 C 132.616 158.912, 131.722 158.832, 133.006 164.527 C 133.558 166.975, 133.537 168.863, 132.951 169.449 C 132.350 170.050, 132 169.786, 132 168.731 L 132 167.063 130.250 167.719 L 128.500 168.374 129.872 166.687 L 131.245 165 129.087 165 L 126.930 165 128.015 162.972 C 128.643 161.798, 129.606 161.239, 130.300 161.644 C 130.960 162.029, 130.643 161.366, 129.595 160.172 C 128.547 158.977, 127.085 158, 126.345 158 C 124.541 158, 124.646 156.497, 126.587 154.556 L 128.174 152.969 131.989 155.991 C 134.087 157.653, 137.146 160.541, 138.786 162.409 L 141.767 165.804 143.306 164.265 C 146.211 161.360, 148.458 163.811, 148.279 169.690 C 148.259 170.344, 148.778 171.085, 149.433 171.336 L 150.623 171.793 150.215 169.015 C 149.315 162.878, 152.733 163.912, 153.843 170.112 L 154.628 174.500 155.347 172.358 C 155.743 171.180, 156.993 169.974, 158.125 169.678 L 160.184 169.139 158.342 171.280 L 156.500 173.422 159.215 171.711 C 162.731 169.495, 162.796 169.511, 163.268 172.750 L 163.670 175.500 164.460 172.250 C 165.179 169.292, 168 167.546, 168 170.059 C 168 170.641, 168.483 170.819, 169.074 170.454 C 170.494 169.576, 175.127 173.976, 174.277 175.395 C 173.914 176.003, 174.354 175.902, 175.256 175.171 L 176.895 173.842 178.698 174.891 L 180.500 175.939 178.372 175.970 C 176.116 176.002, 173.592 178.259, 174.640 179.307 C 174.983 179.649, 176.161 179.449, 177.259 178.862 L 179.254 177.794 180.073 179.118 C 181.392 181.252, 182.100 179.586, 182.226 174.049 L 182.344 168.873 185.073 167.462 C 187.740 166.083, 195.073 157.981, 198.162 153 C 204.919 142.105, 204.690 115.418, 197.787 109.368 L 195.656 107.500 196.500 109 C 197.034 109.950, 196.547 109.801, 195.172 108.595 C 192.977 106.670, 192.237 105.410, 193.907 106.442 C 194.405 106.751, 194.578 106.102, 194.290 105.001 L 193.767 103 195.633 102.970 L 197.500 102.939 195.750 101.920 C 193.284 100.484, 193.574 99.324, 196.588 98.567 L 199.177 97.918 198.050 96.561 C 197.431 95.815, 196.742 94.258, 196.520 93.102 L 196.115 91 198.116 91 C 199.217 91, 199.866 90.593, 199.559 90.095 C 199.251 89.598, 197.160 89.437, 194.911 89.739 L 190.823 90.287 191.162 87.937 L 191.500 85.587 196 84.392 C 198.475 83.734, 199.686 83.152, 198.691 83.098 C 197.696 83.044, 197.165 82.543, 197.510 81.984 C 197.856 81.425, 198.670 81.286, 199.319 81.676 C 199.971 82.067, 199.876 81.615, 199.107 80.668 C 198.342 79.724, 198.004 78.663, 198.357 78.309 C 198.711 77.956, 199 78.144, 199 78.726 C 199 79.309, 199.600 80.016, 200.333 80.298 L 201.667 80.809 201.667 77.794 L 201.667 74.779 196.007 75.420 L 190.348 76.060 189.137 73.401 C 187.472 69.748, 188.338 69.343, 190.886 72.582 C 192.049 74.060, 193 74.786, 193 74.194 C 193 73.602, 192.511 72.816, 191.913 72.446 C 191.315 72.077, 191.048 70.925, 191.319 69.887 C 191.591 68.849, 191.405 68, 190.906 68 C 190.408 68, 189.986 67.213, 189.968 66.250 L 189.936 64.500 188.535 66.350 C 186.502 69.033, 184.934 67.481, 185.579 63.424 L 186.131 59.949 183.901 56.340 L 181.670 52.730 180.335 54.556 L 179 56.382 178.985 54.941 L 178.969 53.500 178.117 54.845 L 177.265 56.190 176.551 53.346 L 175.837 50.502 174.558 52.251 C 173.140 54.191, 171 54.596, 171 52.926 C 171 52.335, 172.795 51.097, 174.990 50.176 L 178.980 48.500 179.093 46 C 179.464 37.853, 178.625 27.175, 177.444 25.006 C 176.623 23.497, 176.051 23.097, 176.008 24 L 175.936 25.500 174.516 23.625 C 172.964 21.575, 169.434 22.120, 170.511 24.243 C 170.861 24.934, 170.458 24.652, 169.615 23.615 L 168.082 21.730 168.651 25.238 M 156.987 38.025 C 156.355 39.205, 156.061 40.394, 156.333 40.667 C 157.194 41.527, 161.139 38.917, 160.748 37.745 C 160.068 35.704, 158.152 35.847, 156.987 38.025 M 164.611 37.877 C 162.470 40.243, 163.804 41.348, 166.457 39.408 L 168.393 37.993 167.373 36.973 L 166.353 35.953 164.611 37.877 M 152.980 41.524 C 152.284 42.362, 151.968 43.301, 152.276 43.610 C 152.585 43.919, 153.340 43.233, 153.954 42.086 C 155.264 39.638, 154.778 39.358, 152.980 41.524 M 164.655 42.829 C 162.835 44.840, 162.467 47, 163.943 47 C 164.951 47, 168 43.075, 168 41.777 C 168 40.422, 166.369 40.935, 164.655 42.829 M 176.500 42 C 176.160 42.550, 176.359 43, 176.941 43 C 177.523 43, 178 42.550, 178 42 C 178 41.450, 177.802 41, 177.559 41 C 177.316 41, 176.840 41.450, 176.500 42 M 169.952 44.089 L 168.834 46.179 170.656 45.828 C 171.657 45.635, 172.628 44.695, 172.812 43.739 C 173.278 41.318, 171.306 41.560, 169.952 44.089 M 157 46.500 C 157 47.325, 157.436 48, 157.969 48 C 158.501 48, 158.678 47.325, 158.362 46.500 C 158.045 45.675, 157.609 45, 157.393 45 C 157.177 45, 157 45.675, 157 46.500 M 151.580 52.190 C 150.736 53.394, 150.241 54.575, 150.480 54.813 C 151.324 55.657, 153.884 54.086, 154.970 52.056 L 156.070 50 154.592 50 C 153.779 50, 152.423 50.985, 151.580 52.190 M 176.500 51 C 176.840 51.550, 177.316 52, 177.559 52 C 177.802 52, 178 51.550, 178 51 C 178 50.450, 177.523 50, 176.941 50 C 176.359 50, 176.160 50.450, 176.500 51 M 153.534 55.963 C 151.747 57.937, 152.114 61.666, 153.981 60.511 C 154.556 60.156, 154.725 60.552, 154.382 61.448 C 153.145 64.671, 156.167 62.844, 157.551 59.532 C 159.975 53.732, 157.524 51.554, 153.534 55.963 M 144.035 62.934 C 142.596 65.623, 142.715 66, 145 66 L 147 66 147 63.500 C 147 60.523, 145.481 60.233, 144.035 62.934 M 159.512 62.987 L 157.647 65.047 158.750 66.150 C 159.376 66.776, 160.995 66.967, 162.492 66.591 L 165.130 65.929 164.815 63.725 C 164.396 60.793, 161.822 60.434, 159.512 62.987 M 178.079 62.583 C 178.127 63.748, 178.364 63.985, 178.683 63.188 C 178.972 62.466, 178.936 61.603, 178.604 61.271 C 178.272 60.939, 178.036 61.529, 178.079 62.583 M 148.080 64.851 C 146.432 67.931, 146.770 69, 149.393 69 C 152.510 69, 153.362 66.638, 151.012 64.511 L 149.159 62.834 148.080 64.851 M 170.500 64 C 170.160 64.550, 170.148 65.430, 170.473 65.956 C 171.296 67.287, 174 66.089, 174 64.393 C 174 62.794, 171.424 62.505, 170.500 64 M 178.500 68 C 178.840 68.550, 179.316 69, 179.559 69 C 179.802 69, 180 68.550, 180 68 C 180 67.450, 179.523 67, 178.941 67 C 178.359 67, 178.160 67.450, 178.500 68 M 167 70.500 C 166.293 71.352, 165.940 72.273, 166.215 72.548 C 166.490 72.823, 167.293 72.352, 168 71.500 C 168.707 70.648, 169.060 69.727, 168.785 69.452 C 168.510 69.177, 167.707 69.648, 167 70.500 M 171.500 72 C 171.160 72.550, 171.584 73, 172.441 73 C 173.298 73, 174 72.550, 174 72 C 174 71.450, 173.577 71, 173.059 71 C 172.541 71, 171.840 71.450, 171.500 72 M 176 75 C 176 75.550, 176.450 76, 177 76 C 177.550 76, 178 75.550, 178 75 C 178 74.450, 177.550 74, 177 74 C 176.450 74, 176 74.450, 176 75 M 159.819 75.981 C 156.387 77.017, 151 82.501, 151 84.959 L 151 86.849 155.942 83.675 C 158.660 81.929, 160.910 79.802, 160.942 78.950 C 160.974 78.098, 161.540 76.860, 162.200 76.200 C 163.542 74.858, 163.542 74.858, 159.819 75.981 M 146.655 78.829 C 145.745 79.835, 145 81.420, 145 82.352 L 145 84.046 147.500 82.408 C 148.875 81.507, 150 79.922, 150 78.885 C 150 76.503, 148.778 76.482, 146.655 78.829 M 193.500 80 C 193.160 80.550, 193.359 81, 193.941 81 C 194.523 81, 195 80.550, 195 80 C 195 79.450, 194.802 79, 194.559 79 C 194.316 79, 193.840 79.450, 193.500 80 M 139.667 80.667 C 138.729 81.604, 138.834 85, 139.800 85 C 141.046 85, 143 82.741, 143 81.300 C 143 79.938, 140.812 79.522, 139.667 80.667 M 171.473 83.748 C 172.327 87.150, 172.774 87.626, 173.984 86.416 C 175.337 85.063, 174.055 81, 172.275 81 L 170.783 81 171.473 83.748 M 130 83.559 C 130 84.416, 130.450 84.840, 131 84.500 C 131.550 84.160, 132 83.459, 132 82.941 C 132 82.423, 131.550 82, 131 82 C 130.450 82, 130 82.702, 130 83.559 M 133.070 84.691 C 133.032 85.896, 133.418 87.140, 133.928 87.456 C 134.967 88.098, 136.518 84.184, 135.591 83.258 C 135.266 82.933, 134.968 83.529, 134.930 84.583 L 134.859 86.500 134 84.500 L 133.141 82.500 133.070 84.691 M 167.015 86.691 C 167.024 87.136, 167.467 88.175, 168 89 L 168.969 90.500 168.985 88.809 C 168.993 87.879, 168.550 86.840, 168 86.500 C 167.450 86.160, 167.007 86.246, 167.015 86.691 M 159.511 87.983 C 158.785 89.156, 159.945 96.014, 160.861 95.968 C 161.213 95.951, 162.319 95.315, 163.321 94.556 L 165.142 93.176 163.545 90.088 C 161.912 86.929, 160.589 86.239, 159.511 87.983 M 175.689 89.764 L 173.878 90.170 174.519 93.085 L 175.159 96 173.079 96 C 171.936 96, 170.986 96.563, 170.968 97.250 C 170.949 97.994, 170.380 97.767, 169.564 96.690 C 167.982 94.603, 166.684 95.926, 167.631 98.660 L 168.269 100.500 166.885 98.758 L 165.500 97.015 155.793 103.880 C 147.111 110.020, 141 115.620, 141 117.436 C 141 117.792, 140.161 118.984, 139.135 120.085 C 138.110 121.186, 136.083 124.270, 134.630 126.938 L 131.990 131.789 134.482 131.645 L 136.975 131.500 136.489 129.969 C 136.223 129.127, 136.947 127.777, 138.100 126.969 C 139.252 126.161, 140.551 124.590, 140.986 123.477 C 141.475 122.229, 142.834 121.367, 144.538 121.226 C 147.783 120.958, 150 119.352, 150 117.271 C 150 116.385, 150.585 116.010, 151.449 116.342 C 152.326 116.679, 156.256 114.021, 161.414 109.602 C 166.098 105.589, 171.465 101.254, 173.340 99.969 C 175.215 98.684, 177.423 96.147, 178.246 94.332 L 179.742 91.031 178.621 90.194 C 178.004 89.734, 176.685 89.540, 175.689 89.764 M 30.250 90.766 C 26.431 91.399, 27.769 92.903, 32 92.735 C 34.200 92.647, 36 92.461, 36 92.323 C 36 91.494, 32.149 90.452, 30.250 90.766 M 185.500 91 C 185.160 91.550, 185.359 92, 185.941 92 C 186.523 92, 187 91.550, 187 91 C 187 90.450, 186.802 90, 186.559 90 C 186.316 90, 185.840 90.450, 185.500 91 M 26.991 95.489 C 27.671 96.308, 28.674 96.702, 29.220 96.364 C 29.824 95.991, 29.681 95.413, 28.857 94.890 C 26.700 93.524, 25.641 93.863, 26.991 95.489 M 144.105 95 C 144.013 95.825, 142.812 98.300, 141.437 100.500 L 138.937 104.500 139.406 101.730 C 139.674 100.148, 139.473 99.208, 138.937 99.539 C 138.422 99.857, 138 100.718, 138 101.452 C 138 102.186, 137.325 103.045, 136.500 103.362 C 135.675 103.678, 135 104.865, 135 106 C 135 107.135, 134.353 108.311, 133.563 108.614 C 132.773 108.917, 132.361 109.776, 132.647 110.522 C 132.933 111.268, 132.693 112.693, 132.114 113.689 L 131.061 115.500 131.024 113.500 L 130.987 111.500 129.108 114.350 L 127.229 117.200 127.222 128.144 L 127.215 139.089 128.681 137.294 C 129.488 136.307, 129.863 136.063, 129.515 136.750 C 129.167 137.438, 129.411 138, 130.058 138 C 130.785 138, 131.008 137.142, 130.644 135.750 L 130.054 133.500 136.465 120.500 C 143.124 106.997, 145.491 99.939, 144.723 95.878 C 144.475 94.570, 144.197 94.175, 144.105 95 M 155.250 95.085 C 154.012 95.553, 152.993 96.738, 152.985 97.718 L 152.969 99.500 152.026 98.008 L 151.083 96.517 150.118 97.508 C 148.809 98.852, 145.025 109.007, 145.846 108.972 C 146.206 108.957, 147.850 107.555, 149.500 105.857 C 151.150 104.159, 153.963 101.644, 155.750 100.266 C 160.376 96.702, 160.045 93.273, 155.250 95.085 M 33 95.999 C 33 97.116, 37.964 99.370, 38.732 98.602 C 38.981 98.352, 37.794 97.428, 36.093 96.548 C 34.280 95.611, 33 95.383, 33 95.999 M 154.756 96.687 C 155.447 96.953, 155.758 97.582, 155.447 98.085 C 154.598 99.459, 155.601 99.185, 156.827 97.709 L 157.898 96.418 155.699 96.311 C 154.490 96.252, 154.065 96.421, 154.756 96.687 M 30 97.893 C 30 98.950, 32.483 100.014, 34.832 99.965 L 36.500 99.929 34 98.500 C 31.068 96.824, 30 96.662, 30 97.893 M 40.425 97.879 C 40.724 98.363, 41.988 99.016, 43.234 99.330 L 45.500 99.901 43.559 98.450 C 41.409 96.844, 39.580 96.511, 40.425 97.879 M 183 100 C 183 100.550, 183.450 101, 184 101 C 184.550 101, 185 100.550, 185 100 C 185 99.450, 184.550 99, 184 99 C 183.450 99, 183 99.450, 183 100 M 31 102 C 31.825 102.533, 32.950 102.969, 33.500 102.969 C 34.050 102.969, 33.825 102.533, 33 102 C 32.175 101.467, 31.050 101.031, 30.500 101.031 C 29.950 101.031, 30.175 101.467, 31 102 M 43 101.800 C 43 103.213, 45.345 105, 47.200 105 C 49.283 105, 49.515 103.915, 47.800 102.200 C 46.454 100.854, 43 100.566, 43 101.800 M 51.614 102.150 C 52.084 102.893, 52.515 103.725, 52.571 104 C 52.996 106.091, 54.445 108, 55.607 108 C 57.464 108, 57.391 106.087, 55.506 105.364 C 54.684 105.048, 54.247 104.410, 54.534 103.945 C 54.821 103.481, 54.089 102.583, 52.907 101.950 L 50.759 100.800 51.614 102.150 M 58.229 103.187 C 58.727 104.682, 61 105.505, 61 104.190 C 61 103.653, 60.287 102.941, 59.416 102.606 C 58.443 102.233, 57.985 102.456, 58.229 103.187 M 184.813 103.683 C 185.534 103.972, 186.397 103.936, 186.729 103.604 C 187.061 103.272, 186.471 103.036, 185.417 103.079 C 184.252 103.127, 184.015 103.364, 184.813 103.683 M 191.500 104 C 191.840 104.550, 192.316 105, 192.559 105 C 192.802 105, 193 104.550, 193 104 C 193 103.450, 192.523 103, 191.941 103 C 191.359 103, 191.160 103.450, 191.500 104 M 37.500 108 C 37.840 108.550, 38.541 109, 39.059 109 C 39.577 109, 40 108.550, 40 108 C 40 107.450, 39.298 107, 38.441 107 C 37.584 107, 37.160 107.450, 37.500 108 M 168.979 113.061 L 162.500 119.122 167 116.596 C 173.311 113.053, 178.149 109.051, 177.463 107.940 C 176.467 106.329, 175.642 106.827, 168.979 113.061 M 175.089 112.567 C 172.663 115.496, 170.413 117.864, 170.089 117.828 C 169.765 117.792, 169.275 117.851, 169 117.958 C 168.725 118.065, 167.761 118.297, 166.858 118.472 C 164.900 118.853, 146.820 130.775, 145.765 132.381 C 145.349 133.015, 145.017 133.067, 145 132.500 C 144.981 131.874, 144.695 131.892, 144.235 132.548 C 143.831 133.124, 141.371 134.826, 138.768 136.329 C 136.166 137.833, 133.527 140.014, 132.905 141.178 L 131.773 143.293 133.637 142.723 C 139.748 140.854, 152.854 135.663, 155.130 134.210 C 159.798 131.229, 172.342 120.707, 176.668 116.144 L 180.836 111.747 180.450 109.738 C 179.881 106.785, 179.876 106.788, 175.089 112.567 M 47 108.800 C 47 110.224, 49.351 112, 51.235 112 L 53.070 112 52 110 C 50.976 108.087, 47 107.133, 47 108.800 M 72.008 110.974 C 71.188 111.492, 69.500 111.662, 68.258 111.350 C 65.347 110.619, 65.316 111.811, 68.219 112.885 L 70.437 113.706 71.824 112.318 L 73.212 110.931 74.856 112.215 L 76.500 113.500 75.128 111.750 C 74.373 110.787, 73.698 110.007, 73.628 110.015 C 73.557 110.024, 72.829 110.455, 72.008 110.974 M 197.670 112.766 C 197.984 114.012, 198.637 115.276, 199.121 115.575 C 200.489 116.420, 200.156 114.591, 198.550 112.441 L 197.099 110.500 197.670 112.766 M 82 113 C 82 113.550, 82.702 114, 83.559 114 C 84.416 114, 84.840 113.550, 84.500 113 C 84.160 112.450, 83.459 112, 82.941 112 C 82.423 112, 82 112.450, 82 113 M 182 112.905 C 182 113.403, 179.117 116.794, 175.593 120.441 C 172.069 124.089, 168.915 127.778, 168.585 128.640 C 168.254 129.502, 167.354 129.966, 166.586 129.671 C 165.817 129.376, 164.401 130.005, 163.439 131.067 L 161.690 133 166.595 132.982 L 171.500 132.964 175.500 130.207 C 177.700 128.690, 181.641 125.476, 184.259 123.063 L 189.017 118.677 187.661 117.088 C 186.914 116.215, 186.025 114.713, 185.683 113.750 C 185.050 111.964, 182 111.264, 182 112.905 M 64.550 113.888 C 65.073 114.376, 66.625 115.074, 68 115.439 L 70.500 116.104 68.559 114.552 C 66.513 112.916, 62.863 112.312, 64.550 113.888 M 120.459 115.067 C 120.096 115.653, 120.014 116.348, 120.276 116.610 C 120.538 116.872, 121.019 116.392, 121.345 115.543 C 122.021 113.781, 121.445 113.471, 120.459 115.067 M 47.991 116.489 C 48.671 117.308, 49.633 117.727, 50.130 117.420 C 51.406 116.631, 50.185 115, 48.319 115 L 46.755 115 47.991 116.489 M 45.500 118 C 45.840 118.550, 46.316 119, 46.559 119 C 46.802 119, 47 118.550, 47 118 C 47 117.450, 46.523 117, 45.941 117 C 45.359 117, 45.160 117.450, 45.500 118 M 58.543 117.931 C 57.860 119.036, 59.437 120.230, 60.361 119.306 C 61.311 118.355, 61.134 117, 60.059 117 C 59.541 117, 58.859 117.419, 58.543 117.931 M 66 118.934 C 66 119.447, 64.763 120.029, 63.250 120.228 L 60.500 120.588 65 121.626 C 67.872 122.289, 69.952 122.319, 70.750 121.710 L 72 120.755 72 121.771 C 72 122.329, 72.675 123.045, 73.500 123.362 C 76.916 124.672, 74.675 121.890, 70.812 120.023 C 65.989 117.693, 66 117.695, 66 118.934 M 54 121 C 54 121.550, 54.702 122, 55.559 122 C 56.416 122, 56.840 121.550, 56.500 121 C 56.160 120.450, 55.459 120, 54.941 120 C 54.423 120, 54 120.450, 54 121 M 201.320 128 C 201.320 131.575, 201.502 133.037, 201.723 131.250 C 201.945 129.463, 201.945 126.537, 201.723 124.750 C 201.502 122.963, 201.320 124.425, 201.320 128 M 63.013 125.487 C 62.531 126.068, 62.918 127.418, 63.920 128.655 L 65.666 130.810 75.583 130.810 C 81.488 130.810, 84.489 130.509, 83 130.066 C 81.625 129.657, 80.624 128.767, 80.775 128.087 C 80.926 127.407, 80.627 127.113, 80.110 127.432 C 79.594 127.751, 78.966 127.447, 78.716 126.756 L 78.261 125.500 76.220 126.703 L 74.178 127.906 73.661 126.559 C 73.035 124.928, 64.212 124.039, 63.013 125.487 M 96.500 126 C 96.840 126.550, 97.316 127, 97.559 127 C 97.802 127, 98 126.550, 98 126 C 98 125.450, 97.523 125, 96.941 125 C 96.359 125, 96.160 125.450, 96.500 126 M 186.441 128.441 C 185.374 129.234, 183.551 129.651, 182.391 129.368 L 180.281 128.854 177.391 131.357 L 174.500 133.861 175.722 135.103 L 176.944 136.344 182.722 135.149 C 185.900 134.492, 189.082 133.889, 189.793 133.810 C 190.504 133.731, 190.842 133.030, 190.543 132.252 C 190.244 131.473, 190 129.973, 190 128.918 C 190 126.627, 189.055 126.501, 186.441 128.441 M 183.229 132.188 C 183.447 132.841, 184.160 133.553, 184.813 133.771 C 185.544 134.015, 185.767 133.557, 185.394 132.584 C 184.696 130.766, 182.629 130.388, 183.229 132.188 M 69 134.889 C 69 135.378, 69.828 136.801, 70.841 138.052 L 72.681 140.325 73.400 139.162 C 73.795 138.523, 73.572 138, 72.904 138 C 72.151 138, 72.377 137.241, 73.500 136 L 75.310 134 72.155 134 C 70.420 134, 69 134.400, 69 134.889 M 62.500 136 C 62.840 136.550, 63.316 137, 63.559 137 C 63.802 137, 64 136.550, 64 136 C 64 135.450, 63.523 135, 62.941 135 C 62.359 135, 62.160 135.450, 62.500 136 M 162.750 135.728 C 160.499 135.964, 159 136.651, 159 137.447 C 159 138.696, 154.990 139.672, 146.154 140.574 C 144.313 140.761, 142.288 141.325, 141.654 141.827 C 141.019 142.329, 138.706 143.063, 136.513 143.459 L 132.525 144.180 134.454 145.590 C 135.514 146.365, 137.646 147, 139.191 147 C 140.736 147, 142 147.375, 142 147.833 C 142 148.767, 142.346 148.847, 149.827 149.639 L 155.155 150.203 157.327 148.191 C 158.522 147.084, 161.353 145.687, 163.618 145.086 C 165.883 144.486, 169.258 142.635, 171.118 140.974 L 174.500 137.955 172.559 136.477 C 170.636 135.014, 170.027 134.967, 162.750 135.728 M 185.830 137.409 C 184.362 138.028, 182.021 139.764, 180.628 141.267 C 179.235 142.770, 177.512 144.045, 176.798 144.100 C 176.084 144.156, 177.256 144.613, 179.403 145.117 L 183.307 146.032 185.153 144.361 C 186.169 143.442, 187 141.950, 187 141.045 C 187 140.140, 187.532 138.868, 188.183 138.217 C 189.919 136.481, 188.878 136.124, 185.830 137.409 M 200.079 137.583 C 200.127 138.748, 200.364 138.985, 200.683 138.188 C 200.972 137.466, 200.936 136.603, 200.604 136.271 C 200.272 135.939, 200.036 136.529, 200.079 137.583 M 84.750 138.662 C 85.438 138.940, 86.563 138.940, 87.250 138.662 C 87.938 138.385, 87.375 138.158, 86 138.158 C 84.625 138.158, 84.063 138.385, 84.750 138.662 M 189 142 L 186.959 146 188.819 146 C 190.646 146, 193 142.313, 193 139.453 C 193 136.742, 191.049 137.984, 189 142 M 175.726 140.940 L 175.218 142.880 177.109 141.700 C 179.330 140.313, 179.577 139, 177.617 139 C 176.856 139, 176.005 139.873, 175.726 140.940 M 103.813 140.683 C 104.534 140.972, 105.397 140.936, 105.729 140.604 C 106.061 140.272, 105.471 140.036, 104.417 140.079 C 103.252 140.127, 103.015 140.364, 103.813 140.683 M 102.269 145.693 C 103.242 145.947, 104.592 145.930, 105.269 145.656 C 105.946 145.382, 105.150 145.175, 103.500 145.195 C 101.850 145.215, 101.296 145.439, 102.269 145.693 M 62.500 147 C 62.840 147.550, 63.316 148, 63.559 148 C 63.802 148, 64 147.550, 64 147 C 64 146.450, 63.523 146, 62.941 146 C 62.359 146, 62.160 146.450, 62.500 147 M 88.733 147.124 C 89.412 147.808, 90.219 148.115, 90.526 147.807 C 90.834 147.499, 90.279 146.940, 89.293 146.564 L 87.500 145.882 88.733 147.124 M 92 146.800 C 92 147.460, 92.450 148, 93 148 C 93.550 148, 94 148.730, 94 149.622 L 94 151.245 92.476 149.980 C 90.691 148.499, 89.764 149, 90.897 150.833 C 91.578 151.934, 103.915 154.419, 104.718 153.616 C 104.879 153.455, 103.981 152.125, 102.723 150.662 L 100.436 148 97.418 148 C 95.758 148, 93.860 147.460, 93.200 146.800 L 92 145.600 92 146.800 M 111.592 148.366 L 112.303 150.233 110.212 149.114 C 107.277 147.542, 106.730 149.144, 109.495 151.216 L 111.785 152.931 112.360 150.733 C 112.676 149.524, 112.473 148.077, 111.908 147.517 L 110.882 146.500 111.592 148.366 M 159.655 148.829 C 156.891 151.883, 159.486 154.059, 167.500 155.404 C 169.700 155.773, 173.447 157.047, 175.827 158.234 L 180.153 160.393 181.767 159.375 C 182.655 158.815, 183.576 157.714, 183.815 156.929 L 184.250 155.500 182.925 156.750 C 182.196 157.438, 180.902 157.986, 180.050 157.970 L 178.500 157.939 180.208 156.943 C 181.148 156.395, 181.664 155.288, 181.355 154.482 C 181.039 153.660, 181.496 152.747, 182.396 152.401 C 183.278 152.063, 184 151.398, 184 150.924 C 184 150.451, 183.325 150.322, 182.500 150.638 C 181.567 150.996, 181 150.632, 181 149.674 C 181 148.828, 180.100 147.849, 179 147.500 C 176.536 146.718, 172.762 147.806, 173.544 149.072 C 174.417 150.484, 170.821 150.113, 168 148.500 C 164.569 146.538, 161.623 146.654, 159.655 148.829 M 175.276 150.395 C 174.849 151.116, 173.825 151.962, 173 152.274 L 171.500 152.842 173.559 152.921 C 174.691 152.964, 176.442 152.397, 177.449 151.661 L 179.281 150.322 177.667 149.702 C 176.779 149.362, 175.703 149.673, 175.276 150.395 M 119 151.500 C 119 152.325, 118.325 153, 117.500 153 C 115.648 153, 115.647 153.218, 117.479 157.604 C 118.421 159.859, 119.385 160.880, 120.134 160.417 L 121.309 159.691 120.514 160.977 L 119.720 162.262 116.429 158.381 L 113.138 154.500 111.374 156.636 L 109.610 158.771 107.055 156.974 C 105.571 155.930, 101.839 154.942, 98.151 154.616 L 91.801 154.056 93.043 155.552 C 95.403 158.396, 93.346 157.967, 90.289 154.978 L 87.222 151.980 86.647 153.476 C 86.331 154.300, 87.069 156.086, 88.286 157.445 L 90.500 159.917 94.855 160.523 L 99.211 161.128 102.675 159.484 C 106.713 157.568, 109.445 158.192, 108.744 160.870 C 107.561 165.396, 111.785 167.271, 117.685 164.840 C 119.233 164.201, 121.028 163.763, 121.674 163.866 C 123.301 164.125, 124.505 159.930, 123.060 159.037 L 121.905 158.323 123.453 157.039 C 125.496 155.343, 125.413 153.034, 123.250 151.392 C 120.906 149.613, 119 149.661, 119 151.500 M 135.552 150.916 C 134.960 151.874, 145.343 161.274, 147.349 161.597 C 147.982 161.699, 150.264 162.121, 152.420 162.534 L 156.340 163.286 154.061 160.086 C 151.306 156.216, 151.897 155.301, 156.045 157.018 L 159.153 158.306 158.670 160.153 C 157.805 163.462, 159.481 162.096, 160.575 158.600 L 161.639 155.201 158.069 154.119 C 144.187 149.911, 136.820 148.864, 135.552 150.916 M 193.649 153.018 C 192.638 154.729, 191.389 155.740, 190.763 155.354 C 190.076 154.929, 189.878 155.239, 190.238 156.177 C 190.952 158.039, 190.257 159.065, 186.782 161.275 C 185.155 162.310, 184.285 163.578, 184.613 164.434 L 185.161 165.863 188.081 163.073 C 189.686 161.539, 191 159.840, 191 159.297 C 191 158.755, 192.124 157.004, 193.499 155.406 C 194.873 153.807, 195.998 151.938, 195.999 151.250 C 196.001 149.397, 195.617 149.686, 193.649 153.018 M 74 155 C 74 155.550, 74.477 156, 75.059 156 C 75.641 156, 75.840 155.550, 75.500 155 C 75.160 154.450, 74.684 154, 74.441 154 C 74.198 154, 74 154.450, 74 155 M 162.452 159.093 C 161.572 160.794, 160.998 162.286, 161.176 162.409 C 161.354 162.532, 163.054 163.357, 164.953 164.243 L 168.406 165.853 170.324 164.827 C 171.517 164.188, 172.011 164.173, 171.632 164.786 C 171.297 165.328, 172.154 165.987, 173.536 166.252 C 174.917 166.516, 176.289 166.342, 176.583 165.866 C 176.877 165.390, 176.586 165, 175.937 165 L 174.755 165 175.964 163.544 C 177.608 161.562, 176.507 160.134, 171.627 157.918 C 165.905 155.320, 164.297 155.525, 162.452 159.093 M 60.559 162.532 C 59.491 163.339, 59.099 164, 59.686 164 C 60.274 164, 61.315 163.325, 62 162.500 C 63.557 160.624, 63.067 160.634, 60.559 162.532 M 73 163 C 73 163.550, 73.648 164, 74.441 164 C 75.234 164, 76.160 163.550, 76.500 163 C 76.840 162.450, 76.191 162, 75.059 162 C 73.927 162, 73 162.450, 73 163 M 94 162.732 C 94 163.206, 95.776 165.328, 97.946 167.447 L 101.892 171.301 104.446 169.627 C 107.122 167.874, 107.834 164.634, 105.818 163.387 C 104.049 162.294, 94 161.737, 94 162.732 M 118.160 166.750 C 117.659 167.713, 117.043 171.088, 116.792 174.250 L 116.335 180 117.918 180.032 C 118.788 180.049, 120.374 180.724, 121.441 181.532 C 123.175 182.843, 127 183.593, 127 182.622 C 127 182.414, 126.325 180.629, 125.500 178.654 C 124.675 176.680, 124 173.512, 124 171.614 C 124 165.311, 120.448 162.353, 118.160 166.750 M 144.652 168.222 L 144.059 170.491 146.544 174.245 C 149.338 178.468, 150.055 178.926, 149.290 176 C 149.002 174.900, 148.360 174, 147.864 174 C 147.367 174, 147.147 172.972, 147.375 171.716 C 147.603 170.460, 147.217 168.649, 146.517 167.693 L 145.245 165.953 144.652 168.222 M 110.697 168.446 C 109.902 169.241, 107.732 170.513, 105.876 171.272 L 102.500 172.652 106.666 175.286 C 108.957 176.734, 111.142 178.420, 111.520 179.033 L 112.209 180.147 113.455 178.323 C 114.141 177.321, 114.985 174.363, 115.332 171.750 L 115.962 167 114.052 167 C 113.002 167, 111.492 167.651, 110.697 168.446 M 127.075 174.410 C 125.735 176.024, 126.300 179.060, 128.627 182.750 C 130.511 185.737, 131.621 185.588, 132.351 182.250 C 132.681 180.738, 133.240 178.488, 133.593 177.250 L 134.233 175 132.317 175 C 131.262 175, 129.931 174.531, 129.358 173.958 L 128.315 172.915 127.075 174.410 M 121.600 188.600 C 121.244 189.527, 121.178 190.511, 121.453 190.786 C 121.728 191.061, 122.244 190.527, 122.600 189.600 C 122.956 188.673, 123.022 187.689, 122.747 187.414 C 122.472 187.139, 121.956 187.673, 121.600 188.600 M 120.500 194 C 120.160 194.550, 120.557 195, 121.382 195 C 122.207 195, 123.160 194.550, 123.500 194 C 123.840 193.450, 123.443 193, 122.618 193 C 121.793 193, 120.840 193.450, 120.500 194" stroke="none" fill="#141b23" fill-rule="evenodd"/></svg>