<svg xmlns="http://www.w3.org/2000/svg" width="225" height="225" viewBox="0 0 225 225" version="1.1"><path d="M -0 112.504 L -0 225.009 112.750 224.754 L 225.500 224.500 225.754 112.250 L 226.009 0 113.004 0 L 0 0 -0 112.504 M 0.483 113 C 0.483 174.875, 0.603 200.188, 0.750 169.250 C 0.897 138.313, 0.897 87.688, 0.750 56.750 C 0.603 25.813, 0.483 51.125, 0.483 113 M 162.409 19.853 L 163.128 21.015 161.805 22.338 C 161.077 23.066, 159.920 23.473, 159.233 23.244 L 157.984 22.828 158.999 25.498 C 159.558 26.966, 159.760 28.580, 159.448 29.084 C 159.137 29.588, 158.087 30, 157.115 30 L 155.349 30 153.306 32.250 C 152.182 33.487, 150.947 35.830, 150.561 37.455 L 149.859 40.411 147.929 41.762 C 146.868 42.505, 145.986 43.875, 145.968 44.807 C 145.951 45.738, 145.339 47.288, 144.608 48.250 C 143.877 49.212, 142.712 50, 142.017 50 L 140.755 50 142 51.500 L 143.245 53 141.500 53 L 139.755 53 141.020 54.524 C 141.716 55.362, 142.007 56.327, 141.667 56.667 C 141.327 57.007, 140.427 56.769, 139.668 56.139 L 138.287 54.993 138.393 58.247 C 138.452 60.036, 138.921 61.803, 139.436 62.174 L 140.371 62.848 139.100 64.380 L 137.828 65.912 138.561 67.206 L 139.293 68.500 137.947 67.250 C 137.206 66.562, 136.015 66, 135.300 66 C 134.585 66, 134 66.381, 134 66.847 C 134 67.313, 135.012 68.166, 136.250 68.741 L 138.500 69.788 136.618 70.552 L 134.735 71.316 132.881 70.158 C 131.861 69.521, 130.796 69, 130.514 69 C 130.231 69, 130 69.675, 130 70.500 C 130 71.325, 130.450 72, 131 72 C 131.550 72, 132 72.750, 132 73.667 L 132 75.333 131.331 74.664 L 130.662 73.996 128.831 75.653 C 127.824 76.564, 127 77.945, 127 78.721 C 127 79.497, 126.519 81.031, 125.930 82.130 L 124.861 84.129 123.286 82.822 L 121.712 81.516 122.463 83.883 L 123.214 86.250 122.107 85.566 C 121.498 85.190, 121 85.118, 121 85.407 C 121 85.696, 121.760 87.526, 122.689 89.474 L 124.378 93.015 126.034 92.489 L 127.690 91.964 127.776 97.732 L 127.863 103.500 127.062 100.914 C 126.621 99.491, 125.466 97.114, 124.495 95.632 C 123.524 94.150, 122.525 93.141, 122.276 93.390 C 122.028 93.639, 122.827 95.200, 124.053 96.858 L 126.282 99.873 125.700 103.462 C 125.380 105.436, 123.641 109.627, 121.836 112.776 C 120.031 115.924, 118.454 118.950, 118.331 119.500 C 118.208 120.050, 117.451 122.567, 116.648 125.094 L 115.189 129.688 116.079 131.094 C 116.569 131.867, 116.976 132.864, 116.985 133.309 C 116.993 133.754, 116.588 133.864, 116.085 133.553 L 115.171 132.988 114.824 134.028 L 114.477 135.069 112.488 133.483 L 110.500 131.896 112.992 132.592 L 115.484 133.288 114.160 131.693 C 113.432 130.815, 110.533 128.950, 107.719 127.547 L 102.602 124.998 101.601 125.999 C 101.051 126.549, 100.240 127, 99.800 127 C 99.360 127, 99 126.325, 99 125.500 C 99 124.675, 98.534 124, 97.965 124 L 96.930 124 97.965 122.066 C 98.534 121.002, 99 119.829, 99 119.459 L 99 118.786 97.410 119.396 C 96.535 119.732, 95.388 119.740, 94.861 119.414 L 93.903 118.822 95.109 117.369 L 96.315 115.915 95.270 114.870 L 94.226 113.826 93.554 114.913 C 93.184 115.511, 92.459 116, 91.941 116 C 91.423 116, 91 115.085, 91 113.966 L 91 111.933 87.470 109.850 L 83.939 107.767 84.539 105.878 L 85.138 103.990 83.561 103.385 C 82.694 103.052, 80.420 103.074, 78.507 103.433 L 75.028 104.085 75.264 105.293 L 75.500 106.500 73.500 106.160 C 72.400 105.973, 70.825 105.229, 70 104.507 C 69.175 103.786, 61.525 99.821, 53 95.698 L 37.500 88.201 33 87.540 C 30.525 87.176, 25.913 86.635, 22.750 86.337 L 17 85.796 17 87.957 L 17 90.118 15.893 89.434 L 14.786 88.750 15.397 90.674 L 16.008 92.599 12.504 92.190 L 9 91.781 9 93.217 L 9 94.652 12.601 97.576 C 14.582 99.184, 16.743 101.006, 17.405 101.625 C 18.066 102.244, 19.829 102.750, 21.323 102.750 L 24.039 102.750 26.524 105.431 L 29.009 108.113 30.004 107.497 L 31 106.882 31 107.941 C 31 108.523, 31.563 109.010, 32.250 109.023 C 32.938 109.036, 35.077 110.498, 37.004 112.273 C 38.931 114.048, 43.364 118.875, 46.856 123 C 50.347 127.125, 53.946 131.406, 54.852 132.514 C 55.758 133.622, 57.128 135.739, 57.895 137.218 C 58.662 138.698, 59.997 140.045, 60.863 140.212 L 62.437 140.515 59.968 142.830 L 57.500 145.146 60.250 144.464 L 63 143.783 63 144.775 C 63 145.320, 62.117 145.998, 61.037 146.280 L 59.075 146.793 59.490 148.949 L 59.905 151.105 57.703 150.505 L 55.500 149.905 57.164 150.954 L 58.828 152.003 60.498 151.362 L 62.168 150.722 61.098 150.061 L 60.029 149.400 63.643 149.400 L 67.256 149.400 64.128 150.881 C 62.408 151.696, 61 152.701, 61 153.115 L 61 153.868 63.750 153.325 C 65.263 153.026, 67.127 152.719, 67.892 152.641 C 68.658 152.563, 69.452 152.970, 69.657 153.545 L 70.030 154.590 64.837 156.784 C 61.981 157.991, 59.900 159.234, 60.212 159.546 C 60.525 159.858, 62.872 159.130, 65.429 157.929 C 67.985 156.727, 70.347 156.014, 70.677 156.344 C 71.007 156.674, 70.134 157.379, 68.736 157.910 C 67.338 158.442, 65.899 159.354, 65.538 159.938 L 64.882 161 66.163 161 L 67.445 161 65.223 162.557 L 63 164.113 63 165.664 L 63 167.214 64.500 166.638 L 66 166.063 66 167.450 C 66 168.212, 65.738 169.520, 65.417 170.355 L 64.834 171.874 63.167 171.290 L 61.500 170.706 62.704 172.006 L 63.907 173.307 68.237 171.654 C 70.618 170.744, 73.302 170, 74.200 170 C 75.098 170, 75.983 169.576, 76.167 169.059 C 76.350 168.541, 77.760 167.892, 79.300 167.616 L 82.101 167.114 86.300 169.012 C 88.610 170.055, 91.287 171.542, 92.250 172.315 C 93.212 173.088, 94 174.008, 94 174.360 C 94 174.712, 93.494 174.887, 92.875 174.750 C 92.256 174.612, 91.553 175.036, 91.311 175.691 L 90.872 176.883 93.815 178.404 L 96.757 179.926 98.097 184.463 C 98.834 186.958, 99.788 189, 100.218 189 C 100.648 189, 101 188.550, 101 188 C 101 187.450, 101.450 187, 102 187 L 103 187 103 189.441 C 103 190.784, 103.450 192.160, 104 192.500 L 105 193.118 105 191.868 L 105 190.618 106.468 192.559 L 107.936 194.500 107.984 193 L 108.031 191.500 108.949 192.952 C 109.455 193.751, 109.649 194.758, 109.382 195.191 L 108.896 195.977 110.454 195.379 L 112.011 194.782 112.633 190.891 C 112.976 188.751, 113.587 187, 113.993 187 C 114.398 187, 114.742 188.237, 114.757 189.750 C 114.772 191.262, 114.908 193.625, 115.060 195 L 115.336 197.500 116 191.500 L 116.664 185.500 116.974 193.500 L 117.284 201.500 117.907 197.500 L 118.530 193.500 119.154 195.685 L 119.779 197.871 121.706 197.367 L 123.633 196.863 124.651 199.145 L 125.670 201.427 126.330 196.610 C 126.693 193.961, 126.702 191.327, 126.350 190.758 L 125.711 189.723 129.308 190.398 L 132.906 191.073 134.519 188.611 L 136.133 186.148 136.549 181.824 C 136.777 179.446, 137.158 176.262, 137.394 174.750 L 137.824 172 136.624 172 L 135.425 172 135.262 167.923 L 135.100 163.846 132.399 159.238 L 129.698 154.629 134.881 159.065 L 140.063 163.500 142.647 168.747 C 144.069 171.634, 146.481 175.425, 148.007 177.173 C 149.533 178.921, 151.500 180.456, 152.377 180.585 L 153.974 180.819 152.952 178.910 C 152.390 177.859, 151.526 177, 151.032 177 C 150.539 177, 149.813 175.987, 149.421 174.750 C 149.028 173.512, 148.773 172.275, 148.853 172 C 148.934 171.725, 149.450 171.444, 150 171.375 C 150.550 171.306, 151.338 171.187, 151.750 171.110 C 152.162 171.033, 151.922 170.603, 151.216 170.155 L 149.932 169.340 150.573 167.670 C 150.926 166.752, 151.616 166, 152.107 166 C 152.598 166, 153.067 167.125, 153.150 168.500 C 153.233 169.875, 153.345 171.563, 153.400 172.250 L 153.500 173.500 151.750 173.206 L 150 172.912 150 173.956 C 150 174.530, 150.490 175, 151.090 175 C 151.689 175, 153 176.012, 154.004 177.250 C 155.007 178.488, 156.108 179.221, 156.451 178.879 C 156.794 178.538, 156.528 177.059, 155.860 175.592 L 154.645 172.926 156.202 171.370 L 157.758 169.813 157.301 172.657 L 156.843 175.500 158 174 L 159.157 172.500 158.723 175.220 L 158.289 177.939 159.144 177.411 C 159.615 177.120, 160 176.234, 160 175.441 C 160 174.648, 160.450 174, 161 174 L 162 174 162.132 171.750 L 162.263 169.500 162.985 173 L 163.707 176.500 164.483 173.229 C 164.909 171.430, 165.637 169.724, 166.100 169.438 L 166.941 168.918 167.446 171.209 C 167.724 172.469, 168.120 174.850, 168.326 176.500 L 168.700 179.500 168.850 175.309 L 169 171.118 170 170.500 L 171 169.882 171 173.108 L 171 176.333 171.683 175.650 L 172.367 174.967 173.732 178.214 L 175.097 181.461 175.924 180.123 L 176.750 178.786 179.007 179.502 L 181.264 180.219 179.882 181.094 L 178.500 181.969 180 182 L 181.500 182.031 180.029 182.961 C 179.220 183.473, 178.783 184.116, 179.058 184.391 C 179.333 184.666, 180.130 184.538, 180.829 184.106 L 182.100 183.320 182.174 180.910 C 182.214 179.585, 182.694 176.984, 183.241 175.131 L 184.234 171.762 182.974 170.984 L 181.714 170.205 185.607 167.722 C 187.748 166.357, 190.445 164.173, 191.600 162.870 C 192.755 161.566, 195.050 158.475, 196.700 156 L 199.700 151.500 201.581 144 L 203.462 136.500 203.477 129 L 203.493 121.500 202.128 116.792 L 200.764 112.084 197.399 108.153 L 194.034 104.222 196.267 102.663 L 198.500 101.105 196.750 101.052 C 195.787 101.024, 195 100.606, 195 100.125 C 195 99.644, 196.463 98.931, 198.250 98.540 L 201.500 97.831 199.516 97.070 L 197.531 96.309 200.516 94.695 L 203.500 93.080 201.750 93.040 C 200.787 93.018, 200 92.550, 200 92 L 200 91 202.750 90.872 L 205.500 90.744 199.500 89.481 C 196.200 88.786, 193.838 88.113, 194.250 87.984 C 194.662 87.855, 195.338 87.668, 195.750 87.569 C 196.162 87.469, 198.075 86.999, 200 86.524 L 203.500 85.661 201.057 85.049 L 198.615 84.437 200.834 82.369 L 203.053 80.302 202.420 78.651 L 201.786 77 202.786 77 C 203.336 77, 204.069 76.261, 204.416 75.359 L 205.046 73.717 203.739 74.801 L 202.433 75.886 201.143 75.088 C 200.434 74.650, 198.806 74.406, 197.526 74.547 C 196.246 74.687, 194.282 75.093, 193.160 75.449 L 191.122 76.096 190.026 74.048 C 189.423 72.922, 189.233 72, 189.605 72 C 189.976 72, 190.928 72.787, 191.721 73.750 L 193.163 75.500 192.582 73.750 C 192.262 72.787, 191.727 71.325, 191.393 70.500 L 190.786 69 191.893 69 C 192.502 69, 193 69.450, 193 70 C 193 70.550, 193.554 71, 194.231 71 L 195.462 71 192.248 67.786 L 189.033 64.572 187.564 66.536 L 186.095 68.500 186.559 64.468 L 187.023 60.436 184.310 56.252 C 182.818 53.951, 181.392 52.274, 181.141 52.526 C 180.890 52.777, 180.122 52.516, 179.435 51.946 L 178.186 50.910 179.111 47.561 L 180.035 44.213 179.734 35.334 L 179.433 26.456 177.716 24.005 L 176 21.555 175.958 23.527 L 175.916 25.500 174 22 C 172.946 20.075, 172.065 19.089, 172.042 19.809 L 172 21.118 171 20.500 L 170 19.882 169.985 21.691 L 169.969 23.500 168.900 22 L 167.832 20.500 168.389 23.741 L 168.946 26.982 167.723 26.741 C 167.050 26.608, 166.169 26.050, 165.765 25.500 C 165.361 24.950, 165.031 24.050, 165.031 23.500 L 165.031 22.500 166.091 24 L 167.152 25.500 166.722 24 L 166.293 22.500 164.662 22.790 L 163.032 23.080 163.584 21.641 L 164.136 20.202 162.914 19.447 L 161.691 18.691 162.409 19.853 M 201 69.031 C 201 69.564, 201.675 70, 202.500 70 C 203.325 70, 204 69.823, 204 69.607 C 204 69.391, 203.325 68.955, 202.500 68.638 L 201 68.063 201 69.031 M 213.015 80.711 C 213.024 81.695, 213.516 83.175, 214.110 84 L 215.189 85.500 214.651 83.815 L 214.112 82.129 214.958 81.815 L 215.803 81.500 214.401 80.211 L 213 78.921 213.015 80.711 M 201.500 83 L 200.882 84 203.500 84 L 206.118 84 205.500 83 C 205.160 82.450, 204.260 82, 203.500 82 C 202.740 82, 201.840 82.450, 201.500 83 M 192.500 86 L 191.882 87 192.882 87 C 193.432 87, 194.160 86.550, 194.500 86 L 195.118 85 194.118 85 C 193.568 85, 192.840 85.450, 192.500 86 M 69 94 L 69 95 71.059 95 L 73.118 95 72.500 94 C 72.160 93.450, 71.234 93, 70.441 93 C 69.648 93, 69 93.450, 69 94 M 115 99.059 L 115 101.118 115.956 100.527 L 116.913 99.936 116.349 98.468 C 116.040 97.661, 115.609 97, 115.393 97 C 115.177 97, 115 97.927, 115 99.059 M 122.083 114.709 L 117.667 124.356 117.667 128.511 L 117.667 132.667 119.797 134.797 L 121.927 136.927 122.397 136.167 C 122.655 135.748, 123.564 129.577, 124.416 122.453 C 125.268 115.329, 126.251 108.487, 126.599 107.250 C 126.948 106.013, 127.068 105.014, 126.867 105.031 C 126.665 105.048, 124.513 109.403, 122.083 114.709 M 56.500 154.464 L 53.500 155.838 55.059 155.919 C 55.916 155.963, 57.491 155.339, 58.559 154.532 C 59.626 153.724, 60.275 153.070, 60 153.077 C 59.725 153.084, 58.150 153.708, 56.500 154.464 M 60 162.500 L 58.755 164 60.255 164 C 61.080 164, 62.315 163.325, 63 162.500 L 64.245 161 62.745 161 C 61.920 161, 60.685 161.675, 60 162.500 M 52 166 C 52 166.550, 52.450 167, 53 167 C 53.550 167, 54 166.550, 54 166 C 54 165.450, 53.550 165, 53 165 C 52.450 165, 52 165.450, 52 166 M 49.573 170.521 C 48.513 171.323, 47.878 172.212, 48.162 172.496 C 48.447 172.780, 49.496 172.110, 50.494 171.006 C 51.493 169.903, 52.128 169.014, 51.905 169.032 C 51.682 169.049, 50.633 169.720, 49.573 170.521 M 175.500 175 L 174.882 176 176.441 176 C 177.298 176, 178 175.550, 178 175 C 178 174.450, 177.577 174, 177.059 174 C 176.541 174, 175.840 174.450, 175.500 175 M 69.500 178 L 68.882 179 70.382 179 C 71.207 179, 72.160 178.550, 72.500 178 L 73.118 177 71.618 177 C 70.793 177, 69.840 177.450, 69.500 178 M 170.751 179.524 L 170.268 182.048 171.134 182.583 L 172 183.118 172 180.059 C 172 178.377, 171.827 177, 171.617 177 C 171.406 177, 171.016 178.136, 170.751 179.524 M 162.158 180 L 162.158 182.500 162.662 181.250 C 162.940 180.563, 162.940 179.438, 162.662 178.750 L 162.158 177.500 162.158 180 M 188 181.969 L 188 183.937 189.437 183.386 L 190.874 182.834 190.330 181.417 C 190.031 180.638, 189.384 180, 188.893 180 C 188.402 180, 188 180.886, 188 181.969 M 156.500 182.713 C 155.400 182.978, 154.050 183.705, 153.500 184.330 C 152.950 184.955, 152.911 185.138, 153.414 184.736 L 154.327 184.006 157.164 187.183 C 158.724 188.931, 160 190.784, 160 191.303 L 160 192.245 158.500 191 L 157 189.755 157 190.949 C 157 191.606, 157.716 192.859, 158.591 193.734 L 160.182 195.324 161.036 193.942 L 161.891 192.559 159.839 189.240 L 157.788 185.920 158.300 183.960 C 158.582 182.882, 158.742 182.052, 158.656 182.116 C 158.570 182.180, 157.600 182.448, 156.500 182.713 M 170 193.906 L 170 195.812 172.424 194.668 L 174.848 193.524 173.674 192.777 C 173.028 192.367, 171.938 192.024, 171.250 192.015 L 170 192 170 193.906 M 167 194 C 167 194.550, 167.450 195, 168 195 C 168.550 195, 169 194.550, 169 194 C 169 193.450, 168.550 193, 168 193 C 167.450 193, 167 193.450, 167 194 M 115.554 207.970 L 113.607 208.664 115.693 209.209 C 116.840 209.509, 118.316 209.423, 118.973 209.017 L 120.168 208.278 118.834 207.778 C 118.100 207.502, 116.624 207.589, 115.554 207.970" stroke="none" fill="#ffffff" fill-rule="evenodd"/><path d="M 172.015 19.809 C 172.007 20.529, 171.655 20.905, 171.234 20.644 C 170.812 20.384, 169.990 21.182, 169.406 22.419 L 168.345 24.667 169.629 24.667 L 170.912 24.667 170.392 23.825 L 169.872 22.983 171.895 22.235 L 173.918 21.486 172.975 19.993 L 172.031 18.500 172.015 19.809 M 161.756 22.664 L 163.012 23.171 162.352 24.240 L 161.691 25.309 162.862 24.585 L 164.033 23.862 163.457 22.931 C 163.141 22.419, 162.346 22.036, 161.691 22.079 L 160.500 22.158 161.756 22.664 M 165.429 24 L 165.429 25.971 166.414 24.986 L 167.400 24 166.414 23.014 L 165.429 22.029 165.429 24 M 166.679 26.711 C 166.378 27.197, 166.496 28.185, 166.941 28.905 L 167.750 30.214 168.488 29.020 L 169.226 27.826 168.226 26.826 L 167.226 25.826 166.679 26.711 M 179.300 34 L 179.300 39.500 179.716 36.750 C 179.945 35.237, 179.945 32.763, 179.716 31.250 L 179.300 28.500 179.300 34 M 157.146 38.579 C 156.539 39.911, 156.288 41, 156.587 41 C 156.887 41, 158.002 40.534, 159.066 39.965 C 160.130 39.395, 161 38.544, 161 38.072 C 161 37.600, 160.381 36.976, 159.624 36.686 L 158.249 36.158 157.146 38.579 M 164.971 37.535 C 164.280 38.367, 163.940 39.273, 164.214 39.548 C 164.489 39.822, 165.453 39.763, 166.357 39.417 C 167.261 39.070, 168 38.411, 168 37.952 C 168 37.493, 167.601 36.871, 167.113 36.570 L 166.227 36.022 164.971 37.535 M 152.980 41.524 C 152.284 42.362, 151.968 43.301, 152.276 43.610 C 152.585 43.919, 153.340 43.233, 153.954 42.086 C 154.568 40.939, 154.885 40, 154.658 40 C 154.431 40, 153.676 40.686, 152.980 41.524 M 164.655 42.829 C 163.745 43.835, 163 45.185, 163 45.829 C 163 46.473, 163.424 47, 163.943 47 C 164.462 47, 165.587 46, 166.443 44.777 C 167.299 43.555, 168 42.205, 168 41.777 C 168 41.350, 167.620 41, 167.155 41 C 166.690 41, 165.565 41.823, 164.655 42.829 M 169.952 44.089 L 168.834 46.179 170.656 45.828 L 172.477 45.477 172.812 43.739 L 173.147 42 172.109 42 C 171.538 42, 170.567 42.940, 169.952 44.089 M 157 46.500 C 157 47.325, 157.436 48, 157.969 48 L 158.937 48 158.362 46.500 C 158.045 45.675, 157.609 45, 157.393 45 C 157.177 45, 157 45.675, 157 46.500 M 175.150 50.250 C 174.463 50.938, 173.398 51.500, 172.783 51.500 C 172.169 51.500, 171.479 52.063, 171.250 52.750 L 170.833 54 172.310 54 L 173.786 54 174.513 52.250 L 175.240 50.500 176.575 53.500 L 177.910 56.500 177.970 55 L 178.031 53.500 178.800 54.710 L 179.569 55.920 180.795 53.957 C 181.470 52.877, 181.679 52.048, 181.261 52.115 C 180.842 52.182, 180.162 52.127, 179.750 51.993 C 179.338 51.860, 178.550 51.638, 178 51.500 C 177.450 51.362, 176.662 51.162, 176.250 51.055 C 175.838 50.947, 176.400 50.473, 177.500 50 L 179.500 49.141 177.950 49.070 C 177.097 49.032, 175.838 49.563, 175.150 50.250 M 151.580 52.190 C 150.736 53.394, 150.241 54.575, 150.480 54.813 C 150.719 55.052, 151.579 54.992, 152.391 54.680 C 153.204 54.368, 154.364 53.188, 154.970 52.056 L 156.070 50 154.592 50 C 153.779 50, 152.423 50.985, 151.580 52.190 M 153.534 55.963 L 151.757 57.926 152.372 59.526 L 152.986 61.127 153.981 60.511 L 154.977 59.896 154.382 61.448 L 153.786 63 154.944 63 L 156.102 63 157.551 59.532 C 158.348 57.625, 159 55.600, 159 55.032 L 159 54 157.155 54 L 155.310 54 153.534 55.963 M 138 55.893 C 138 56.384, 138.739 57.069, 139.641 57.416 L 141.283 58.046 140.019 56.523 C 139.324 55.685, 138.585 55, 138.378 55 C 138.170 55, 138 55.402, 138 55.893 M 144.476 63.075 C 144.114 64.217, 144.054 65.387, 144.342 65.675 C 144.631 65.964, 145.347 65.904, 145.933 65.541 C 146.520 65.179, 147 64.009, 147 62.941 C 147 61.873, 146.580 61, 146.067 61 C 145.554 61, 144.838 61.934, 144.476 63.075 M 159.478 63.024 L 157.580 65.122 159.040 66.046 C 159.843 66.554, 160.950 66.969, 161.500 66.969 C 162.050 66.969, 163.107 66.585, 163.848 66.115 L 165.197 65.260 164.837 63.392 L 164.477 61.523 162.927 61.224 L 161.377 60.926 159.478 63.024 M 139.143 64.143 C 138.438 65.271, 138.081 66.414, 138.350 66.683 C 138.618 66.952, 139.361 66.194, 140 65 C 140.639 63.806, 140.996 62.663, 140.793 62.460 C 140.590 62.257, 139.848 63.014, 139.143 64.143 M 148.098 64.818 C 147.494 65.946, 147 67.348, 147 67.934 L 147 69 149.031 69 L 151.063 69 151.668 67.422 L 152.273 65.845 150.734 64.306 L 149.195 62.767 148.098 64.818 M 170.500 64 C 170.160 64.550, 170.148 65.430, 170.473 65.956 L 171.064 66.913 172.532 66.349 C 173.339 66.040, 174 65.159, 174 64.393 L 174 63 172.559 63 C 171.766 63, 170.840 63.450, 170.500 64 M 137.073 69.045 L 138.452 69.897 135.976 70.823 L 133.500 71.748 132.674 70.624 L 131.848 69.500 132.229 70.917 L 132.611 72.333 136.556 72.338 L 140.500 72.342 140.786 70.421 L 141.072 68.500 138.383 68.346 L 135.693 68.192 137.073 69.045 M 172 72 C 172 72.550, 172.450 73, 173 73 C 173.550 73, 174 72.550, 174 72 C 174 71.450, 173.550 71, 173 71 C 172.450 71, 172 71.450, 172 72 M 129.374 75.467 C 129.065 76.274, 129.004 77.511, 129.240 78.217 L 129.669 79.500 130.196 76.750 C 130.486 75.237, 130.546 74, 130.330 74 C 130.114 74, 129.684 74.660, 129.374 75.467 M 176 75 C 176 75.550, 176.450 76, 177 76 C 177.550 76, 178 75.550, 178 75 C 178 74.450, 177.550 74, 177 74 C 176.450 74, 176 74.450, 176 75 M 202.479 76.024 L 200.647 78.047 201.883 79.274 L 203.118 80.500 202.452 78.750 L 201.786 77 202.786 77 C 203.336 77, 204.045 76.325, 204.362 75.500 C 204.678 74.675, 204.796 74, 204.624 74 C 204.451 74, 203.486 74.911, 202.479 76.024 M 159.819 75.981 C 158.344 76.426, 155.757 78.203, 154.069 79.930 L 151 83.069 151 84.959 L 151 86.849 155.942 83.675 L 160.883 80.500 160.942 78.950 C 160.974 78.098, 161.540 76.860, 162.200 76.200 C 162.860 75.540, 163.197 75.039, 162.950 75.086 C 162.703 75.133, 161.293 75.536, 159.819 75.981 M 146.655 78.829 C 145.745 79.835, 145 81.420, 145 82.352 L 145 84.046 147.500 82.408 L 150 80.770 150 78.885 C 150 77.848, 149.620 77, 149.155 77 C 148.690 77, 147.565 77.823, 146.655 78.829 M 127.141 82.637 L 125.858 85.500 127.545 83.848 L 129.232 82.196 128.828 80.985 L 128.424 79.773 127.141 82.637 M 139.476 82.075 C 139.114 83.217, 139.073 84.406, 139.385 84.718 C 139.696 85.030, 140.638 84.716, 141.476 84.020 C 142.314 83.324, 143 82.135, 143 81.378 L 143 80 141.567 80 L 140.135 80 139.476 82.075 M 171.473 83.748 C 171.852 85.259, 172.375 86.709, 172.636 86.969 C 172.896 87.229, 173.479 86.843, 173.932 86.110 C 174.384 85.378, 174.533 83.928, 174.261 82.889 L 173.767 81 172.275 81 L 170.783 81 171.473 83.748 M 197.364 82.220 L 196.702 83.292 199.202 82.664 L 201.703 82.036 202.380 82.714 C 202.753 83.086, 203.779 83.497, 204.660 83.626 L 206.261 83.861 205.305 82.905 C 204.779 82.379, 202.926 81.769, 201.188 81.549 L 198.026 81.149 197.364 82.220 M 213.625 81.798 C 213.354 82.237, 213.595 83.249, 214.160 84.048 L 215.189 85.500 214.651 83.815 L 214.112 82.129 215.306 81.644 L 216.500 81.158 215.309 81.079 C 214.654 81.036, 213.896 81.359, 213.625 81.798 M 122.015 82.628 C 122.024 83.107, 122.417 84.111, 122.890 84.857 L 123.750 86.214 124.364 85.220 L 124.978 84.227 123.489 82.991 L 122 81.755 122.015 82.628 M 130 83.559 L 130 85.118 131 84.500 C 131.550 84.160, 132 83.459, 132 82.941 C 132 82.423, 131.550 82, 131 82 C 130.450 82, 130 82.702, 130 83.559 M 133.070 84.691 C 133.032 85.896, 133.418 87.140, 133.928 87.456 L 134.856 88.029 135.519 85.939 C 135.884 84.790, 135.917 83.583, 135.591 83.258 C 135.266 82.933, 134.968 83.529, 134.930 84.583 L 134.859 86.500 134 84.500 L 133.141 82.500 133.070 84.691 M 195 85.500 C 194.315 86.325, 193.098 87, 192.294 87 L 190.833 87 191.244 88.250 L 191.654 89.500 194.577 89.727 L 197.500 89.954 195.566 89.150 L 193.633 88.345 194.651 87.716 C 195.210 87.370, 197.192 86.819, 199.054 86.491 C 200.916 86.162, 202.584 85.749, 202.762 85.572 C 202.939 85.394, 201.940 85.031, 200.542 84.763 L 198 84.277 198 85.139 C 198 85.612, 197.523 86, 196.941 86 L 195.882 86 196.500 85 C 196.840 84.450, 196.922 84, 196.681 84 C 196.441 84, 195.685 84.675, 195 85.500 M 18.250 86.689 C 19.212 86.941, 20.788 86.941, 21.750 86.689 L 23.500 86.232 20 86.232 L 16.500 86.232 18.250 86.689 M 160.177 87.869 L 158.855 88.708 159.539 92.354 C 159.915 94.359, 160.510 95.986, 160.861 95.968 C 161.213 95.951, 162.319 95.315, 163.321 94.556 L 165.142 93.176 163.545 90.088 C 162.667 88.390, 161.848 87.007, 161.724 87.015 C 161.601 87.024, 160.905 87.408, 160.177 87.869 M 167.638 88.500 C 167.955 89.325, 168.391 90, 168.607 90 C 168.823 90, 169 89.325, 169 88.500 C 169 87.675, 168.564 87, 168.031 87 L 167.063 87 167.638 88.500 M 36 88.383 C 36 88.594, 36.901 89.002, 38.001 89.290 L 40.003 89.813 39.442 88.907 C 39.134 88.408, 38.234 88, 37.441 88 C 36.648 88, 36 88.173, 36 88.383 M 175.689 89.764 L 173.878 90.170 174.519 93.085 L 175.159 96 173.079 96 L 171 96 171 96.969 L 171 97.937 169.506 97.364 L 168.011 96.790 168.660 95.741 L 169.309 94.691 168.114 95.430 L 166.919 96.168 167.507 98.334 L 168.095 100.500 166.982 98.721 L 165.868 96.943 156.184 103.680 C 150.858 107.385, 145.600 111.549, 144.500 112.933 C 143.400 114.317, 141.504 116.810, 140.286 118.474 C 139.069 120.139, 136.726 123.732, 135.080 126.461 C 133.435 129.189, 132.201 131.534, 132.338 131.671 C 132.475 131.808, 133.575 131.662, 134.782 131.347 L 136.978 130.773 136.396 129.832 L 135.815 128.892 138.259 126.696 C 139.603 125.488, 140.941 123.815, 141.233 122.978 L 141.762 121.456 144.530 121.227 C 146.052 121.101, 147.906 120.493, 148.649 119.876 C 149.392 119.260, 150 118.087, 150 117.271 L 150 115.786 151.517 116.368 L 153.034 116.950 158.365 112.122 C 161.298 109.466, 166.240 105.373, 169.349 103.027 C 172.457 100.680, 175 98.337, 175 97.821 L 175 96.882 175.928 97.456 L 176.856 98.029 177.493 96.023 L 178.129 94.018 177.410 92.854 L 176.691 91.691 177.776 92.362 L 178.862 93.033 179.420 92.130 L 179.978 91.227 178.739 90.292 C 178.058 89.778, 176.685 89.540, 175.689 89.764 M 199.179 89.932 C 199.211 90.244, 199.184 91.118, 199.118 91.872 L 199 93.245 197.580 92.067 L 196.161 90.888 196.504 92.694 C 196.693 93.687, 196.881 94.838, 196.923 95.250 C 196.966 95.662, 197.477 96, 198.059 96 L 199.118 96 198.405 94.845 L 197.691 93.691 198.838 94.400 L 199.984 95.108 201.742 94.085 L 203.500 93.061 201.750 93.030 C 200.787 93.014, 200 92.580, 200 92.066 C 200 91.553, 201.238 90.980, 202.750 90.793 L 205.500 90.452 202.311 89.908 C 200.557 89.609, 199.147 89.620, 199.179 89.932 M 31.529 90.954 L 30.936 91.913 29.304 91.286 L 27.672 90.660 28.334 91.731 L 28.996 92.802 32.498 92.703 C 34.424 92.648, 36 92.484, 36 92.337 C 36 92.190, 35.127 91.603, 34.061 91.032 L 32.121 89.995 31.529 90.954 M 27 94.882 C 27 95.432, 27.450 96.160, 28 96.500 L 29 97.118 29 96.118 C 29 95.568, 28.550 94.840, 28 94.500 L 27 93.882 27 94.882 M 144.111 95 C 144.044 95.825, 142.865 98.300, 141.490 100.500 L 138.990 104.500 139.432 101.730 L 139.875 98.959 138.937 99.539 C 138.422 99.857, 138 100.718, 138 101.452 C 138 102.186, 137.325 103.045, 136.500 103.362 L 135 103.937 135 106 L 135 108.063 133.563 108.614 L 132.126 109.166 132.599 110.398 C 132.859 111.076, 132.634 112.726, 132.099 114.065 L 131.127 116.500 131.060 114 L 130.993 111.500 129.119 114.573 L 127.245 117.645 127.270 128.454 L 127.295 139.264 135.110 123.382 L 142.926 107.500 144.035 102.244 C 144.645 99.353, 144.939 96.203, 144.688 95.244 L 144.232 93.500 144.111 95 M 157.405 94.845 C 157.797 95.480, 157.852 96.430, 157.527 96.956 L 156.936 97.913 155.474 97.352 L 154.011 96.790 154.660 95.741 L 155.309 94.691 154.155 95.405 C 153.520 95.797, 152.964 96.879, 152.921 97.809 L 152.842 99.500 152.338 98.250 C 152.060 97.563, 151.472 97, 151.031 97 C 150.589 97, 149.536 98.463, 148.691 100.250 C 147.846 102.037, 146.853 104.709, 146.484 106.187 L 145.815 108.875 151.657 103.452 C 154.871 100.470, 157.838 98.023, 158.250 98.015 C 158.662 98.007, 159 97.352, 159 96.559 C 159 95.766, 158.480 94.797, 157.845 94.405 L 156.691 93.691 157.405 94.845 M 34 97 C 34 97.550, 34.413 98, 34.918 98 C 35.423 98, 36.661 98.286, 37.668 98.635 L 39.500 99.269 37.500 97.666 C 36.400 96.785, 35.163 96.049, 34.750 96.032 C 34.337 96.014, 34 96.450, 34 97 M 30.460 98.065 L 29.918 98.941 32.506 99.591 C 33.929 99.948, 35.264 100.069, 35.474 99.860 C 35.683 99.650, 34.762 98.964, 33.428 98.334 L 31.001 97.189 30.460 98.065 M 40.425 97.879 C 40.724 98.363, 41.988 99.016, 43.234 99.330 L 45.500 99.901 43.559 98.450 C 42.491 97.653, 41.227 97, 40.750 97 C 40.273 97, 40.127 97.396, 40.425 97.879 M 128.729 98.604 C 128.328 99.005, 128 100.023, 128 100.867 L 128 102.400 129.113 101.287 C 129.724 100.676, 130.053 99.657, 129.842 99.025 L 129.458 97.875 128.729 98.604 M 194.768 101.168 C 195.350 101.750, 196.415 102.028, 197.137 101.788 L 198.448 101.351 196.080 100.731 L 193.712 100.112 194.768 101.168 M 18 102 C 18 102.550, 18.675 103, 19.500 103 C 20.325 103, 21 102.550, 21 102 C 21 101.450, 20.325 101, 19.500 101 C 18.675 101, 18 101.450, 18 102 M 31 102 C 31.825 102.533, 32.950 102.969, 33.500 102.969 L 34.500 102.969 33 102 C 32.175 101.467, 31.050 101.031, 30.500 101.031 L 29.500 101.031 31 102 M 43 101.800 C 43 102.240, 43.540 103.140, 44.200 103.800 C 44.860 104.460, 46.210 105, 47.200 105 C 48.190 105, 49 104.640, 49 104.200 C 49 103.760, 48.460 102.860, 47.800 102.200 C 47.140 101.540, 45.790 101, 44.800 101 C 43.810 101, 43 101.360, 43 101.800 M 52.441 102.445 L 54.382 104 53.183 104 L 51.983 104 53.232 106 C 53.919 107.100, 55.048 108, 55.741 108 C 56.433 108, 57 107.536, 57 106.969 C 57 106.401, 56.328 105.679, 55.506 105.364 L 54.011 104.790 54.534 103.945 L 55.056 103.100 52.778 101.995 L 50.500 100.890 52.441 102.445 M 58.229 103.187 C 58.447 103.840, 59.159 104.553, 59.813 104.771 L 61 105.167 61 104.190 C 61 103.653, 60.287 102.941, 59.416 102.606 L 57.833 101.999 58.229 103.187 M 83.621 103.756 C 83.791 104.035, 83.443 105.216, 82.848 106.381 L 81.766 108.500 83.590 106.757 L 85.414 105.014 84.363 104.132 C 83.785 103.647, 83.451 103.478, 83.621 103.756 M 26 105.558 C 26 105.763, 26.900 106.411, 28 107 L 30 108.070 30 107.152 C 30 106.647, 29.100 105.998, 28 105.710 C 26.900 105.423, 26 105.354, 26 105.558 M 37.500 108 C 37.840 108.550, 38.568 109, 39.118 109 L 40.118 109 39.500 108 C 39.160 107.450, 38.432 107, 37.882 107 L 36.882 107 37.500 108 M 174.500 108.036 C 173.950 108.550, 171.025 111.268, 168 114.074 L 162.500 119.177 166.500 116.929 C 168.700 115.693, 171.963 113.605, 173.750 112.290 L 177 109.898 177 108.449 C 177 107.652, 176.662 107.022, 176.250 107.050 C 175.838 107.078, 175.050 107.521, 174.500 108.036 M 48 109.487 C 48 110.201, 48.712 111.059, 49.582 111.393 C 50.452 111.727, 51.563 112, 52.050 112 L 52.937 112 52.399 110.599 C 52.104 109.828, 50.993 108.970, 49.931 108.692 L 48 108.187 48 109.487 M 174.876 112.925 L 170.500 117.933 167.867 118.379 C 166.418 118.624, 162.368 120.750, 158.867 123.103 C 155.365 125.455, 150.813 128.682, 148.750 130.274 C 146.688 131.866, 144.993 132.793, 144.985 132.334 L 144.969 131.500 144.235 132.548 C 143.831 133.124, 141.371 134.826, 138.768 136.329 C 136.166 137.833, 133.563 139.949, 132.983 141.031 C 132.404 142.114, 132.101 143, 132.311 143 C 132.521 143, 136.249 141.709, 140.596 140.132 C 144.943 138.555, 150.161 136.564, 152.191 135.708 C 154.221 134.852, 158.946 131.607, 162.691 128.498 C 166.436 125.388, 172.044 120.381, 175.154 117.371 L 180.808 111.899 180.600 110.478 C 180.485 109.697, 180.135 108.801, 179.821 108.488 C 179.508 108.174, 177.282 110.171, 174.876 112.925 M 35.570 109.887 L 35.022 110.773 36.761 112.137 L 38.500 113.500 37.259 111.908 L 36.017 110.316 36.675 109.658 C 37.037 109.296, 37.060 109, 36.726 109 C 36.391 109, 35.871 109.399, 35.570 109.887 M 83 109.333 C 83 109.516, 84.912 111.162, 87.250 112.991 C 89.588 114.821, 90.938 115.706, 90.250 114.959 C 89.563 114.211, 89 113.213, 89 112.741 L 89 111.882 90.250 112.633 L 91.500 113.384 90.128 111.692 C 89.373 110.761, 88.559 110, 88.319 110 C 88.078 110, 88.160 110.450, 88.500 111 L 89.118 112 88.130 112 C 87.587 112, 86.468 111.325, 85.643 110.500 C 84.818 109.675, 83.886 109, 83.571 109 C 83.257 109, 83 109.150, 83 109.333 M 66.425 111.879 C 66.724 112.363, 67.876 112.996, 68.984 113.286 L 71 113.813 71 113.013 C 71 112.574, 70.288 111.941, 69.418 111.607 C 68.548 111.273, 67.397 111, 66.859 111 L 65.882 111 66.425 111.879 M 182 112.905 C 182 113.403, 179.117 116.794, 175.593 120.441 C 172.069 124.089, 168.933 127.732, 168.624 128.537 L 168.063 130 166.154 130 C 165.104 130, 163.685 130.675, 163 131.500 L 161.755 133 166.801 133 L 171.847 133 174.818 130.500 C 176.452 129.125, 178.044 128, 178.356 128 C 178.668 128, 181.014 125.968, 183.569 123.485 L 188.214 118.971 186.560 115.485 L 184.906 112 183.453 112 C 182.654 112, 182 112.407, 182 112.905 M 64.550 113.888 C 65.073 114.376, 66.625 115.074, 68 115.439 L 70.500 116.104 68.559 114.552 C 67.491 113.698, 65.939 113, 65.109 113 L 63.600 113 64.550 113.888 M 93 115.500 L 91.755 117 92.771 117 C 93.329 117, 94.045 116.325, 94.362 115.500 C 94.678 114.675, 94.781 114, 94.591 114 C 94.401 114, 93.685 114.675, 93 115.500 M 48.150 115.950 C 48.370 116.610, 48.876 117.116, 49.275 117.075 C 49.674 117.034, 50.034 116.674, 50.075 116.275 C 50.116 115.876, 49.610 115.370, 48.950 115.150 L 47.750 114.750 48.150 115.950 M 43 118.500 C 44.292 119.875, 45.574 121, 45.849 121 C 46.124 121, 45.292 119.875, 44 118.500 C 42.708 117.125, 41.426 116, 41.151 116 C 40.876 116, 41.708 117.125, 43 118.500 M 81.903 117.250 L 83.245 119 79.122 119 L 75 119 75 119.778 C 75 120.206, 76.011 121.422, 77.248 122.480 C 78.484 123.539, 86.021 127.681, 93.998 131.686 C 101.974 135.691, 108.140 138.975, 107.700 138.984 C 107.261 138.993, 105.560 138.307, 103.921 137.459 L 100.941 135.918 99.971 136.518 L 99 137.118 99 136.176 C 99 135.657, 97.767 134.998, 96.261 134.709 L 93.521 134.186 91.640 135.193 L 89.759 136.200 90.307 135.312 L 90.856 134.423 85.203 134.187 L 79.550 133.950 80.700 135.100 L 81.850 136.250 85.552 136.439 L 89.254 136.627 90.487 138.314 C 91.166 139.241, 92.233 140, 92.860 140 C 93.487 140, 93.887 139.494, 93.750 138.875 C 93.612 138.256, 94.082 137.537, 94.794 137.277 L 96.087 136.804 95.435 139.402 L 94.783 142 96.892 142 L 99 142 99 140.845 L 99 139.690 100.911 141.419 L 102.821 143.148 105.773 142.683 C 107.396 142.427, 109.799 141.645, 111.112 140.945 L 113.500 139.673 112.128 141.336 L 110.755 143 113.319 143 C 114.728 143, 116.110 142.630, 116.390 142.178 C 116.669 141.726, 115.919 140.519, 114.724 139.496 C 113.529 138.472, 111.189 136.692, 109.525 135.539 C 107.861 134.387, 104.118 131.713, 101.208 129.598 C 98.297 127.482, 96.184 125.483, 96.512 125.155 C 96.840 124.826, 97.527 125.220, 98.039 126.029 L 98.969 127.500 98.985 125.750 L 99 124 97.941 124 L 96.882 124 97.500 123 L 98.118 122 97.166 122 C 96.642 122, 95.946 122.697, 95.619 123.549 L 95.025 125.099 90.262 122.383 C 87.643 120.890, 84.389 118.730, 83.030 117.584 L 80.561 115.500 81.903 117.250 M 58.500 118 L 57.882 119 59.441 119 C 60.298 119, 61 118.550, 61 118 C 61 117.450, 60.577 117, 60.059 117 C 59.541 117, 58.840 117.450, 58.500 118 M 66 119 L 66 120 63.833 120 C 62.642 120, 61.931 120.264, 62.254 120.587 C 62.577 120.911, 64.455 121.539, 66.426 121.983 L 70.011 122.792 70.630 121.789 L 71.250 120.786 72.009 122.015 L 72.769 123.244 74.134 122.778 L 75.500 122.312 71.062 120.156 C 68.621 118.970, 66.484 118, 66.312 118 C 66.140 118, 66 118.450, 66 119 M 92.580 119.652 L 91.927 121.355 93.517 122.928 L 95.108 124.500 94.525 122.953 L 93.942 121.406 96.221 120.401 C 97.474 119.848, 97.880 119.539, 97.123 119.715 C 96.366 119.891, 95.181 119.565, 94.490 118.992 L 93.234 117.949 92.580 119.652 M 54 121 C 54 121.550, 54.702 122, 55.559 122 L 57.118 122 56.500 121 C 56.160 120.450, 55.459 120, 54.941 120 C 54.423 120, 54 120.450, 54 121 M 48 124.500 C 49.292 125.875, 50.574 127, 50.849 127 C 51.124 127, 50.292 125.875, 49 124.500 C 47.708 123.125, 46.426 122, 46.151 122 C 45.876 122, 46.708 123.125, 48 124.500 M 201.158 124 L 201.158 126.500 201.662 125.250 C 201.940 124.563, 201.940 123.438, 201.662 122.750 L 201.158 121.500 201.158 124 M 63.004 125.495 L 62.025 126.675 64.262 128.745 L 66.500 130.816 76 130.818 L 85.500 130.820 83 130.072 L 80.500 129.323 80.775 128.087 L 81.050 126.851 80.025 127.485 L 79 128.118 79 127.059 C 79 126.477, 78.362 126, 77.583 126 C 76.804 126, 75.938 126.563, 75.659 127.250 L 75.152 128.500 74.179 127.107 L 73.205 125.714 68.595 125.014 L 63.984 124.315 63.004 125.495 M 102.768 126.168 C 103.350 126.750, 104.415 127.028, 105.137 126.788 L 106.448 126.351 104.080 125.731 L 101.712 125.112 102.768 126.168 M 116 126 C 116 126.550, 116.450 127, 117 127 C 117.550 127, 118 126.550, 118 126 C 118 125.450, 117.550 125, 117 125 C 116.450 125, 116 125.450, 116 126 M 107 128.251 L 107 129.571 109 129.571 C 110.100 129.571, 111 129.459, 111 129.321 C 111 129.183, 110.100 128.589, 109 128 L 107 126.930 107 128.251 M 186.212 128.564 L 183.979 130.128 182.240 129.576 L 180.500 129.025 177.589 131.347 L 174.677 133.669 175.398 134.834 C 175.794 135.476, 177.135 136, 178.378 136 C 179.620 136, 182.892 135.330, 185.647 134.512 L 190.657 133.024 190.215 130.012 C 189.972 128.355, 189.474 127, 189.109 127 C 188.744 127, 187.440 127.704, 186.212 128.564 M 201.232 131 L 201.232 134.500 201.689 132.750 C 201.941 131.787, 201.941 130.213, 201.689 129.250 L 201.232 127.500 201.232 131 M 116.012 131.023 C 116.594 132.110, 117.280 133, 117.535 133 C 117.791 133, 118 132.373, 118 131.607 C 118 130.841, 117.315 129.951, 116.477 129.629 L 114.954 129.045 116.012 131.023 M 183.229 132.188 C 183.447 132.841, 184.160 133.553, 184.813 133.771 L 186.001 134.167 185.394 132.584 C 185.059 131.713, 184.347 131, 183.810 131 L 182.833 131 183.229 132.188 M 69 134.889 C 69 135.378, 69.929 136.841, 71.064 138.139 L 73.129 140.500 72.695 139 L 72.261 137.500 73.785 135.750 L 75.310 134 72.155 134 L 69 134 69 134.889 M 162.750 135.728 L 159 136.121 159 137.433 L 159 138.744 154.750 139.479 C 152.412 139.882, 149.222 140.386, 147.660 140.597 C 146.098 140.809, 142.819 141.661, 140.375 142.491 C 137.930 143.321, 135.158 144.014, 134.215 144.032 L 132.500 144.064 134.441 145.532 C 135.509 146.339, 137.534 147.016, 138.941 147.035 C 140.349 147.055, 142.625 147.714, 144 148.500 L 146.500 149.929 151.095 149.965 L 155.690 150 157.407 148.103 L 159.123 146.206 163.312 145.105 L 167.500 144.003 171 140.994 L 174.500 137.985 172.559 136.492 C 171.491 135.672, 169.691 135.076, 168.559 135.168 C 167.426 135.261, 164.813 135.513, 162.750 135.728 M 187.541 136.933 C 187.179 137.520, 186.100 138, 185.144 138 L 183.406 138 180.953 140.958 C 179.604 142.584, 177.825 143.980, 177 144.060 C 176.175 144.140, 177.075 144.593, 179 145.068 C 180.925 145.543, 183.041 145.744, 183.703 145.515 C 184.364 145.286, 185.824 143.199, 186.946 140.876 C 188.068 138.553, 188.809 136.476, 188.593 136.260 C 188.377 136.044, 187.904 136.347, 187.541 136.933 M 84.750 138.662 C 85.438 138.940, 86.563 138.940, 87.250 138.662 L 88.500 138.158 86 138.158 L 83.500 138.158 84.750 138.662 M 189 142 L 186.959 146 188.819 146 L 190.679 146 191.839 143.453 C 192.478 142.052, 193 140.252, 193 139.453 C 193 138.654, 192.559 138, 192.020 138 C 191.482 138, 190.122 139.800, 189 142 M 103.500 140 L 102.882 141 104.500 141 L 106.118 141 105.500 140 C 105.160 139.450, 104.710 139, 104.500 139 C 104.290 139, 103.840 139.450, 103.500 140 M 175.726 140.940 L 175.218 142.880 177.109 141.700 C 178.149 141.050, 179 140.177, 179 139.759 C 179 139.342, 178.377 139, 177.617 139 L 176.233 139 175.726 140.940 M 63.615 146.500 C 63.969 148.150, 64.576 149.853, 64.965 150.285 L 65.671 151.071 65.533 149.285 C 65.457 148.303, 64.850 146.600, 64.184 145.500 L 62.973 143.500 63.615 146.500 M 102.269 145.693 C 103.242 145.947, 104.592 145.930, 105.269 145.656 L 106.500 145.158 103.500 145.195 L 100.500 145.232 102.269 145.693 M 59.689 146.750 C 59.452 147.162, 59.389 148.306, 59.547 149.291 L 59.835 151.082 57.668 150.493 L 55.500 149.905 57.237 150.995 L 58.973 152.085 60.987 151.007 C 62.094 150.414, 63 149.495, 63 148.965 C 63 148.434, 62.523 148, 61.941 148 L 60.882 148 61.500 147 L 62.118 146 61.118 146 C 60.568 146, 59.925 146.338, 59.689 146.750 M 160.223 148.557 C 159 149.413, 158 150.561, 158 151.108 C 158 151.655, 159.561 152.754, 161.468 153.551 C 163.375 154.348, 165.918 155, 167.118 155 C 168.319 155, 171.672 156.160, 174.570 157.578 L 179.840 160.156 181.920 159.043 C 183.064 158.431, 184 157.492, 184 156.956 L 184 155.983 182.025 157.216 L 180.050 158.450 178.918 157.318 L 177.787 156.187 179.643 156.343 L 181.500 156.500 181.208 155.125 C 181.048 154.369, 181.698 152.887, 182.652 151.832 L 184.388 149.914 182.694 150.564 L 181 151.214 181 149.674 L 181 148.135 179 147.500 C 177.900 147.151, 176.093 147.153, 174.985 147.505 L 172.971 148.144 173.544 149.072 L 174.118 150 172.309 149.965 C 171.314 149.945, 169.375 149.286, 168 148.500 C 166.625 147.714, 164.813 147.055, 163.973 147.035 C 163.132 147.016, 161.445 147.701, 160.223 148.557 M 94 149.700 L 94 151.400 92.800 150.200 C 92.140 149.540, 91.254 149, 90.831 149 L 90.063 149 90.628 150.473 L 91.193 151.946 94.347 152.419 C 96.081 152.679, 99.300 153.121, 101.500 153.400 L 105.500 153.909 103.938 152.704 C 103.079 152.042, 102.081 150.713, 101.719 149.750 L 101.063 148 97.531 148 L 94 148 94 149.700 M 107.664 148.747 C 107.412 149.161, 108.236 150.272, 109.495 151.216 L 111.785 152.931 112.353 150.759 C 112.665 149.565, 112.714 148.380, 112.460 148.127 C 112.207 147.874, 112 148.207, 112 148.869 L 112 150.070 110.061 149.032 L 108.121 147.995 107.664 148.747 M 174.107 151.115 L 171.778 153 173.139 152.986 C 173.888 152.979, 175.512 152.701, 176.750 152.370 C 177.988 152.038, 179 151.417, 179 150.990 C 179 150.563, 178.423 149.992, 177.717 149.722 L 176.435 149.230 174.107 151.115 M 119 151.500 L 119 153 117.500 153 C 116.675 153, 116 153.210, 116 153.466 C 116 153.722, 116.749 155.503, 117.665 157.423 L 119.330 160.914 120.319 160.303 L 121.309 159.691 120.514 160.977 L 119.720 162.262 116.610 158.559 L 113.500 154.856 111.500 156.765 L 109.500 158.674 107 156.934 L 104.500 155.193 98.203 154.687 L 91.905 154.181 93.095 155.615 C 93.750 156.403, 94.066 157.267, 93.799 157.534 C 93.532 157.801, 92.147 156.939, 90.722 155.618 L 88.131 153.217 87.526 154.792 L 86.922 156.367 88.711 158.117 L 90.500 159.868 94.855 160.498 L 99.211 161.128 102.675 159.484 L 106.140 157.840 107.502 158.363 L 108.865 158.885 109.182 162.177 L 109.500 165.468 112.327 165.680 C 113.882 165.797, 116.357 165.394, 117.827 164.786 C 119.297 164.177, 121.028 163.763, 121.674 163.866 L 122.848 164.053 123.531 161.902 L 124.214 159.750 123.060 159.037 L 121.905 158.323 123.453 157.039 C 124.304 156.333, 125 155.072, 125 154.238 C 125 153.403, 124.213 152.123, 123.250 151.392 C 122.287 150.661, 120.938 150.049, 120.250 150.032 L 119 150 119 151.500 M 135.552 150.916 L 134.985 151.833 140.591 156.622 C 143.675 159.256, 146.716 161.495, 147.349 161.597 C 147.982 161.699, 150.300 162.116, 152.500 162.524 L 156.500 163.266 154.250 160.818 C 153.012 159.472, 152 157.838, 152 157.186 C 152 156.533, 152.429 156, 152.953 156 C 153.477 156, 155.082 156.536, 156.520 157.191 L 159.133 158.382 158.660 160.191 C 158.400 161.186, 158.485 162, 158.849 162 C 159.213 162, 159.991 160.464, 160.579 158.586 L 161.647 155.173 152.533 152.586 C 147.520 151.164, 141.776 150, 139.769 150 L 136.118 150 135.552 150.916 M 69.526 152.817 L 70.200 154.133 68.361 155.478 L 66.522 156.823 65.511 156.270 C 64.955 155.967, 65.296 156.562, 66.269 157.592 L 68.038 159.466 69.709 158.412 C 70.629 157.832, 71.526 156.921, 71.704 156.388 C 71.882 155.855, 71.313 154.537, 70.439 153.460 C 69.566 152.382, 69.155 152.092, 69.526 152.817 M 56.500 154.464 L 53.500 155.838 55.059 155.919 C 55.916 155.963, 57.491 155.339, 58.559 154.532 C 59.626 153.724, 60.275 153.070, 60 153.077 C 59.725 153.084, 58.150 153.708, 56.500 154.464 M 126.571 154.571 C 125.707 155.436, 125 156.561, 125 157.071 C 125 157.582, 125.527 158, 126.171 158 C 126.815 158, 128.168 158.747, 129.177 159.661 C 130.187 160.574, 131.299 161.035, 131.649 160.685 C 131.999 160.335, 131.716 159.362, 131.020 158.524 C 130.324 157.686, 130.121 157, 130.569 157 C 131.016 157, 130.509 156.292, 129.441 155.426 C 128.374 154.560, 128.132 154.180, 128.905 154.580 L 130.309 155.309 129.595 154.155 C 129.203 153.520, 128.716 153, 128.512 153 C 128.309 153, 127.436 153.707, 126.571 154.571 M 67.500 157 L 66.882 158 68.382 158 C 69.207 158, 70.160 157.550, 70.500 157 L 71.118 156 69.618 156 C 68.793 156, 67.840 156.450, 67.500 157 M 162.526 158.950 C 161.687 160.573, 161 162.076, 161 162.290 C 161 162.505, 162.767 163.263, 164.926 163.975 L 168.851 165.271 170.478 164.647 L 172.104 164.023 171.493 165.011 L 170.882 166 174.191 165.921 L 177.500 165.842 176.208 165.324 L 174.917 164.806 176.044 163.447 L 177.172 162.088 176.463 160.940 C 176.073 160.308, 173.896 158.948, 171.627 157.918 C 169.357 156.887, 166.724 156.034, 165.776 156.022 L 164.051 156 162.526 158.950 M 61.427 158.479 C 60.367 159.280, 59.950 159.944, 60.500 159.953 C 61.050 159.962, 62.162 159.551, 62.971 159.039 C 63.780 158.527, 64.197 157.864, 63.898 157.565 C 63.599 157.265, 62.487 157.677, 61.427 158.479 M 187.225 161.010 L 184.042 162.945 184.602 164.404 L 185.161 165.863 188.238 162.923 C 189.931 161.305, 191.111 159.778, 190.861 159.528 C 190.612 159.278, 188.975 159.945, 187.225 161.010 M 65.940 162.294 C 64.575 163.507, 63.860 164.198, 64.351 163.828 C 64.842 163.459, 65.938 163.423, 66.786 163.748 L 68.328 164.340 67.658 163.255 L 66.988 162.171 68.244 161.722 C 68.935 161.476, 69.257 161.007, 68.961 160.681 C 68.664 160.355, 67.305 161.081, 65.940 162.294 M 128.558 161.775 C 128.251 162.082, 128 162.933, 128 163.667 L 128 165 129.622 165 L 131.245 165 129.872 166.687 L 128.500 168.374 130.250 167.719 L 132 167.063 132 168.731 L 132 170.400 132.893 169.450 L 133.785 168.500 133.293 165.340 L 132.800 162.181 130.958 161.699 C 129.945 161.434, 128.865 161.469, 128.558 161.775 M 94 162.764 C 94 163.221, 95.776 165.328, 97.946 167.447 L 101.892 171.301 104.446 169.627 L 107 167.954 107 166.036 C 107 164.981, 106.500 163.809, 105.888 163.431 C 105.276 163.053, 102.351 162.561, 99.388 162.339 L 94 161.935 94 162.764 M 143.310 164.415 C 142.656 165.170, 142.393 166.060, 142.727 166.393 C 143.060 166.727, 143.708 167, 144.167 167 C 144.625 167, 145 166.298, 145 165.441 L 145 163.882 146.016 164.510 L 147.033 165.138 146.457 166.069 L 145.882 167 147.014 167 L 148.147 167 147.812 165.261 L 147.477 163.523 145.989 163.283 C 145.170 163.152, 143.965 163.661, 143.310 164.415 M 70 165.892 L 70 167.118 68.845 166.405 L 67.691 165.691 68.458 166.933 L 69.226 168.174 70.296 167.104 L 71.367 166.033 70.683 165.350 L 70 164.667 70 165.892 M 118.112 167.250 C 117.650 168.488, 117.053 171.863, 116.783 174.750 L 116.294 180 117.897 180.032 C 118.779 180.049, 120.374 180.724, 121.441 181.532 C 122.509 182.339, 124.143 183, 125.073 183 L 126.764 183 125.426 179.250 C 124.690 177.188, 124.068 173.849, 124.044 171.832 C 124.020 169.814, 123.727 167.452, 123.393 166.582 L 122.786 165 120.868 165 L 118.950 165 118.112 167.250 M 150.459 166.067 C 150.096 166.653, 149.957 167.283, 150.150 167.466 C 150.342 167.649, 151.080 167.169, 151.789 166.399 L 153.079 165 152.098 165 C 151.559 165, 150.821 165.480, 150.459 166.067 M 65.655 169.368 C 65.241 170.945, 65.150 172.483, 65.451 172.785 C 65.753 173.086, 66 172.822, 66 172.198 L 66 171.063 67.750 171.626 L 69.500 172.189 68.366 171.344 C 67.742 170.880, 67.046 169.600, 66.820 168.500 L 66.408 166.500 65.655 169.368 M 110.611 168.531 C 109.769 169.374, 107.663 170.659, 105.931 171.387 L 102.782 172.711 107.539 175.922 L 112.296 179.132 113.523 177.816 C 114.198 177.092, 115.023 174.363, 115.356 171.750 L 115.962 167 114.052 167 C 113.002 167, 111.454 167.689, 110.611 168.531 M 147.267 169.750 C 147.271 170.713, 147.198 172.175, 147.105 173 L 146.936 174.500 145.468 172.559 C 144.661 171.491, 144.014 171.041, 144.032 171.559 C 144.049 172.076, 144.618 173.228, 145.295 174.117 L 146.526 175.733 147.513 174.617 C 148.056 174.003, 148.591 172.262, 148.703 170.750 L 148.906 168 148.083 168 C 147.631 168, 147.264 168.787, 147.267 169.750 M 49.573 170.521 C 48.513 171.323, 47.878 172.212, 48.162 172.496 C 48.447 172.780, 49.496 172.110, 50.494 171.006 C 51.493 169.903, 52.128 169.014, 51.905 169.032 C 51.682 169.049, 50.633 169.720, 49.573 170.521 M 159.015 171.954 L 156.530 173.863 157.265 174.598 L 158 175.333 158 174.260 L 158 173.187 160 173.710 L 162 174.233 162 172.117 C 162 170.952, 161.887 170.010, 161.750 170.022 C 161.613 170.034, 160.382 170.904, 159.015 171.954 M 135.647 173.320 C 136.655 174.519, 137.572 175.663, 137.686 175.863 C 137.800 176.063, 137.823 175.303, 137.738 174.175 L 137.584 172.124 135.700 171.632 L 133.816 171.139 135.647 173.320 M 171.015 171.595 C 171.024 172.093, 171.422 173.117, 171.900 173.872 L 172.769 175.244 173.961 174.846 L 175.153 174.449 173.077 172.569 C 171.935 171.536, 171.007 171.097, 171.015 171.595 M 182.325 174.303 L 182.149 177.500 183.105 175.080 L 184.061 172.661 183.280 171.884 L 182.500 171.107 182.325 174.303 M 127.158 174.310 L 126.001 175.704 127.146 179.102 C 127.775 180.971, 128.730 183.063, 129.268 183.750 C 129.805 184.438, 130.584 185, 130.997 185 C 131.411 185, 132.020 183.762, 132.351 182.250 C 132.681 180.738, 133.240 178.488, 133.593 177.250 L 134.233 175 132.317 175 C 131.262 175, 129.931 174.531, 129.358 173.958 L 128.315 172.915 127.158 174.310 M 149.672 174.412 L 149.183 175.688 151.740 175.199 L 154.297 174.710 153.660 175.742 L 153.022 176.773 154.535 178.029 C 155.367 178.720, 156.323 179.010, 156.660 178.674 C 156.996 178.337, 156.590 177.023, 155.758 175.753 L 154.245 173.444 152.203 173.290 L 150.162 173.136 149.672 174.412 M 69.397 178.167 L 68.882 179 70.382 179 C 71.207 179, 72.114 178.625, 72.397 178.167 L 72.912 177.333 71.412 177.333 C 70.587 177.333, 69.680 177.708, 69.397 178.167 M 95.834 177.566 C 95.552 178.080, 95.918 179.625, 96.646 181 L 97.971 183.500 97.915 182 C 97.884 181.175, 97.519 179.630, 97.102 178.566 L 96.345 176.633 95.834 177.566 M 150 178 C 150 178.550, 150.477 179, 151.059 179 C 151.641 179, 151.886 179.375, 151.603 179.833 L 151.088 180.667 152.448 180.667 L 153.809 180.667 152.664 178.833 C 152.034 177.825, 151.177 177, 150.759 177 C 150.342 177, 150 177.450, 150 178 M 180.137 180.894 L 178.774 181.758 180.137 182.300 L 181.500 182.842 180.250 182.921 C 179.563 182.964, 179 183.436, 179 183.969 L 179 184.937 180.401 184.399 C 181.172 184.104, 182.030 182.993, 182.308 181.931 C 182.586 180.869, 182.517 180.007, 182.156 180.015 C 181.795 180.024, 180.887 180.419, 180.137 180.894 M 188.429 181.886 L 188.429 183.773 189.740 183.270 L 191.051 182.766 189.903 181.383 C 189.272 180.622, 188.682 180, 188.592 180 C 188.502 180, 188.429 180.849, 188.429 181.886 M 153.558 183.907 L 152.997 184.813 155.249 184.396 C 156.487 184.166, 156.980 184.231, 156.345 184.540 L 155.191 185.103 157.595 187.698 C 158.918 189.125, 160 190.731, 160 191.268 L 160 192.245 158.444 190.953 L 156.887 189.661 157.194 191.057 C 157.362 191.824, 158.103 193.099, 158.841 193.888 L 160.182 195.324 161.036 193.942 L 161.891 192.559 159.945 189.411 C 158.875 187.680, 158 185.530, 158 184.632 L 158 183 156.059 183 C 154.991 183, 153.866 183.408, 153.558 183.907 M 113.035 185.934 C 112.466 186.998, 112 188.209, 112 188.625 C 112 189.042, 112.712 188.509, 113.582 187.441 L 115.163 185.500 114.613 187.250 L 114.063 189 115.031 189 C 115.564 189, 116 188.587, 116 188.082 C 116 187.577, 116.273 186.452, 116.607 185.582 L 117.214 184 115.642 184 L 114.070 184 113.035 185.934 M 100 187.500 C 99.315 188.325, 99.067 189, 99.449 189 C 99.831 189, 100.818 188.325, 101.643 187.500 L 103.143 186 102.194 186 C 101.672 186, 100.685 186.675, 100 187.500 M 109.019 189.988 C 108.236 190.472, 107.240 190.648, 106.806 190.380 C 106.371 190.111, 105.279 190.304, 104.380 190.807 L 102.743 191.723 103.872 192.421 L 105 193.118 105 191.868 L 105 190.618 106.468 192.559 L 107.936 194.500 107.984 193 L 108.031 191.500 108.949 192.952 C 109.455 193.751, 109.649 194.758, 109.382 195.191 L 108.896 195.977 110.441 195.384 L 111.986 194.791 111.352 192.146 C 111.004 190.691, 110.656 189.412, 110.580 189.304 C 110.504 189.197, 109.802 189.505, 109.019 189.988 M 117.352 193.692 C 117.270 195.033, 117.285 195.988, 117.385 195.815 C 117.484 195.642, 118.125 194.765, 118.808 193.867 L 120.051 192.234 118.776 191.744 L 117.500 191.255 117.352 193.692 M 170 194.059 L 170 196.118 170.956 195.527 L 171.913 194.936 171.349 193.468 C 171.040 192.661, 170.609 192, 170.393 192 C 170.177 192, 170 192.927, 170 194.059 M 167 194 C 167 194.550, 167.450 195, 168 195 C 168.550 195, 169 194.550, 169 194 C 169 193.450, 168.550 193, 168 193 C 167.450 193, 167 193.450, 167 194 M 124.638 199.500 C 124.955 200.325, 125.391 201, 125.607 201 C 125.823 201, 126 200.325, 126 199.500 C 126 198.675, 125.564 198, 125.031 198 L 124.063 198 124.638 199.500 M 115.554 207.902 L 113.607 208.664 115.637 209.195 L 117.667 209.726 117.667 208.363 C 117.667 207.613, 117.629 207.032, 117.583 207.070 C 117.537 207.109, 116.624 207.483, 115.554 207.902" stroke="none" fill="#58c5ec" fill-rule="evenodd"/><path d="M 168.651 25.238 L 169.220 28.746 168.181 29.388 L 167.141 30.031 165.882 26.550 L 164.623 23.068 163.119 24.284 L 161.616 25.500 162.367 24.250 L 163.118 23 162.309 23.015 C 161.864 23.024, 160.997 23.361, 160.383 23.765 L 159.266 24.500 159.383 26.969 L 159.500 29.438 157.500 29.814 C 156.400 30.022, 154.488 31.343, 153.250 32.751 C 152.012 34.159, 151 36.141, 151 37.156 C 151 38.170, 150.213 39.817, 149.250 40.815 C 148.287 41.813, 146.604 44.400, 145.510 46.565 C 144.415 48.729, 143.139 50.775, 142.674 51.112 C 142.209 51.448, 141.868 52.011, 141.915 52.362 C 141.962 52.713, 141.948 53.337, 141.885 53.750 C 141.821 54.163, 141.709 55.175, 141.635 56 L 141.500 57.500 140.250 57.250 L 139 57 139 59.417 L 139 61.833 140.080 62.193 L 141.161 62.554 139.938 65.236 L 138.716 67.918 136.772 66.878 C 135.703 66.306, 134.580 66.087, 134.276 66.391 C 133.971 66.695, 134.948 67.410, 136.445 67.979 L 139.168 69.014 140.168 68.396 L 141.168 67.778 140.810 70.139 L 140.453 72.500 139.288 72.271 C 138.648 72.144, 136.746 71.936, 135.062 71.808 L 132 71.575 131.985 70.037 L 131.969 68.500 131.017 70 L 130.064 71.500 131.032 71.833 C 131.564 72.017, 132 72.804, 132 73.583 C 132 74.362, 131.550 75, 131 75 L 130 75 129.884 77.250 L 129.768 79.500 129.292 77.652 L 128.816 75.804 126.405 81.008 L 123.994 86.212 122.548 85.657 L 121.102 85.102 121.747 86.801 C 122.102 87.735, 122.931 89.544, 123.589 90.821 L 124.786 93.142 125.230 91.821 L 125.675 90.500 127.205 91.762 L 128.735 93.025 128.381 96.063 L 128.027 99.101 129.014 98.492 L 130 97.882 129.968 99.191 C 129.951 99.911, 129.321 101.311, 128.569 102.303 L 127.202 104.106 126.641 102.803 C 126.332 102.086, 126.345 102.778, 126.670 104.339 L 127.261 107.178 126.214 110.839 C 125.638 112.853, 124.685 119.407, 124.095 125.405 C 123.506 131.402, 122.831 136.502, 122.595 136.738 C 122.359 136.974, 121.176 136.176, 119.965 134.965 L 117.764 132.764 116.897 134.132 L 116.031 135.500 116.015 134.235 C 116.007 133.540, 114.556 132.092, 112.791 131.019 L 109.581 129.067 107.041 129.614 L 104.500 130.162 105.971 129.135 L 107.442 128.109 106.791 127.457 C 106.432 127.099, 104.420 126.768, 102.320 126.722 L 98.500 126.637 97.804 125.597 C 97.422 125.026, 96.840 124.826, 96.512 125.155 C 96.184 125.483, 98.297 127.482, 101.208 129.598 C 104.118 131.713, 107.861 134.387, 109.525 135.539 C 111.189 136.692, 113.529 138.472, 114.724 139.496 C 115.919 140.519, 116.669 141.726, 116.390 142.178 C 116.110 142.630, 114.728 143, 113.319 143 L 110.755 143 112.128 141.336 L 113.500 139.673 111.112 140.945 C 109.799 141.645, 107.396 142.427, 105.773 142.683 L 102.821 143.148 100.911 141.419 L 99 139.690 99 140.845 L 99 142 96.892 142 L 94.783 142 95.435 139.402 L 96.087 136.804 94.794 137.277 C 94.082 137.537, 93.612 138.256, 93.750 138.875 C 93.887 139.494, 93.487 140, 92.860 140 C 92.233 140, 91.166 139.241, 90.487 138.314 L 89.254 136.627 85.552 136.439 L 81.850 136.250 80.700 135.100 L 79.550 133.950 85.203 134.187 L 90.856 134.423 90.307 135.312 L 89.759 136.200 91.640 135.193 L 93.521 134.186 96.261 134.709 C 97.767 134.998, 99 135.657, 99 136.176 L 99 137.118 99.971 136.518 L 100.941 135.918 103.921 137.459 C 105.560 138.307, 107.261 138.993, 107.700 138.984 C 108.140 138.975, 101.974 135.691, 93.998 131.686 C 86.021 127.681, 78.484 123.539, 77.248 122.480 C 76.011 121.422, 75 120.206, 75 119.778 L 75 119 79.122 119 L 83.245 119 81.903 117.250 L 80.561 115.500 83.030 117.584 C 84.389 118.730, 87.539 120.829, 90.031 122.248 L 94.563 124.828 96.886 122.414 L 99.210 120 98.113 120 C 97.510 120, 96.469 120.877, 95.800 121.949 L 94.582 123.898 93.291 122.827 C 92.581 122.237, 92 121.378, 92 120.917 C 92 120.455, 92.980 119.165, 94.177 118.050 L 96.354 116.021 95.623 115.290 L 94.891 114.558 94.057 115.907 L 93.224 117.256 91.862 116.442 C 91.113 115.994, 88.813 114.286, 86.750 112.647 C 84.688 111.007, 83.196 109.471, 83.435 109.232 C 83.673 108.993, 84.605 109.406, 85.506 110.149 C 86.406 110.892, 88.011 112.288, 89.072 113.250 C 90.132 114.213, 91 114.588, 91 114.084 C 91 113.580, 89.263 111.792, 87.140 110.111 L 83.280 107.054 82.587 107.746 L 81.894 108.439 82.554 106.720 L 83.214 105 81.857 104.985 L 80.500 104.969 82 103.900 L 83.500 102.832 80.125 103.416 C 78.269 103.737, 76.244 104.007, 75.625 104.015 L 74.500 104.031 75.972 104.962 L 77.444 105.892 75.787 106.528 L 74.130 107.164 67.140 103.082 C 63.296 100.837, 59.926 99, 59.651 99 C 59.376 99, 54.463 96.738, 48.732 93.973 L 38.313 88.946 32.406 87.979 C 29.158 87.447, 24.363 87.009, 21.750 87.006 L 17 87 17 87.927 C 17 88.436, 17.788 89.059, 18.750 89.311 L 20.500 89.768 18.143 89.884 L 15.786 90 16.405 91.614 L 17.024 93.227 13.590 92.583 L 10.156 91.939 9.438 93.101 L 8.719 94.263 10.126 95.051 C 10.900 95.484, 12.725 96.942, 14.181 98.292 L 16.828 100.745 20.630 101.458 L 24.432 102.172 25.773 104.086 C 26.510 105.139, 27.702 106, 28.422 106 C 29.141 106, 30.912 106.929, 32.355 108.065 L 34.981 110.130 36.240 109.405 L 37.500 108.679 36.759 109.498 L 36.017 110.316 37.082 111.599 C 37.667 112.304, 38.676 112.757, 39.323 112.604 C 39.970 112.452, 40.162 112.517, 39.749 112.748 C 39.336 112.979, 41.615 116.167, 44.815 119.834 C 48.014 123.500, 52.177 128.507, 54.066 130.960 C 55.955 133.412, 57.500 135.766, 57.500 136.190 C 57.500 136.614, 58.513 137.671, 59.750 138.537 C 60.988 139.404, 62 140.601, 62 141.196 C 62 141.792, 61.213 142.869, 60.250 143.590 L 58.500 144.901 60.876 144.301 L 63.253 143.701 64.036 145.100 C 64.467 145.870, 64.822 146.900, 64.824 147.388 C 64.827 147.877, 65.380 148.617, 66.054 149.033 L 67.279 149.790 64.389 151.447 L 61.500 153.105 65.712 152.547 L 69.924 151.989 71.031 154.058 L 72.139 156.128 70.947 157.564 C 70.291 158.354, 68.910 159, 67.878 159 L 66 159 66 160.107 L 66 161.214 67.500 160.638 L 69 160.063 69 161.031 C 69 161.564, 68.438 162.010, 67.750 162.022 L 66.500 162.044 68.894 163.885 L 71.288 165.726 70.575 166.879 L 69.862 168.033 68.915 167.447 C 68.394 167.125, 68.212 166.465, 68.512 165.981 L 69.056 165.100 67.133 164.071 L 65.210 163.042 64.084 164.399 L 62.958 165.756 65.107 166.318 L 67.256 166.880 66.789 169.324 L 66.322 171.768 69.396 170.886 C 71.087 170.402, 74.027 169.266, 75.930 168.363 L 79.389 166.722 84.444 167.970 C 87.225 168.657, 89.950 169.764, 90.500 170.432 C 91.050 171.099, 92.400 172.168, 93.500 172.807 L 95.500 173.968 93.250 174.601 C 92.012 174.949, 91 175.615, 91 176.081 C 91 176.548, 91.831 177.374, 92.847 177.918 L 94.694 178.906 95.754 177.846 L 96.814 176.786 97.989 182.447 L 99.164 188.109 100.606 186.912 C 101.399 186.254, 102.287 185.953, 102.578 186.244 C 102.869 186.536, 103.176 187.692, 103.261 188.813 L 103.414 190.853 106.179 190.503 C 107.700 190.310, 109.406 189.867, 109.972 189.517 L 111 188.882 111.070 191.191 L 111.141 193.500 111.945 191.500 C 112.388 190.400, 112.560 189.172, 112.329 188.771 C 112.097 188.370, 112.394 187.132, 112.989 186.021 L 114.070 184 115.535 184 L 117 184 117 187.531 L 117 191.063 118.437 191.614 L 119.874 192.166 119.353 193.522 C 119.067 194.268, 119.307 195.693, 119.886 196.689 L 120.939 198.500 120.970 197.250 L 121 196 122.417 196 C 123.196 196, 124.034 196.562, 124.280 197.250 C 124.525 197.938, 125.024 198.226, 125.388 197.892 C 125.752 197.557, 126.113 195.603, 126.191 193.550 L 126.331 189.816 129.042 190.358 L 131.754 190.901 133.447 189.662 L 135.141 188.423 136.004 181.467 L 136.867 174.510 135.368 172.854 L 133.870 171.199 134.844 170.597 L 135.818 169.995 134.455 164.829 L 133.092 159.664 131.351 158.082 L 129.610 156.500 130.947 158.274 C 131.683 159.250, 131.999 160.335, 131.649 160.685 C 131.299 161.035, 130.187 160.574, 129.177 159.661 C 128.168 158.747, 126.815 158, 126.171 158 C 125.527 158, 125 157.582, 125 157.071 C 125 156.561, 125.706 155.437, 126.569 154.574 L 128.139 153.004 134.147 158.252 C 137.452 161.138, 140.829 164.779, 141.652 166.343 C 142.474 167.907, 143.422 168.912, 143.757 168.576 C 144.092 168.241, 143.863 167.463, 143.248 166.848 L 142.129 165.729 143.590 164.267 L 145.051 162.806 146.526 163.371 L 148 163.937 148.158 166.219 C 148.244 167.473, 148.299 169.035, 148.279 169.690 C 148.259 170.344, 148.778 171.085, 149.433 171.336 L 150.623 171.793 150.215 169.015 L 149.808 166.237 150.970 165.518 C 151.610 165.123, 152.366 165.033, 152.651 165.317 C 152.935 165.602, 153.421 167.723, 153.731 170.031 L 154.294 174.227 155.190 172.626 C 155.682 171.745, 157.079 170.544, 158.293 169.957 L 160.500 168.890 158.750 170.305 C 157.787 171.084, 157 172.060, 157 172.475 C 157 172.890, 158.109 172.503, 159.465 171.615 C 160.820 170.727, 162.170 170, 162.465 170 C 162.759 170, 163.034 171.463, 163.076 173.250 L 163.152 176.500 164.395 173.060 C 165.079 171.169, 166.169 169.444, 166.819 169.227 L 168 168.833 168.175 173.667 L 168.349 178.500 168.732 174.250 C 168.943 171.912, 169.461 170, 169.883 170 C 170.306 170, 171.708 171.125, 173 172.500 L 175.349 175 174.008 175 C 173.270 175, 172.956 175.289, 173.309 175.643 C 173.663 175.996, 174.581 175.763, 175.349 175.125 L 176.747 173.965 178.558 174.661 L 180.370 175.356 176.706 176.428 L 173.041 177.500 173.894 178.853 L 174.746 180.206 177.075 178.960 L 179.404 177.713 179.786 178.857 C 179.995 179.485, 180.579 180, 181.083 180 L 182 180 182 177.434 C 182 176.023, 182.495 173.944, 183.100 172.814 L 184.200 170.759 183.100 171.438 L 182 172.118 182 170.534 L 182 168.950 184.250 168.059 C 185.488 167.568, 187.963 165.804, 189.750 164.140 C 191.538 162.475, 193 160.660, 193 160.106 C 193 159.552, 193.625 158.740, 194.389 158.300 C 195.153 157.860, 196.667 155.909, 197.752 153.964 C 198.838 152.018, 200.546 147.293, 201.548 143.464 L 203.370 136.500 203.298 128.500 L 203.226 120.500 201.103 114.915 L 198.980 109.329 196.490 106.990 C 195.120 105.704, 194 104.280, 194 103.826 C 194 103.372, 194.761 103, 195.691 103 L 197.382 103 195.441 101.554 L 193.500 100.109 196.789 98.943 L 200.078 97.777 198.527 96.639 C 197.674 96.012, 196.783 94.487, 196.546 93.250 L 196.115 91 198.116 91 L 200.118 91 199.541 90.066 L 198.963 89.132 195.609 89.676 L 192.254 90.220 191.624 89.200 C 191.277 88.639, 191.255 87.498, 191.575 86.665 L 192.157 85.149 196.328 84.435 L 200.500 83.721 198.566 83.033 L 196.633 82.345 197.773 81.640 L 198.913 80.936 198.362 79.218 L 197.811 77.500 198.840 78.952 C 199.405 79.751, 199.672 80.722, 199.433 81.109 L 198.997 81.813 201.020 81.285 L 203.042 80.756 202.004 79.505 L 200.965 78.253 201.623 76.540 L 202.280 74.827 198.058 75.132 L 193.835 75.437 192.168 72.683 L 190.500 69.930 192 68.981 L 193.500 68.031 191.750 68.015 L 190 68 189.968 66.250 L 189.936 64.500 188.479 66.427 L 187.021 68.354 186.316 67.650 C 185.929 67.262, 185.704 65.270, 185.817 63.223 L 186.022 59.500 183.900 56.042 L 181.777 52.585 180.388 54.483 L 179 56.382 178.985 54.941 L 178.969 53.500 178.117 54.845 L 177.265 56.190 176.551 53.346 L 175.837 50.502 174.558 52.251 C 173.855 53.213, 172.729 54, 172.056 54 L 170.833 54 171.292 52.750 C 171.544 52.063, 172.213 51.598, 172.779 51.718 C 173.345 51.838, 174.356 51.275, 175.027 50.468 C 175.697 49.661, 176.865 49, 177.622 49 L 179 49 179.157 46.750 C 179.244 45.513, 179.190 40.711, 179.037 36.079 L 178.760 27.658 177.419 24.579 L 176.078 21.500 176.007 23.500 L 175.936 25.500 174.516 23.625 L 173.096 21.749 171.485 22.368 L 169.873 22.986 170.511 24.243 C 170.861 24.934, 170.458 24.652, 169.615 23.615 L 168.082 21.730 168.651 25.238 M 157.146 38.579 C 156.539 39.911, 156.288 41, 156.587 41 C 156.887 41, 158.002 40.534, 159.066 39.965 C 160.130 39.395, 161 38.544, 161 38.072 C 161 37.600, 160.381 36.976, 159.624 36.686 L 158.249 36.158 157.146 38.579 M 164.971 37.535 C 164.280 38.367, 163.940 39.273, 164.214 39.548 C 164.489 39.822, 165.453 39.763, 166.357 39.417 C 167.261 39.070, 168 38.411, 168 37.952 C 168 37.493, 167.601 36.871, 167.113 36.570 L 166.227 36.022 164.971 37.535 M 152.980 41.524 C 152.284 42.362, 151.968 43.301, 152.276 43.610 C 152.585 43.919, 153.340 43.233, 153.954 42.086 C 154.568 40.939, 154.885 40, 154.658 40 C 154.431 40, 153.676 40.686, 152.980 41.524 M 164.655 42.829 C 163.745 43.835, 163 45.185, 163 45.829 C 163 46.473, 163.424 47, 163.943 47 C 164.462 47, 165.587 46, 166.443 44.777 C 167.299 43.555, 168 42.205, 168 41.777 C 168 41.350, 167.620 41, 167.155 41 C 166.690 41, 165.565 41.823, 164.655 42.829 M 169.952 44.089 L 168.834 46.179 170.656 45.828 L 172.477 45.477 172.812 43.739 L 173.147 42 172.109 42 C 171.538 42, 170.567 42.940, 169.952 44.089 M 157 46.500 C 157 47.325, 157.436 48, 157.969 48 L 158.937 48 158.362 46.500 C 158.045 45.675, 157.609 45, 157.393 45 C 157.177 45, 157 45.675, 157 46.500 M 151.580 52.190 C 150.736 53.394, 150.241 54.575, 150.480 54.813 C 150.719 55.052, 151.579 54.992, 152.391 54.680 C 153.204 54.368, 154.364 53.188, 154.970 52.056 L 156.070 50 154.592 50 C 153.779 50, 152.423 50.985, 151.580 52.190 M 153.534 55.963 L 151.757 57.926 152.372 59.526 L 152.986 61.127 153.981 60.511 L 154.977 59.896 154.382 61.448 L 153.786 63 154.944 63 L 156.102 63 157.551 59.532 C 158.348 57.625, 159 55.600, 159 55.032 L 159 54 157.155 54 L 155.310 54 153.534 55.963 M 144.476 63.075 C 144.114 64.217, 144.054 65.387, 144.342 65.675 C 144.631 65.964, 145.347 65.904, 145.933 65.541 C 146.520 65.179, 147 64.009, 147 62.941 C 147 61.873, 146.580 61, 146.067 61 C 145.554 61, 144.838 61.934, 144.476 63.075 M 159.478 63.024 L 157.580 65.122 159.040 66.046 C 159.843 66.554, 160.950 66.969, 161.500 66.969 C 162.050 66.969, 163.107 66.585, 163.848 66.115 L 165.197 65.260 164.837 63.392 L 164.477 61.523 162.927 61.224 L 161.377 60.926 159.478 63.024 M 148.098 64.818 C 147.494 65.946, 147 67.348, 147 67.934 L 147 69 149.031 69 L 151.063 69 151.668 67.422 L 152.273 65.845 150.734 64.306 L 149.195 62.767 148.098 64.818 M 170.500 64 C 170.160 64.550, 170.148 65.430, 170.473 65.956 L 171.064 66.913 172.532 66.349 C 173.339 66.040, 174 65.159, 174 64.393 L 174 63 172.559 63 C 171.766 63, 170.840 63.450, 170.500 64 M 167.667 69.667 C 167.300 70.033, 167 70.798, 167 71.367 L 167 72.400 168.183 71.217 C 168.834 70.566, 169.134 69.801, 168.850 69.517 C 168.566 69.233, 168.033 69.300, 167.667 69.667 M 188 70.331 C 188 70.647, 188.522 72.052, 189.161 73.453 L 190.321 76 191.696 76 L 193.070 76 192.090 74.168 C 191.550 73.160, 190.410 71.755, 189.555 71.045 C 188.700 70.336, 188 70.014, 188 70.331 M 172 72 C 172 72.550, 172.450 73, 173 73 C 173.550 73, 174 72.550, 174 72 C 174 71.450, 173.550 71, 173 71 C 172.450 71, 172 71.450, 172 72 M 176 75 C 176 75.550, 176.450 76, 177 76 C 177.550 76, 178 75.550, 178 75 C 178 74.450, 177.550 74, 177 74 C 176.450 74, 176 74.450, 176 75 M 159.819 75.981 C 158.344 76.426, 155.757 78.203, 154.069 79.930 L 151 83.069 151 84.959 L 151 86.849 155.942 83.675 L 160.883 80.500 160.942 78.950 C 160.974 78.098, 161.540 76.860, 162.200 76.200 C 162.860 75.540, 163.197 75.039, 162.950 75.086 C 162.703 75.133, 161.293 75.536, 159.819 75.981 M 146.655 78.829 C 145.745 79.835, 145 81.420, 145 82.352 L 145 84.046 147.500 82.408 L 150 80.770 150 78.885 C 150 77.848, 149.620 77, 149.155 77 C 148.690 77, 147.565 77.823, 146.655 78.829 M 127.141 82.637 L 125.858 85.500 127.545 83.848 L 129.232 82.196 128.828 80.985 L 128.424 79.773 127.141 82.637 M 139.476 82.075 C 139.114 83.217, 139.073 84.406, 139.385 84.718 C 139.696 85.030, 140.638 84.716, 141.476 84.020 C 142.314 83.324, 143 82.135, 143 81.378 L 143 80 141.567 80 L 140.135 80 139.476 82.075 M 171.473 83.748 C 171.852 85.259, 172.375 86.709, 172.636 86.969 C 172.896 87.229, 173.479 86.843, 173.932 86.110 C 174.384 85.378, 174.533 83.928, 174.261 82.889 L 173.767 81 172.275 81 L 170.783 81 171.473 83.748 M 130 83.559 L 130 85.118 131 84.500 C 131.550 84.160, 132 83.459, 132 82.941 C 132 82.423, 131.550 82, 131 82 C 130.450 82, 130 82.702, 130 83.559 M 133.070 84.691 C 133.032 85.896, 133.418 87.140, 133.928 87.456 L 134.856 88.029 135.519 85.939 C 135.884 84.790, 135.917 83.583, 135.591 83.258 C 135.266 82.933, 134.968 83.529, 134.930 84.583 L 134.859 86.500 134 84.500 L 133.141 82.500 133.070 84.691 M 160.177 87.869 L 158.855 88.708 159.539 92.354 C 159.915 94.359, 160.510 95.986, 160.861 95.968 C 161.213 95.951, 162.319 95.315, 163.321 94.556 L 165.142 93.176 163.545 90.088 C 162.667 88.390, 161.848 87.007, 161.724 87.015 C 161.601 87.024, 160.905 87.408, 160.177 87.869 M 167.638 88.500 C 167.955 89.325, 168.391 90, 168.607 90 C 168.823 90, 169 89.325, 169 88.500 C 169 87.675, 168.564 87, 168.031 87 L 167.063 87 167.638 88.500 M 175.689 89.764 L 173.878 90.170 174.519 93.085 L 175.159 96 173.079 96 L 171 96 171 96.969 L 171 97.937 169.506 97.364 L 168.011 96.790 168.660 95.741 L 169.309 94.691 168.114 95.430 L 166.919 96.168 167.507 98.334 L 168.095 100.500 166.982 98.721 L 165.868 96.943 156.184 103.680 C 150.858 107.385, 145.600 111.549, 144.500 112.933 C 143.400 114.317, 141.504 116.810, 140.286 118.474 C 139.069 120.139, 136.726 123.732, 135.080 126.461 C 133.435 129.189, 132.201 131.534, 132.338 131.671 C 132.475 131.808, 133.575 131.662, 134.782 131.347 L 136.978 130.773 136.396 129.832 L 135.815 128.892 138.259 126.696 C 139.603 125.488, 140.941 123.815, 141.233 122.978 L 141.762 121.456 144.530 121.227 C 146.052 121.101, 147.906 120.493, 148.649 119.876 C 149.392 119.260, 150 118.087, 150 117.271 L 150 115.786 151.517 116.368 L 153.034 116.950 158.365 112.122 C 161.298 109.466, 166.240 105.373, 169.349 103.027 C 172.457 100.680, 175 98.337, 175 97.821 L 175 96.882 175.928 97.456 L 176.856 98.029 177.493 96.023 L 178.129 94.018 177.410 92.854 L 176.691 91.691 177.776 92.362 L 178.862 93.033 179.420 92.130 L 179.978 91.227 178.739 90.292 C 178.058 89.778, 176.685 89.540, 175.689 89.764 M 31.529 90.954 L 30.936 91.913 29.304 91.286 L 27.672 90.660 28.334 91.731 L 28.996 92.802 32.498 92.703 C 34.424 92.648, 36 92.484, 36 92.337 C 36 92.190, 35.127 91.603, 34.061 91.032 L 32.121 89.995 31.529 90.954 M 122 93.457 C 122 93.857, 122.900 95.329, 124 96.727 C 125.100 98.126, 126 98.943, 126 98.543 C 126 98.143, 125.100 96.671, 124 95.273 C 122.900 93.874, 122 93.057, 122 93.457 M 27 94.882 C 27 95.432, 27.450 96.160, 28 96.500 L 29 97.118 29 96.118 C 29 95.568, 28.550 94.840, 28 94.500 L 27 93.882 27 94.882 M 144.111 95 C 144.044 95.825, 142.865 98.300, 141.490 100.500 L 138.990 104.500 139.432 101.730 L 139.875 98.959 138.937 99.539 C 138.422 99.857, 138 100.718, 138 101.452 C 138 102.186, 137.325 103.045, 136.500 103.362 L 135 103.937 135 106 L 135 108.063 133.563 108.614 L 132.126 109.166 132.599 110.398 C 132.859 111.076, 132.634 112.726, 132.099 114.065 L 131.127 116.500 131.060 114 L 130.993 111.500 129.119 114.573 L 127.245 117.645 127.270 128.454 L 127.295 139.264 135.110 123.382 L 142.926 107.500 144.035 102.244 C 144.645 99.353, 144.939 96.203, 144.688 95.244 L 144.232 93.500 144.111 95 M 157.405 94.845 C 157.797 95.480, 157.852 96.430, 157.527 96.956 L 156.936 97.913 155.474 97.352 L 154.011 96.790 154.660 95.741 L 155.309 94.691 154.155 95.405 C 153.520 95.797, 152.964 96.879, 152.921 97.809 L 152.842 99.500 152.338 98.250 C 152.060 97.563, 151.472 97, 151.031 97 C 150.589 97, 149.536 98.463, 148.691 100.250 C 147.846 102.037, 146.853 104.709, 146.484 106.187 L 145.815 108.875 151.657 103.452 C 154.871 100.470, 157.838 98.023, 158.250 98.015 C 158.662 98.007, 159 97.352, 159 96.559 C 159 95.766, 158.480 94.797, 157.845 94.405 L 156.691 93.691 157.405 94.845 M 34 97 C 34 97.550, 34.413 98, 34.918 98 C 35.423 98, 36.661 98.286, 37.668 98.635 L 39.500 99.269 37.500 97.666 C 36.400 96.785, 35.163 96.049, 34.750 96.032 C 34.337 96.014, 34 96.450, 34 97 M 30.460 98.065 L 29.918 98.941 32.506 99.591 C 33.929 99.948, 35.264 100.069, 35.474 99.860 C 35.683 99.650, 34.762 98.964, 33.428 98.334 L 31.001 97.189 30.460 98.065 M 40.425 97.879 C 40.724 98.363, 41.988 99.016, 43.234 99.330 L 45.500 99.901 43.559 98.450 C 42.491 97.653, 41.227 97, 40.750 97 C 40.273 97, 40.127 97.396, 40.425 97.879 M 31 102 C 31.825 102.533, 32.950 102.969, 33.500 102.969 L 34.500 102.969 33 102 C 32.175 101.467, 31.050 101.031, 30.500 101.031 L 29.500 101.031 31 102 M 43 101.800 C 43 102.240, 43.540 103.140, 44.200 103.800 C 44.860 104.460, 46.210 105, 47.200 105 C 48.190 105, 49 104.640, 49 104.200 C 49 103.760, 48.460 102.860, 47.800 102.200 C 47.140 101.540, 45.790 101, 44.800 101 C 43.810 101, 43 101.360, 43 101.800 M 52.441 102.445 L 54.382 104 53.183 104 L 51.983 104 53.232 106 C 53.919 107.100, 55.048 108, 55.741 108 C 56.433 108, 57 107.536, 57 106.969 C 57 106.401, 56.328 105.679, 55.506 105.364 L 54.011 104.790 54.534 103.945 L 55.056 103.100 52.778 101.995 L 50.500 100.890 52.441 102.445 M 58.229 103.187 C 58.447 103.840, 59.159 104.553, 59.813 104.771 L 61 105.167 61 104.190 C 61 103.653, 60.287 102.941, 59.416 102.606 L 57.833 101.999 58.229 103.187 M 37.500 108 C 37.840 108.550, 38.568 109, 39.118 109 L 40.118 109 39.500 108 C 39.160 107.450, 38.432 107, 37.882 107 L 36.882 107 37.500 108 M 174.500 108.036 C 173.950 108.550, 171.025 111.268, 168 114.074 L 162.500 119.177 166.500 116.929 C 168.700 115.693, 171.963 113.605, 173.750 112.290 L 177 109.898 177 108.449 C 177 107.652, 176.662 107.022, 176.250 107.050 C 175.838 107.078, 175.050 107.521, 174.500 108.036 M 48 109.487 C 48 110.201, 48.712 111.059, 49.582 111.393 C 50.452 111.727, 51.563 112, 52.050 112 L 52.937 112 52.399 110.599 C 52.104 109.828, 50.993 108.970, 49.931 108.692 L 48 108.187 48 109.487 M 174.876 112.925 L 170.500 117.933 167.867 118.379 C 166.418 118.624, 162.368 120.750, 158.867 123.103 C 155.365 125.455, 150.813 128.682, 148.750 130.274 C 146.688 131.866, 144.993 132.793, 144.985 132.334 L 144.969 131.500 144.235 132.548 C 143.831 133.124, 141.371 134.826, 138.768 136.329 C 136.166 137.833, 133.563 139.949, 132.983 141.031 C 132.404 142.114, 132.101 143, 132.311 143 C 132.521 143, 136.249 141.709, 140.596 140.132 C 144.943 138.555, 150.161 136.564, 152.191 135.708 C 154.221 134.852, 158.946 131.607, 162.691 128.498 C 166.436 125.388, 172.044 120.381, 175.154 117.371 L 180.808 111.899 180.600 110.478 C 180.485 109.697, 180.135 108.801, 179.821 108.488 C 179.508 108.174, 177.282 110.171, 174.876 112.925 M 123 111 C 122.411 112.100, 122.155 113, 122.430 113 C 122.705 113, 123.411 112.100, 124 111 C 124.589 109.900, 124.845 109, 124.570 109 C 124.295 109, 123.589 109.900, 123 111 M 66.425 111.879 C 66.724 112.363, 67.876 112.996, 68.984 113.286 L 71 113.813 71 113.013 C 71 112.574, 70.288 111.941, 69.418 111.607 C 68.548 111.273, 67.397 111, 66.859 111 L 65.882 111 66.425 111.879 M 82 113 C 82 113.550, 82.702 114, 83.559 114 L 85.118 114 84.500 113 C 84.160 112.450, 83.459 112, 82.941 112 C 82.423 112, 82 112.450, 82 113 M 182 112.905 C 182 113.403, 179.117 116.794, 175.593 120.441 C 172.069 124.089, 168.933 127.732, 168.624 128.537 L 168.063 130 166.154 130 C 165.104 130, 163.685 130.675, 163 131.500 L 161.755 133 166.801 133 L 171.847 133 174.818 130.500 C 176.452 129.125, 178.044 128, 178.356 128 C 178.668 128, 181.014 125.968, 183.569 123.485 L 188.214 118.971 186.560 115.485 L 184.906 112 183.453 112 C 182.654 112, 182 112.407, 182 112.905 M 64.550 113.888 C 65.073 114.376, 66.625 115.074, 68 115.439 L 70.500 116.104 68.559 114.552 C 67.491 113.698, 65.939 113, 65.109 113 L 63.600 113 64.550 113.888 M 48.150 115.950 C 48.370 116.610, 48.876 117.116, 49.275 117.075 C 49.674 117.034, 50.034 116.674, 50.075 116.275 C 50.116 115.876, 49.610 115.370, 48.950 115.150 L 47.750 114.750 48.150 115.950 M 58.500 118 L 57.882 119 59.441 119 C 60.298 119, 61 118.550, 61 118 C 61 117.450, 60.577 117, 60.059 117 C 59.541 117, 58.840 117.450, 58.500 118 M 66 119 L 66 120 63.833 120 C 62.642 120, 61.931 120.264, 62.254 120.587 C 62.577 120.911, 64.455 121.539, 66.426 121.983 L 70.011 122.792 70.630 121.789 L 71.250 120.786 72.009 122.015 L 72.769 123.244 74.134 122.778 L 75.500 122.312 71.062 120.156 C 68.621 118.970, 66.484 118, 66.312 118 C 66.140 118, 66 118.450, 66 119 M 118.624 119.539 C 118.281 120.432, 118.014 121.464, 118.030 121.832 C 118.047 122.199, 118.538 121.679, 119.122 120.675 C 119.706 119.671, 119.973 118.639, 119.715 118.382 C 119.458 118.124, 118.966 118.645, 118.624 119.539 M 54 121 C 54 121.550, 54.702 122, 55.559 122 L 57.118 122 56.500 121 C 56.160 120.450, 55.459 120, 54.941 120 C 54.423 120, 54 120.450, 54 121 M 201.158 124 L 201.158 126.500 201.662 125.250 C 201.940 124.563, 201.940 123.438, 201.662 122.750 L 201.158 121.500 201.158 124 M 63.004 125.495 L 62.025 126.675 64.262 128.745 L 66.500 130.816 76 130.818 L 85.500 130.820 83 130.072 L 80.500 129.323 80.775 128.087 L 81.050 126.851 80.025 127.485 L 79 128.118 79 127.059 C 79 126.477, 78.362 126, 77.583 126 C 76.804 126, 75.938 126.563, 75.659 127.250 L 75.152 128.500 74.179 127.107 L 73.205 125.714 68.595 125.014 L 63.984 124.315 63.004 125.495 M 186.212 128.564 L 183.979 130.128 182.240 129.576 L 180.500 129.025 177.589 131.347 L 174.677 133.669 175.398 134.834 C 175.794 135.476, 177.135 136, 178.378 136 C 179.620 136, 182.892 135.330, 185.647 134.512 L 190.657 133.024 190.215 130.012 C 189.972 128.355, 189.474 127, 189.109 127 C 188.744 127, 187.440 127.704, 186.212 128.564 M 201.232 131 L 201.232 134.500 201.689 132.750 C 201.941 131.787, 201.941 130.213, 201.689 129.250 L 201.232 127.500 201.232 131 M 109 130.429 C 109 130.693, 110.098 132.007, 111.439 133.348 C 112.781 134.690, 114.131 135.536, 114.439 135.227 C 114.748 134.919, 115 134.303, 115 133.859 C 115 133.415, 113.650 132.353, 112 131.500 C 110.350 130.647, 109 130.165, 109 130.429 M 183.229 132.188 C 183.447 132.841, 184.160 133.553, 184.813 133.771 L 186.001 134.167 185.394 132.584 C 185.059 131.713, 184.347 131, 183.810 131 L 182.833 131 183.229 132.188 M 69 134.889 C 69 135.378, 69.929 136.841, 71.064 138.139 L 73.129 140.500 72.695 139 L 72.261 137.500 73.785 135.750 L 75.310 134 72.155 134 L 69 134 69 134.889 M 162.750 135.728 L 159 136.121 159 137.433 L 159 138.744 154.750 139.479 C 152.412 139.882, 149.222 140.386, 147.660 140.597 C 146.098 140.809, 142.819 141.661, 140.375 142.491 C 137.930 143.321, 135.158 144.014, 134.215 144.032 L 132.500 144.064 134.441 145.532 C 135.509 146.339, 137.534 147.016, 138.941 147.035 C 140.349 147.055, 142.625 147.714, 144 148.500 L 146.500 149.929 151.095 149.965 L 155.690 150 157.407 148.103 L 159.123 146.206 163.312 145.105 L 167.500 144.003 171 140.994 L 174.500 137.985 172.559 136.492 C 171.491 135.672, 169.691 135.076, 168.559 135.168 C 167.426 135.261, 164.813 135.513, 162.750 135.728 M 187.541 136.933 C 187.179 137.520, 186.100 138, 185.144 138 L 183.406 138 180.953 140.958 C 179.604 142.584, 177.825 143.980, 177 144.060 C 176.175 144.140, 177.075 144.593, 179 145.068 C 180.925 145.543, 183.041 145.744, 183.703 145.515 C 184.364 145.286, 185.824 143.199, 186.946 140.876 C 188.068 138.553, 188.809 136.476, 188.593 136.260 C 188.377 136.044, 187.904 136.347, 187.541 136.933 M 84.750 138.662 C 85.438 138.940, 86.563 138.940, 87.250 138.662 L 88.500 138.158 86 138.158 L 83.500 138.158 84.750 138.662 M 189 142 L 186.959 146 188.819 146 L 190.679 146 191.839 143.453 C 192.478 142.052, 193 140.252, 193 139.453 C 193 138.654, 192.559 138, 192.020 138 C 191.482 138, 190.122 139.800, 189 142 M 103.500 140 L 102.882 141 104.500 141 L 106.118 141 105.500 140 C 105.160 139.450, 104.710 139, 104.500 139 C 104.290 139, 103.840 139.450, 103.500 140 M 175.726 140.940 L 175.218 142.880 177.109 141.700 C 178.149 141.050, 179 140.177, 179 139.759 C 179 139.342, 178.377 139, 177.617 139 L 176.233 139 175.726 140.940 M 102.269 145.693 C 103.242 145.947, 104.592 145.930, 105.269 145.656 L 106.500 145.158 103.500 145.195 L 100.500 145.232 102.269 145.693 M 160.223 148.557 C 159 149.413, 158 150.561, 158 151.108 C 158 151.655, 159.561 152.754, 161.468 153.551 C 163.375 154.348, 165.918 155, 167.118 155 C 168.319 155, 171.672 156.160, 174.570 157.578 L 179.840 160.156 181.920 159.043 C 183.064 158.431, 184 157.492, 184 156.956 L 184 155.983 182.025 157.216 L 180.050 158.450 178.918 157.318 L 177.787 156.187 179.643 156.343 L 181.500 156.500 181.208 155.125 C 181.048 154.369, 181.698 152.887, 182.652 151.832 L 184.388 149.914 182.694 150.564 L 181 151.214 181 149.674 L 181 148.135 179 147.500 C 177.900 147.151, 176.093 147.153, 174.985 147.505 L 172.971 148.144 173.544 149.072 L 174.118 150 172.309 149.965 C 171.314 149.945, 169.375 149.286, 168 148.500 C 166.625 147.714, 164.813 147.055, 163.973 147.035 C 163.132 147.016, 161.445 147.701, 160.223 148.557 M 94 149.700 L 94 151.400 92.800 150.200 C 92.140 149.540, 91.254 149, 90.831 149 L 90.063 149 90.628 150.473 L 91.193 151.946 94.347 152.419 C 96.081 152.679, 99.300 153.121, 101.500 153.400 L 105.500 153.909 103.938 152.704 C 103.079 152.042, 102.081 150.713, 101.719 149.750 L 101.063 148 97.531 148 L 94 148 94 149.700 M 107.664 148.747 C 107.412 149.161, 108.236 150.272, 109.495 151.216 L 111.785 152.931 112.353 150.759 C 112.665 149.565, 112.714 148.380, 112.460 148.127 C 112.207 147.874, 112 148.207, 112 148.869 L 112 150.070 110.061 149.032 L 108.121 147.995 107.664 148.747 M 174.107 151.115 L 171.778 153 173.139 152.986 C 173.888 152.979, 175.512 152.701, 176.750 152.370 C 177.988 152.038, 179 151.417, 179 150.990 C 179 150.563, 178.423 149.992, 177.717 149.722 L 176.435 149.230 174.107 151.115 M 119 151.500 L 119 153 117.500 153 C 116.675 153, 116 153.210, 116 153.466 C 116 153.722, 116.749 155.503, 117.665 157.423 L 119.330 160.914 120.319 160.303 L 121.309 159.691 120.514 160.977 L 119.720 162.262 116.610 158.559 L 113.500 154.856 111.500 156.765 L 109.500 158.674 107 156.934 L 104.500 155.193 98.203 154.687 L 91.905 154.181 93.095 155.615 C 93.750 156.403, 94.066 157.267, 93.799 157.534 C 93.532 157.801, 92.147 156.939, 90.722 155.618 L 88.131 153.217 87.526 154.792 L 86.922 156.367 88.711 158.117 L 90.500 159.868 94.855 160.498 L 99.211 161.128 102.675 159.484 L 106.140 157.840 107.502 158.363 L 108.865 158.885 109.182 162.177 L 109.500 165.468 112.327 165.680 C 113.882 165.797, 116.357 165.394, 117.827 164.786 C 119.297 164.177, 121.028 163.763, 121.674 163.866 L 122.848 164.053 123.531 161.902 L 124.214 159.750 123.060 159.037 L 121.905 158.323 123.453 157.039 C 124.304 156.333, 125 155.072, 125 154.238 C 125 153.403, 124.213 152.123, 123.250 151.392 C 122.287 150.661, 120.938 150.049, 120.250 150.032 L 119 150 119 151.500 M 135.552 150.916 L 134.985 151.833 140.591 156.622 C 143.675 159.256, 146.716 161.495, 147.349 161.597 C 147.982 161.699, 150.300 162.116, 152.500 162.524 L 156.500 163.266 154.250 160.818 C 153.012 159.472, 152 157.838, 152 157.186 C 152 156.533, 152.429 156, 152.953 156 C 153.477 156, 155.082 156.536, 156.520 157.191 L 159.133 158.382 158.660 160.191 C 158.400 161.186, 158.485 162, 158.849 162 C 159.213 162, 159.991 160.464, 160.579 158.586 L 161.647 155.173 152.533 152.586 C 147.520 151.164, 141.776 150, 139.769 150 L 136.118 150 135.552 150.916 M 162.526 158.950 C 161.687 160.573, 161 162.076, 161 162.290 C 161 162.505, 162.767 163.263, 164.926 163.975 L 168.851 165.271 170.478 164.647 L 172.104 164.023 171.493 165.011 L 170.882 166 174.191 165.921 L 177.500 165.842 176.208 165.324 L 174.917 164.806 176.044 163.447 L 177.172 162.088 176.463 160.940 C 176.073 160.308, 173.896 158.948, 171.627 157.918 C 169.357 156.887, 166.724 156.034, 165.776 156.022 L 164.051 156 162.526 158.950 M 187.225 161.010 L 184.042 162.945 184.602 164.404 L 185.161 165.863 188.238 162.923 C 189.931 161.305, 191.111 159.778, 190.861 159.528 C 190.612 159.278, 188.975 159.945, 187.225 161.010 M 60.559 162.532 C 59.491 163.339, 59.068 164, 59.618 164 C 60.168 164, 61.491 163.339, 62.559 162.532 C 63.626 161.724, 64.050 161.064, 63.500 161.064 C 62.950 161.064, 61.626 161.724, 60.559 162.532 M 128.558 161.775 C 128.251 162.082, 128 162.933, 128 163.667 L 128 165 129.622 165 L 131.245 165 129.872 166.687 L 128.500 168.374 130.250 167.719 L 132 167.063 132 168.731 L 132 170.400 132.893 169.450 L 133.785 168.500 133.293 165.340 L 132.800 162.181 130.958 161.699 C 129.945 161.434, 128.865 161.469, 128.558 161.775 M 73.800 163.200 L 75 164.400 76.200 163.200 L 77.400 162 75 162 L 72.600 162 73.800 163.200 M 94 162.764 C 94 163.221, 95.776 165.328, 97.946 167.447 L 101.892 171.301 104.446 169.627 L 107 167.954 107 166.036 C 107 164.981, 106.500 163.809, 105.888 163.431 C 105.276 163.053, 102.351 162.561, 99.388 162.339 L 94 161.935 94 162.764 M 118.112 167.250 C 117.650 168.488, 117.053 171.863, 116.783 174.750 L 116.294 180 117.897 180.032 C 118.779 180.049, 120.374 180.724, 121.441 181.532 C 122.509 182.339, 124.143 183, 125.073 183 L 126.764 183 125.426 179.250 C 124.690 177.188, 124.068 173.849, 124.044 171.832 C 124.020 169.814, 123.727 167.452, 123.393 166.582 L 122.786 165 120.868 165 L 118.950 165 118.112 167.250 M 144.659 168.196 L 144.073 170.438 147.141 175.219 C 148.828 177.849, 150.363 180, 150.552 180 C 150.741 180, 150.425 178.650, 149.850 177 C 149.275 175.350, 148.390 174, 147.883 174 L 146.961 174 147.375 171.716 L 147.789 169.432 146.517 167.693 L 145.245 165.953 144.659 168.196 M 110.611 168.531 C 109.769 169.374, 107.663 170.659, 105.931 171.387 L 102.782 172.711 107.539 175.922 L 112.296 179.132 113.523 177.816 C 114.198 177.092, 115.023 174.363, 115.356 171.750 L 115.962 167 114.052 167 C 113.002 167, 111.454 167.689, 110.611 168.531 M 127.158 174.310 L 126.001 175.704 127.146 179.102 C 127.775 180.971, 128.730 183.063, 129.268 183.750 C 129.805 184.438, 130.584 185, 130.997 185 C 131.411 185, 132.020 183.762, 132.351 182.250 C 132.681 180.738, 133.240 178.488, 133.593 177.250 L 134.233 175 132.317 175 C 131.262 175, 129.931 174.531, 129.358 173.958 L 128.315 172.915 127.158 174.310 M 121.638 188.500 L 121.063 190 122.031 190 C 122.564 190, 123 189.325, 123 188.500 C 123 187.675, 122.823 187, 122.607 187 C 122.391 187, 121.955 187.675, 121.638 188.500 M 115.195 191.500 L 115.232 194.500 115.693 192.731 C 115.947 191.758, 115.930 190.408, 115.656 189.731 L 115.158 188.500 115.195 191.500 M 120.500 194 L 119.882 195 120.882 195 C 121.432 195, 122.160 194.550, 122.500 194 L 123.118 193 122.118 193 C 121.568 193, 120.840 193.450, 120.500 194" stroke="none" fill="#242227" fill-rule="evenodd"/></svg>