<svg xmlns="http://www.w3.org/2000/svg" width="225" height="225" viewBox="0 0 225 225" version="1.1"><path d="M 8 147.500 L 8 166 21.500 166 L 35 166 35.004 161.750 L 35.007 157.500 36.919 160.635 C 42.158 169.226, 58.530 168.105, 62.404 158.890 L 63.696 155.819 65.781 159.353 C 68.507 163.974, 74.514 165.888, 79.105 163.597 L 82.120 162.094 81.810 165.297 C 81.451 169.003, 76.486 170.619, 74.786 167.582 C 73.629 165.514, 65 165.323, 65 167.365 C 65 175.143, 83.700 177.509, 89.750 170.497 C 91.851 168.061, 92 166.965, 92 153.944 L 92 140 87 140 C 83.886 140, 82 140.436, 82 141.155 C 82 141.846, 81.265 141.645, 80.171 140.655 C 75.887 136.778, 67.619 139.678, 65.012 145.972 L 63.753 149.011 62.126 145.840 C 55.915 133.730, 35.017 138.668, 35.004 152.250 L 35 156 27 156 L 19 156 19 142.500 L 19 129 13.500 129 L 8 129 8 147.500 M 136.750 134.513 C 132.720 138.273, 132 139.513, 132 142.685 L 132 146.424 129.110 142.962 L 126.219 139.500 118.215 139.500 C 102.952 139.500, 99.996 151.750, 114.475 154.994 C 119.776 156.182, 122.313 157.685, 121.430 159.113 C 120.401 160.777, 116.087 160.030, 115 158 C 114.175 156.458, 112.906 156, 109.465 156 L 105 156 105 148 L 105 140 100 140 L 95 140 95 153.055 L 95 166.110 99.750 165.805 L 104.500 165.500 104.826 162.085 L 105.151 158.670 106.355 161.085 C 109.607 167.610, 127.753 168.128, 130.336 161.771 C 130.689 160.901, 131.479 161.276, 132.841 162.962 C 134.542 165.069, 135.853 165.483, 141.915 165.825 L 149 166.226 149 162.676 C 149 159.403, 148.747 159.102, 145.750 158.813 L 142.500 158.500 142.200 152.750 L 141.900 147 145.450 147 L 149 147 149 143.500 C 149 140.177, 148.826 140, 145.552 140 L 142.105 140 141.802 135.040 L 141.500 130.080 136.750 134.513 M 169.270 140.483 C 167.493 141.255, 165.132 143.375, 164.023 145.193 L 162.007 148.500 162.004 144.250 L 162 140 156.750 140 L 151.500 140 151.682 152.750 L 151.865 165.500 156.932 165.802 L 162 166.105 162.063 161.302 C 162.110 157.783, 162.348 157.034, 162.954 158.500 C 166.678 167.503, 185.838 169.387, 188.497 161.011 C 189.361 158.287, 190.201 158.488, 192.130 161.878 C 195.551 167.892, 210.395 168.127, 215.026 162.240 C 219.176 156.964, 215.750 150.623, 208.089 149.398 C 202.810 148.554, 199.861 146.457, 201.990 145.061 C 203.018 144.388, 204.171 144.537, 205.705 145.542 C 208.144 147.140, 216 147.552, 216 146.082 C 216 138.501, 195.779 135.940, 191.979 143.039 C 188.959 148.682, 191.642 152.638, 200.050 154.938 C 204.298 156.100, 206.610 157.265, 206.823 158.351 C 207.337 160.971, 200.977 160.629, 200.290 158 C 199.601 155.365, 182.129 154.934, 180 157.500 C 178.246 159.614, 174.266 159.366, 173.035 157.066 C 169.603 150.653, 174.668 142.810, 179.269 147.412 C 183.162 151.305, 190.833 149.512, 188.618 145.228 C 185.743 139.668, 176.409 137.379, 169.270 140.483 M 115.503 145.996 C 114.780 147.165, 118.015 148.633, 123.149 149.463 C 125.155 149.787, 127.968 150.973, 129.399 152.099 L 132 154.145 132 150.573 L 132 147 127.059 147 C 124.341 147, 121.840 146.550, 121.500 146 C 120.700 144.706, 116.302 144.702, 115.503 145.996 M 46.035 147.934 C 43.528 152.619, 45.677 160, 49.548 160 C 52.080 160, 54.309 155.292, 53.663 151.312 C 52.798 145.979, 48.177 143.933, 46.035 147.934 M 75.571 147.571 C 73.716 149.427, 73.488 155.088, 75.200 156.800 C 78.247 159.847, 82.360 156.972, 82.216 151.896 C 82.065 146.581, 78.731 144.412, 75.571 147.571" stroke="none" fill="#272324" fill-rule="evenodd"/><path d="M 168.300 53.862 C 158.797 57.146, 151.618 63.841, 148.062 72.737 C 146.475 76.708, 145.455 76.247, 144.647 71.194 C 143.739 65.517, 139.043 59.698, 132.895 56.635 L 127.607 54 92.543 54 L 57.479 54 52.219 63 C 45.874 73.854, 46.810 73.859, 39.600 62.937 L 33.701 54 20.796 54 L 7.891 54 14.673 62.750 C 18.403 67.563, 24.069 74.845, 27.264 78.933 C 34.145 87.736, 34.850 85.063, 19.994 106.509 C 13.397 116.031, 8 124.087, 8 124.411 C 8 124.735, 13.555 125, 20.345 125 C 34.689 125, 33.368 125.808, 40.415 112.716 L 45.142 103.931 51.321 114.216 L 57.500 124.500 81.750 124.768 L 106 125.036 106 114.168 L 106 103.301 117.087 102.627 C 132.041 101.719, 136.025 99.966, 142.146 91.600 L 145 87.700 145 91.882 C 145 130.688, 203.522 139.427, 214.980 102.331 C 224.735 70.745, 198.444 43.446, 168.300 53.862 M 71.500 69.683 C 65.450 77.714, 60.109 84.951, 59.631 85.766 C 58.857 87.085, 80.530 120.973, 83.206 122.627 C 83.643 122.897, 84 107.791, 84 89.059 C 84 70.327, 83.662 55.018, 83.250 55.041 C 82.838 55.063, 77.550 61.652, 71.500 69.683 M 177.313 70.142 C 166.260 73.202, 164.370 99.955, 174.727 106.741 C 184.706 113.278, 194 104.722, 194 89 C 194 74.415, 187.679 67.272, 177.313 70.142 M 106.204 78.135 L 106.500 85.500 112.561 85.793 C 119.874 86.146, 124 83.710, 124 79.038 C 124 73.712, 121.104 71.628, 113.074 71.174 L 105.908 70.769 106.204 78.135" stroke="none" fill="#cd2026" fill-rule="evenodd"/><path d="M -0 112.504 L -0 225.009 112.750 224.754 L 225.500 224.500 225.754 112.250 L 226.009 0 113.004 0 L 0 0 -0 112.504 M 0.483 113 C 0.483 174.875, 0.603 200.188, 0.750 169.250 C 0.897 138.313, 0.897 87.688, 0.750 56.750 C 0.603 25.813, 0.483 51.125, 0.483 113 M 168.300 53.862 C 158.797 57.146, 151.618 63.841, 148.062 72.737 C 146.475 76.708, 145.455 76.247, 144.647 71.194 C 143.739 65.517, 139.043 59.698, 132.895 56.635 L 127.607 54 92.543 54 L 57.479 54 52.219 63 C 45.874 73.854, 46.810 73.859, 39.600 62.937 L 33.701 54 20.796 54 L 7.891 54 14.673 62.750 C 18.403 67.563, 24.069 74.845, 27.264 78.933 C 34.145 87.736, 34.850 85.063, 19.994 106.509 C 13.397 116.031, 8 124.087, 8 124.411 C 8 124.735, 13.555 125, 20.345 125 C 34.689 125, 33.368 125.808, 40.415 112.716 L 45.142 103.931 51.321 114.216 L 57.500 124.500 81.750 124.768 L 106 125.036 106 114.168 L 106 103.301 117.087 102.627 C 132.041 101.719, 136.025 99.966, 142.146 91.600 L 145 87.700 145 91.882 C 145 130.688, 203.522 139.427, 214.980 102.331 C 224.735 70.745, 198.444 43.446, 168.300 53.862 M 71.500 69.683 C 65.450 77.714, 60.109 84.951, 59.631 85.766 C 58.857 87.085, 80.530 120.973, 83.206 122.627 C 83.643 122.897, 84 107.791, 84 89.059 C 84 70.327, 83.662 55.018, 83.250 55.041 C 82.838 55.063, 77.550 61.652, 71.500 69.683 M 177.313 70.142 C 166.260 73.202, 164.370 99.955, 174.727 106.741 C 184.706 113.278, 194 104.722, 194 89 C 194 74.415, 187.679 67.272, 177.313 70.142 M 106.204 78.135 L 106.500 85.500 112.561 85.793 C 119.874 86.146, 124 83.710, 124 79.038 C 124 73.712, 121.104 71.628, 113.074 71.174 L 105.908 70.769 106.204 78.135 M 8 147.500 L 8 166 21.500 166 L 35 166 35.005 162.250 L 35.010 158.500 37.255 161.164 C 44.227 169.439, 57.493 168.481, 61.978 159.379 L 63.456 156.380 65.510 159.440 C 68.562 163.984, 75.099 166.054, 79.116 163.748 L 82.125 162.021 81.813 165.261 C 81.454 168.977, 77.371 170.357, 75.042 167.551 C 73.005 165.096, 65 165.423, 65 167.961 C 65 175.330, 82.640 177.513, 89.198 170.956 L 92 168.154 92 154.577 C 92 147.110, 92.112 140.662, 92.250 140.250 C 92.630 139.110, 83.868 138.732, 82.759 139.841 C 82.133 140.467, 80.603 140.314, 78.443 139.412 C 73.331 137.276, 66.986 140.319, 64.839 145.938 L 63.907 148.376 61.998 145.236 C 54.888 133.546, 35.068 138.698, 35.015 152.250 L 35 156 27 156 L 19 156 19 142.500 L 19 129 13.500 129 L 8 129 8 147.500 M 135.644 135.024 C 131.529 139.254, 130.882 140.435, 131.409 142.758 L 132.031 145.500 130.224 143.397 C 124.265 136.460, 108.197 137.097, 106.155 144.352 C 105.657 146.121, 105.458 145.882, 105.025 143 L 104.500 139.500 100 139.500 C 94.571 139.500, 95 138.298, 95 153.500 L 95 166 100 166 L 105 166 105 163.077 L 105 160.154 107.850 163.003 C 112.774 167.928, 124.389 167.971, 129.338 163.083 L 131.177 161.268 133.543 163.634 C 135.549 165.640, 136.905 166, 142.455 166 L 149 166 149 162.500 C 149 159.514, 148.662 159, 146.700 159 C 143.237 159, 142 157.105, 142 151.800 L 142 147 145.560 147 L 149.121 147 148.810 143.250 C 148.527 139.826, 148.217 139.473, 145.250 139.187 L 142 138.873 142 134.437 C 142 128.870, 141.593 128.908, 135.644 135.024 M 198 139.175 C 193.703 140.397, 191 142.706, 191 145.155 C 191 147.685, 189.682 147.473, 188.487 144.750 C 184.989 136.776, 167.454 137.464, 163.730 145.722 L 162.500 148.448 162 143.974 L 161.500 139.500 156.500 139.500 L 151.500 139.500 151.500 152.500 L 151.500 165.500 156.750 165.802 L 162 166.105 162.040 161.802 L 162.080 157.500 163.520 160.151 C 167.789 168.011, 186.709 168.654, 188.708 161.008 C 189.309 158.711, 191 158.283, 191 160.427 C 191 166.917, 207.315 168.971, 214.024 163.326 C 220.736 157.679, 217.414 151.457, 206.181 148.636 C 201.142 147.371, 199.301 145, 203.358 145 C 204.746 145, 206.160 145.450, 206.500 146 C 207.439 147.519, 216 147.269, 216 145.723 C 216 140.278, 206.401 136.787, 198 139.175 M 46.571 147.571 C 43.700 150.443, 45.611 160, 49.057 160 C 51.007 160, 54 155.897, 54 153.223 C 54 147.574, 49.779 144.364, 46.571 147.571 M 75.571 147.571 C 72.997 150.146, 73.530 155.829, 76.470 157.168 C 79.898 158.730, 82 156.795, 82 152.078 C 82 146.494, 78.854 144.289, 75.571 147.571 M 173.557 148.223 C 170.483 152.611, 172.267 159, 176.567 159 C 177.939 159, 179.322 158.325, 179.638 157.500 C 180.662 154.833, 199.599 155.358, 200.309 158.074 C 200.722 159.652, 201.507 160.070, 203.599 159.824 C 208.016 159.303, 207.587 157.227, 202.815 156.030 C 196.020 154.327, 192.012 152.191, 191.032 149.751 C 190.534 148.513, 190.098 148.063, 190.063 148.750 C 189.950 150.992, 180.701 150.352, 179.232 148 C 177.597 145.382, 175.488 145.465, 173.557 148.223" stroke="none" fill="#ffffff" fill-rule="evenodd"/></svg>