<?xml version="1.0" standalone="no"?>
<!DOCTYPE svg PUBLIC "-//W3C//DTD SVG 20010904//EN"
 "http://www.w3.org/TR/2001/REC-SVG-20010904/DTD/svg10.dtd">
<svg version="1.0" xmlns="http://www.w3.org/2000/svg"
 width="137.000000pt" height="137.000000pt" viewBox="0 0 137.000000 137.000000"
 preserveAspectRatio="xMidYMid meet">

<g transform="translate(0.000000,137.000000) scale(0.100000,-0.100000)"
fill="#000000" stroke="none">
<path d="M1013 1045 c-55 -28 -86 -62 -105 -116 l-11 -32 -12 47 c-24 94 -73
116 -260 116 l-115 0 2 -222 3 -223 65 0 65 0 3 68 3 67 62 0 c80 1 139 26
156 69 17 40 31 31 31 -21 0 -110 96 -192 224 -190 128 2 210 90 210 227 1
140 -72 224 -201 232 -59 4 -75 1 -120 -22z m156 -104 c41 -41 41 -164 0 -207
-29 -31 -70 -31 -106 0 -26 23 -28 29 -28 99 0 66 3 79 24 101 30 32 82 35
110 7z m-420 -5 c7 -8 11 -27 9 -43 -2 -23 -10 -30 -39 -37 -56 -14 -69 -4
-69 49 l0 45 44 0 c26 0 48 -6 55 -14z"/>
<path d="M48 1048 c52 -66 142 -192 142 -199 0 -5 -33 -58 -72 -117 -40 -59
-74 -109 -76 -112 -1 -3 34 -3 79 0 l81 5 33 63 33 63 36 -65 37 -66 80 0 c44
0 78 3 75 8 -2 4 -36 54 -75 112 -39 57 -69 110 -67 117 3 7 37 53 76 102 38
49 70 92 70 95 0 4 -35 6 -77 4 l-77 -3 -30 -52 c-17 -28 -34 -54 -37 -58 -3
-3 -25 22 -48 55 l-42 60 -76 0 c-59 0 -73 -3 -65 -12z"/>
<path d="M32 448 l3 -113 83 -3 82 -3 0 28 c1 24 2 26 13 12 36 -47 97 -51
138 -10 l29 30 25 -25 c26 -26 54 -31 73 -12 17 17 25 3 12 -21 -11 -21 -40
-29 -40 -11 0 6 -13 10 -30 10 -20 0 -30 -5 -30 -15 0 -36 101 -49 141 -16 20
16 23 29 27 111 l5 93 -40 -5 c-22 -3 -46 -2 -55 3 -24 13 -58 -2 -74 -34
l-16 -30 -12 24 c-16 32 -59 52 -96 44 -37 -8 -70 -49 -70 -87 0 -28 -1 -29
-47 -26 l-48 3 -3 83 -3 82 -35 0 -35 0 3 -112z m282 -4 c11 -29 6 -53 -14
-64 -15 -8 -21 -6 -30 11 -16 29 -4 69 19 69 10 0 22 -7 25 -16z m176 1 c19
-23 8 -50 -20 -50 -16 0 -26 6 -28 18 -4 18 14 47 28 47 4 0 13 -7 20 -15z"/>
<path d="M828 529 c-23 -23 -28 -38 -28 -75 0 -44 -1 -46 -17 -32 -10 9 -33
19 -50 23 -50 10 -39 25 12 18 50 -6 59 6 23 31 -32 23 -81 20 -114 -6 -23
-18 -27 -19 -21 -5 5 14 0 17 -28 17 l-35 0 0 -80 0 -80 35 0 c28 0 33 3 28
17 -5 12 1 11 25 -7 25 -18 39 -22 74 -17 23 3 48 13 54 22 11 15 14 15 33 -4
13 -13 34 -21 56 -21 30 0 35 3 35 24 0 18 -6 25 -22 28 -18 2 -24 11 -26 36
-3 29 -1 32 22 32 21 0 26 5 26 25 0 20 -5 25 -26 25 -23 0 -26 3 -22 30 5 36
1 36 -34 -1z m-131 -124 c38 -8 51 -23 28 -32 -10 -3 -20 -1 -24 5 -3 5 -20
12 -36 14 -23 2 -31 9 -34 28 -3 24 -2 24 15 9 11 -9 34 -20 51 -24z"/>
<path d="M1053 503 c-13 -2 -32 -16 -43 -30 l-20 -26 0 27 c0 23 -4 26 -33 26
l-32 0 -1 -80 0 -80 33 0 c29 0 33 3 34 28 0 26 1 26 11 5 22 -46 124 -56 150
-14 10 16 12 16 34 -6 39 -39 128 -26 140 22 8 33 -9 52 -57 65 -22 6 -39 15
-39 20 0 12 4 12 53 1 29 -7 37 -6 37 5 0 25 -47 47 -86 41 -45 -7 -64 -23
-64 -52 0 -28 15 -41 57 -50 38 -8 51 -23 28 -32 -10 -3 -21 0 -25 7 -5 9 -31
11 -91 9 -83 -4 -84 -4 -87 21 -1 14 2 32 8 40 8 12 13 13 30 3 24 -15 70 -17
70 -3 0 13 -37 50 -49 50 -5 0 -15 2 -23 4 -7 2 -23 1 -35 -1z"/>
</g>
</svg>
