<svg xmlns="http://www.w3.org/2000/svg" width="225" height="225" viewBox="0 0 225 225" version="1.1"><path d="M 8.465 130.232 C 8.181 130.970, 8.074 139.207, 8.225 148.537 L 8.500 165.500 21.500 165.500 L 34.500 165.500 34.811 161.743 L 35.122 157.986 38.335 161.394 C 40.158 163.326, 43.283 165.268, 45.556 165.880 C 48.304 166.620, 50.705 166.644, 53.199 165.955 C 55.232 165.394, 58.195 163.403, 59.918 161.441 C 61.613 159.510, 63 157.415, 63 156.785 C 63 156.155, 64.610 157.521, 66.578 159.820 C 69.763 163.541, 70.635 164, 74.519 164 C 76.919 164, 79.160 163.550, 79.500 163 C 79.840 162.450, 80.541 162, 81.059 162 C 81.577 162, 82 163.575, 82 165.500 C 82 168.812, 81.818 169, 78.607 169 C 76.513 169, 74.994 168.426, 74.638 167.500 C 74.260 166.515, 72.699 166, 70.090 166 C 67.906 166, 65.846 166.441, 65.513 166.979 C 65.180 167.518, 65.389 168.858, 65.977 169.956 C 66.565 171.055, 68.006 172.468, 69.180 173.096 C 70.353 173.724, 74.506 174.209, 78.407 174.174 C 85.216 174.113, 85.630 173.969, 88.750 170.570 L 92 167.029 92 153.515 L 92 140 87.559 140 C 85.116 140, 82.837 140.455, 82.493 141.011 C 82.098 141.650, 81.077 141.467, 79.712 140.511 C 78.526 139.680, 76.340 139, 74.854 139 C 73.369 139, 70.730 140.198, 68.991 141.661 C 67.251 143.125, 65.396 145.460, 64.867 146.849 L 63.907 149.376 61.962 146.179 C 60.893 144.420, 58.552 142.061, 56.759 140.935 C 54.240 139.353, 52.292 138.978, 48.178 139.283 C 43.657 139.617, 42.311 140.222, 39.228 143.305 C 36.372 146.161, 35.482 147.953, 35.050 151.717 C 34.747 154.348, 34.163 156.387, 33.750 156.250 C 33.337 156.113, 29.863 156, 26.029 156 L 19.058 156 18.779 142.750 L 18.500 129.500 13.740 129.195 C 10.453 128.984, 8.820 129.305, 8.465 130.232 M 136.208 135.288 C 132.049 139.525, 132 139.660, 132 146.788 C 132 150.755, 131.733 154, 131.408 154 C 131.082 154, 129.686 153.112, 128.306 152.026 C 126.926 150.941, 124.155 149.757, 122.149 149.395 C 120.142 149.033, 117.660 148.302, 116.633 147.771 C 114.944 146.896, 114.914 146.657, 116.323 145.248 C 117.732 143.839, 118.120 143.848, 120.405 145.346 C 121.793 146.256, 124.520 147, 126.465 147 C 128.409 147, 130 146.587, 130 146.082 C 130 145.577, 129.720 144.435, 129.379 143.545 C 129.037 142.654, 127.485 141.268, 125.928 140.463 C 124.372 139.658, 120.636 139, 117.626 139 C 113.197 139, 111.567 139.494, 109.077 141.589 C 107.021 143.319, 106 145.086, 106 146.915 C 106 148.463, 106.977 150.565, 108.250 151.754 C 109.487 152.911, 112.750 154.412, 115.500 155.091 C 118.250 155.769, 120.829 156.814, 121.231 157.412 C 121.634 158.010, 121.275 159.015, 120.435 159.644 C 119.595 160.274, 118.070 160.569, 117.046 160.302 C 116.022 160.034, 114.960 158.957, 114.686 157.908 C 114.287 156.380, 113.272 156, 109.594 156 C 105.278 156, 104.993 155.834, 104.881 153.250 C 104.816 151.738, 104.703 148.250, 104.631 145.500 L 104.500 140.500 99.720 140.194 L 94.939 139.888 95.220 152.694 L 95.500 165.500 100 165.500 C 104.104 165.500, 104.510 165.280, 104.608 163 C 104.668 161.625, 104.781 160.208, 104.858 159.850 C 104.936 159.492, 106.580 160.780, 108.512 162.712 C 111.966 166.166, 112.140 166.218, 119.023 165.829 C 124.904 165.497, 126.431 165.024, 128.586 162.869 L 131.150 160.304 134.049 163.203 C 136.677 165.831, 137.487 166.073, 142.724 165.801 C 148.404 165.505, 148.500 165.450, 148.500 162.510 C 148.500 159.969, 148.050 159.442, 145.500 159.004 C 142.625 158.510, 142.488 158.252, 142.202 152.811 L 141.904 147.134 145.202 146.817 C 148.113 146.537, 148.537 146.119, 148.813 143.250 C 149.114 140.133, 148.981 140, 145.563 140 C 142.007 140, 142 139.991, 142 135.500 C 142 133.025, 141.644 131, 141.208 131 C 140.773 131, 138.523 132.930, 136.208 135.288 M 170.414 140.422 C 168.717 141.161, 166.135 143.281, 164.675 145.133 L 162.022 148.500 162.011 144.250 L 162 140 156.970 140 L 151.940 140 152.220 152.750 L 152.500 165.500 157 165.500 L 161.500 165.500 161.815 161.093 L 162.130 156.685 164.021 159.794 C 165.061 161.504, 167.354 163.649, 169.116 164.560 C 171.421 165.752, 174.001 166.096, 178.309 165.784 C 183.482 165.410, 184.678 164.925, 187.094 162.221 L 189.891 159.091 193.345 162.545 C 196.538 165.738, 197.268 166, 202.966 166 C 206.357 166, 210.114 165.497, 211.316 164.883 C 212.517 164.269, 214.277 162.806, 215.228 161.633 C 216.178 160.460, 216.966 158.588, 216.978 157.473 C 216.990 156.357, 216.309 154.458, 215.464 153.252 C 214.619 152.046, 212.256 150.616, 210.214 150.075 C 208.171 149.534, 205.262 148.837, 203.750 148.526 C 202.238 148.216, 201 147.344, 201 146.588 C 201 145.832, 201.619 144.976, 202.376 144.686 C 203.132 144.396, 204.984 144.798, 206.490 145.579 C 207.996 146.361, 210.501 147, 212.055 147 C 213.610 147, 215.189 146.503, 215.564 145.896 C 215.940 145.289, 215.056 143.601, 213.601 142.146 C 211.216 139.762, 210.223 139.500, 203.558 139.500 C 197.106 139.500, 195.832 139.810, 193.581 141.924 C 192.065 143.348, 191 145.443, 191 147 C 191 148.463, 192.009 150.589, 193.250 151.744 C 194.488 152.895, 197.970 154.436, 200.990 155.168 C 204.535 156.028, 206.588 157.074, 206.788 158.121 C 206.974 159.094, 206.236 159.967, 204.940 160.305 C 203.450 160.695, 202.087 160.117, 200.527 158.435 C 198.474 156.219, 197.497 156, 189.685 156 C 182.800 156, 180.919 156.322, 180.190 157.625 C 179.690 158.519, 178.041 159.250, 176.527 159.250 C 175.012 159.250, 173.381 158.631, 172.902 157.875 C 172.423 157.119, 172.024 155.008, 172.015 153.184 C 172.007 151.361, 172.466 148.998, 173.035 147.934 C 173.634 146.815, 175.122 146, 176.567 146 C 177.939 146, 179.322 146.675, 179.638 147.500 C 180.042 148.551, 181.680 149, 185.107 149 C 187.798 149, 190 148.611, 190 148.135 C 190 147.659, 189.024 146.030, 187.832 144.514 C 186.640 142.998, 184.179 141.137, 182.364 140.379 C 180.549 139.620, 177.812 139.018, 176.282 139.039 C 174.752 139.061, 172.111 139.683, 170.414 140.422 M 46.200 147.200 C 45.540 147.860, 45 150.303, 45 152.629 C 45 155.139, 45.638 157.495, 46.571 158.429 C 47.436 159.293, 48.754 160, 49.500 160 C 50.246 160, 51.564 159.293, 52.429 158.429 C 53.293 157.564, 54 155.285, 54 153.363 C 54 151.441, 53.534 148.998, 52.965 147.934 C 52.395 146.870, 50.910 146, 49.665 146 C 48.419 146, 46.860 146.540, 46.200 147.200 M 75.200 147.200 C 74.540 147.860, 74 150.055, 74 152.078 C 74 154.112, 74.664 156.306, 75.487 156.989 C 76.307 157.669, 78.048 157.954, 79.368 157.623 C 80.701 157.288, 82.019 156.034, 82.344 154.791 C 82.665 153.564, 82.650 151.422, 82.310 150.030 C 81.970 148.639, 81.199 147.169, 80.596 146.765 C 79.993 146.361, 78.802 146.024, 77.950 146.015 C 77.098 146.007, 75.860 146.540, 75.200 147.200" stroke="none" fill="#221d1d" fill-rule="evenodd"/><path d="M 169.300 53.862 C 166.440 54.850, 162.200 56.973, 159.878 58.579 C 157.557 60.186, 154.353 63.299, 152.758 65.497 C 151.164 67.696, 149.152 70.984, 148.288 72.806 C 147.424 74.627, 146.406 75.753, 146.027 75.308 C 145.648 74.864, 144.824 72.700, 144.197 70.500 C 143.570 68.300, 141.695 64.853, 140.030 62.840 C 138.365 60.827, 134.664 58.015, 131.805 56.590 C 126.702 54.047, 126.221 54, 105.304 54 L 84 54 84 88.583 C 84 110.716, 83.647 123.047, 83.021 122.833 C 82.482 122.650, 76.857 114.875, 70.521 105.556 C 64.184 96.237, 59 87.863, 59 86.947 C 59 86.032, 64.175 78.502, 70.500 70.214 C 76.825 61.926, 82 54.888, 82 54.573 C 82 54.258, 76.620 54, 70.043 54 L 58.087 54 52.793 62.976 C 49.882 67.913, 46.992 71.963, 46.371 71.976 C 45.750 71.989, 42.679 68.148, 39.546 63.440 C 36.413 58.732, 33.294 54.666, 32.614 54.405 C 31.934 54.144, 26.365 54.059, 20.238 54.215 L 9.099 54.500 21.049 69.942 C 27.622 78.436, 33 86.131, 33 87.042 C 33 87.954, 31.740 90.455, 30.201 92.600 C 28.661 94.745, 23.473 102.233, 18.673 109.241 C 13.872 116.249, 9.684 122.661, 9.365 123.491 C 8.870 124.782, 10.437 125, 20.219 125 C 30.807 125, 31.801 124.834, 33.681 122.750 C 34.797 121.513, 37.688 116.788, 40.105 112.251 C 42.522 107.714, 44.789 104.002, 45.143 104.001 C 45.496 104, 48.587 108.733, 52.011 114.518 L 58.236 125.036 81.868 124.768 L 105.500 124.500 105.782 113.898 L 106.065 103.296 116.782 102.717 C 122.809 102.392, 129.032 101.480, 131 100.634 C 132.925 99.807, 135.853 97.864, 137.506 96.315 C 139.160 94.767, 141.508 92.150, 142.725 90.500 L 144.937 87.500 144.980 91 C 145.004 92.925, 145.679 96.963, 146.481 99.974 C 147.282 102.985, 149.639 107.901, 151.719 110.899 C 153.798 113.897, 157.691 117.850, 160.369 119.682 C 163.047 121.514, 167.733 123.739, 170.784 124.626 C 174.613 125.739, 178.678 126.094, 183.915 125.773 C 189.051 125.458, 193.114 124.542, 196.500 122.936 C 199.250 121.631, 203.591 118.480, 206.146 115.934 C 208.701 113.387, 211.584 109.773, 212.552 107.902 C 213.520 106.031, 214.911 102.250, 215.644 99.500 C 216.377 96.750, 216.982 91.960, 216.988 88.855 C 216.995 85.751, 216.103 80.307, 215.007 76.758 C 213.911 73.210, 211.427 68.228, 209.488 65.688 C 207.548 63.148, 204.058 59.774, 201.731 58.190 C 199.404 56.607, 195.282 54.566, 192.572 53.655 C 189.861 52.745, 184.686 52.015, 181.072 52.033 C 177.430 52.051, 172.182 52.866, 169.300 53.862 M 176.049 70.274 C 173.908 71.035, 171.821 72.828, 170.549 75 C 168.836 77.926, 168.500 80.221, 168.500 89 C 168.500 97.779, 168.836 100.074, 170.549 103 C 171.816 105.162, 173.918 106.973, 176.049 107.738 C 177.947 108.419, 181.288 108.736, 183.474 108.441 C 185.660 108.146, 188.284 107.148, 189.306 106.223 C 190.329 105.298, 191.803 103.014, 192.583 101.148 C 193.440 99.097, 194 94.294, 194 89 C 194 83.466, 193.446 78.919, 192.495 76.642 C 191.667 74.660, 189.979 72.389, 188.745 71.594 C 187.510 70.798, 184.925 69.901, 183 69.598 C 181.075 69.296, 177.947 69.600, 176.049 70.274 M 106 78.391 L 106 86 113 86 C 118.667 86, 120.381 85.619, 122 84 C 123.194 82.806, 124 80.667, 124 78.691 C 124 76.871, 123.369 74.520, 122.598 73.466 C 121.483 71.939, 119.649 71.471, 113.598 71.165 L 106 70.781 106 78.391" stroke="none" fill="#cc2225" fill-rule="evenodd"/></svg>